<svg xmlns="http://www.w3.org/2000/svg" width="21" height="21"><path fill="#fff" d="M14.887 20.37H6.443a5.585 5.585 0 0 1-5.579-5.578V6.348A5.585 5.585 0 0 1 6.443.769h8.444a5.586 5.586 0 0 1 5.579 5.579v8.444a5.585 5.585 0 0 1-5.58 5.579zM6.443 2.45a3.903 3.903 0 0 0-3.899 3.898v8.444a3.903 3.903 0 0 0 3.899 3.899h8.444c2.15 0 3.899-1.75 3.899-3.899V6.348a3.903 3.903 0 0 0-3.9-3.899zm4.222 13.139a5.025 5.025 0 0 1-5.02-5.02 5.025 5.025 0 0 1 5.02-5.018 5.025 5.025 0 0 1 5.019 5.019 5.025 5.025 0 0 1-5.02 5.019zm0-8.358a3.342 3.342 0 0 0-3.339 3.339 3.343 3.343 0 0 0 3.339 3.339 3.342 3.342 0 0 0 3.338-3.34 3.342 3.342 0 0 0-3.338-3.338zm6.44-1.967a1.206 1.206 0 1 1-2.412 0 1.206 1.206 0 0 1 2.412 0z"/></svg>