<svg xmlns="http://www.w3.org/2000/svg" xmlns:xlink="http://www.w3.org/1999/xlink" preserveAspectRatio="xMidYMid" width="25.38" height="14.625" viewBox="0 0 25.38 14.625">
  <defs>
    <style>
      .cls-1 {
        fill: #d4ae67;
        fill-rule: evenodd;
      }
    </style>
  </defs>
  <path d="M12.416,14.416 L13.933,14.416 C13.933,14.416 14.391,14.365 14.625,14.113 C14.840,13.881 14.834,13.446 14.834,13.446 C14.834,13.446 14.804,11.410 15.749,11.111 C16.681,10.814 17.876,13.078 19.145,13.948 C20.104,14.608 20.833,14.463 20.833,14.463 L24.222,14.416 C24.222,14.416 25.996,14.306 25.154,12.911 C25.086,12.797 24.665,11.880 22.633,9.995 C20.508,8.023 20.793,8.341 23.354,4.928 C24.914,2.849 25.537,1.581 25.343,1.037 C25.156,0.519 24.010,0.657 24.010,0.657 L20.192,0.680 C20.192,0.680 19.909,0.642 19.699,0.766 C19.493,0.889 19.362,1.177 19.362,1.177 C19.362,1.177 18.758,2.786 17.952,4.152 C16.252,7.040 15.572,7.191 15.295,7.013 C14.649,6.594 14.810,5.333 14.810,4.438 C14.810,1.641 15.234,0.475 13.984,0.174 C13.570,0.073 13.263,0.007 12.203,-0.003 C10.840,-0.018 9.688,0.001 9.035,0.320 C8.600,0.532 8.266,1.007 8.469,1.034 C8.721,1.067 9.294,1.189 9.597,1.601 C9.987,2.133 9.974,3.327 9.974,3.327 C9.974,3.327 10.199,6.621 9.449,7.030 C8.934,7.311 8.228,6.737 6.712,4.118 C5.937,2.777 5.351,1.295 5.351,1.295 C5.351,1.295 5.238,1.019 5.036,0.870 C4.790,0.690 4.449,0.633 4.449,0.633 L0.822,0.657 C0.822,0.657 0.277,0.672 0.077,0.909 C-0.100,1.119 0.063,1.555 0.063,1.555 C0.063,1.555 2.902,8.199 6.118,11.547 C9.066,14.617 12.416,14.416 12.416,14.416 L12.416,14.416 Z" class="cls-1"/>
</svg>
