<svg xmlns="http://www.w3.org/2000/svg" width="1005" height="83" viewBox="0 0 1005 83">
  <defs>
    <style>
      .cls-1 {
        fill: #d1d3d4;
        fill-rule: evenodd;
      }
    </style>
  </defs>
  <path id="ЧРЕЗМЕРНОЕ_УПОТРЕБЛЕНИЕ_ПИВА_ВРЕДИТ_ЗДОРОВЬЮ" data-name="ЧРЕЗМЕРНОЕ УПОТРЕБЛЕНИЕ  ПИВА ВРЕДИТ ЗДОРОВЬЮ" class="cls-1" d="M24.717,793.929h1.174V714.82H24.717v36.235c-1.885,2.5-3.486,3.809-6.581,3.809-4.2,0-7.968-4.026-7.968-19.913V714.82H8.994v20.457c0,17.52,4.269,22.851,8.573,22.851,3.095,0,5.087-1.2,7.15-3.264v39.065ZM37.74,718.193c2.775,0,4.8.218,6.332,2.829,1.707,2.83,2.6,7.835,2.6,14.364,0,7.944-1.138,14.255-2.953,16.649C42.187,754.1,40.23,754.1,37.7,754.1H32.8V718.193H37.74Zm0.889-3.373H31.586v79.109H32.8V757.367h5.727c3.415,0,5.763-.762,7.47-5.985,1.245-3.809,1.921-9.358,1.921-15.67C47.914,721.24,44.855,714.82,38.63,714.82Zm13.628,79.109H68.372v-3.591H53.467V754.429h13.3v-3.374h-13.3V718.411H68.016V714.82H52.257v79.109Zm26.149-39.718H79.83c5.585,0,8.929,7.073,8.929,18.825,0,14.8-4.091,19.261-8.146,19.261-4.624,0-8.075-8.488-8.36-22.525H71.043c0.284,16.322,4.055,25.9,9.747,25.9,4.98,0,9.249-6.2,9.249-22.634,0-10.555-2.419-18.825-6.4-20.457,3.451-1.2,5.336-9.9,5.336-18.716,0-13.494-3.273-20.784-8.431-20.784-5.051,0-8.609,10.228-8.858,23.178h1.138c0.178-11.426,3.593-19.8,7.79-19.8,3.771,0,7.15,5.767,7.15,17.193,0,9.9-2.312,17.737-7.9,17.737H78.407v2.829Zm15.975,39.718h1.067V719.5l9.285,74.43h1.138l9.32-74.43v74.43h1.068V714.82h-1.672l-9.249,74.43L96.09,714.82H94.382v79.109Zm27.787,0h16.114v-3.591h-14.9V754.429h13.3v-3.374h-13.3V718.411h14.55V714.82H122.169v79.109Zm26.541-75.736c2.774,0,4.8.218,6.332,2.829,1.707,2.83,2.6,7.835,2.6,14.364,0,7.944-1.138,14.255-2.952,16.649-1.53,2.067-3.486,2.067-6.012,2.067h-4.909V718.193h4.945Zm0.889-3.373h-7.044v79.109h1.21V757.367h5.727c3.415,0,5.763-.762,7.471-5.985,1.245-3.809,1.92-9.358,1.92-15.67C158.883,721.24,155.824,714.82,149.6,714.82Zm13.592,79.109H164.4V753.341h16.364v40.588h1.21V714.82h-1.21v35.256H164.4V714.82h-1.209v79.109Zm23.588-39.5c0,25.789,4.34,41.241,11.419,41.241s11.455-15.452,11.455-41.241-4.376-41.35-11.455-41.35S186.779,728.639,186.779,754.429Zm1.245,0c0-23.722,3.842-37.977,10.174-37.977s10.21,14.255,10.21,37.977S204.53,792.3,198.2,792.3,188.024,778.151,188.024,754.429Zm26.471,39.5h16.114v-3.591H215.7V754.429h13.3v-3.374H215.7V718.411h14.55V714.82H214.5v79.109Zm28.178-79.109h-1.387l9.64,65.072-0.569,4.57c-0.818,5.441-1.494,7.943-3.095,8.052a3.539,3.539,0,0,1-1.352-.544v3.373a5.037,5.037,0,0,0,1.352.436c1.992,0,3.095-2.721,4.056-9.576l8.928-71.383h-1.387l-7.328,61.372Zm20.564,79.109h1.21V718.084h16.328v75.845h1.245V714.82H263.237v79.109Zm23.589-39.5c0,25.789,4.34,41.241,11.419,41.241S309.7,780.218,309.7,754.429s-4.375-41.35-11.454-41.35S286.826,728.639,286.826,754.429Zm1.245,0c0-23.722,3.842-37.977,10.174-37.977s10.209,14.255,10.209,37.977S304.577,792.3,298.245,792.3,288.071,778.151,288.071,754.429Zm32.162,39.5h1.21V718.3h8.039V714.82H312.051V718.3h8.182v75.627Zm18.785-75.736c2.775,0,4.8.218,6.333,2.829,1.707,2.83,2.6,7.835,2.6,14.364,0,7.944-1.138,14.255-2.952,16.649-1.53,2.067-3.486,2.067-6.012,2.067h-4.909V718.193h4.944Zm0.89-3.373h-7.044v79.109h1.21V757.367H339.8c3.415,0,5.763-.762,7.47-5.985,1.246-3.809,1.921-9.358,1.921-15.67C349.192,721.24,346.133,714.82,339.908,714.82Zm13.627,79.109H369.65v-3.591h-14.9V754.429h13.3v-3.374h-13.3V718.411h14.549V714.82H353.535v79.109Zm27.075-3.373h-5.692v-35.91h5.656c4.98,0,8.929,1.306,8.929,18.717,0,6.529-.889,11.534-2.6,14.363C385.377,790.338,383.349,790.556,380.61,790.556Zm0.854,3.373c6.26,0,9.284-6.42,9.284-20.893,0-17.193-3.842-21.654-9.391-21.654h-6.439V718.193H389.5V714.82H373.709v79.109h7.755Zm10.141-4.135V793.6a6.284,6.284,0,0,0,1.565.327c4.091,0,4.838-22.2,4.838-38.194V718.193h13.873v75.736h1.174V714.82H396.8v36.235c0,18.826-.462,39.174-3.664,39.174A5.16,5.16,0,0,1,391.605,789.794Zm27.359,4.135h16.115v-3.591H420.173V754.429h13.305v-3.374H420.173V718.411h14.55V714.82H418.964v79.109Zm20.351,0h1.209V753.341h16.364v40.588h1.21V714.82h-1.21v35.256H440.524V714.82h-1.209v79.109Zm43.26,0V714.82H481.33l-16.185,72.8v-72.8h-1.21v79.109h1.21l16.221-72.689v72.689h1.209Zm5.873,0h16.115v-3.591h-14.9V754.429h13.3v-3.374h-13.3V718.411h14.549V714.82H488.448v79.109Zm27.993-.08h1.209V718h16.328v75.845h1.245V714.74H516.441v79.109Zm46.462,0V714.74h-1.245l-16.185,72.8v-72.8h-1.21v79.109h1.21l16.221-72.689v72.689H562.9Zm10.285-3.374V754.131h6.439c6.047,0,8.929,5,8.929,17.954,0,7.944-1.174,13.929-3.166,16.432-1.494,1.85-3.38,1.958-5.8,1.958h-6.4Zm0-39.173V718.113h5.941c5.442,0,8.146,3.373,8.146,16,0,11.97-2.668,17.193-8.075,17.193h-6.012Zm-1.209,42.547h7.861c3.024,0,5.3-.544,7.044-3.918,1.814-3.373,2.917-9.793,2.917-17.193,0-11.425-2.064-19.26-6.3-20.348,3.415-2.394,4.98-9.576,4.98-18.064,0-7.073-1-12.949-2.774-16.1-1.6-2.938-3.771-3.482-6.688-3.482h-7.043v79.109ZM599.231,763.6l5.656-44.506,5.55,44.506H599.231Zm-5.015,30.251h1.209l3.38-26.987h12.059l3.344,26.987h1.173l-9.818-79.109h-1.351Zm40.736-3.374V754.131h6.439c6.047,0,8.928,5,8.928,17.954,0,7.944-1.173,13.929-3.166,16.432-1.494,1.85-3.379,1.958-5.8,1.958h-6.4Zm0-39.173V718.113h5.941c5.442,0,8.146,3.373,8.146,16,0,11.97-2.668,17.193-8.075,17.193h-6.012Zm-1.21,42.547H641.6c3.024,0,5.3-.544,7.044-3.918,1.814-3.373,2.916-9.793,2.916-17.193,0-11.425-2.063-19.26-6.3-20.348,3.415-2.394,4.98-9.576,4.98-18.064,0-7.073-1-12.949-2.774-16.1-1.6-2.938-3.771-3.482-6.688-3.482h-7.044v79.109ZM665.3,718.113c2.774,0,4.8.217,6.332,2.829,1.707,2.829,2.6,7.835,2.6,14.364,0,7.943-1.138,14.255-2.952,16.649-1.53,2.067-3.486,2.067-6.012,2.067h-4.909V718.113H665.3Zm0.889-3.373h-7.044v79.109h1.21V757.286h5.727c3.415,0,5.763-.761,7.471-5.984,1.245-3.809,1.92-9.358,1.92-15.67C675.473,721.16,672.414,714.74,666.189,714.74Zm16.83,79.109h16.114v-3.591H684.228V754.349h13.3v-3.374h-13.3V718.33h14.549v-3.59H683.019v79.109Zm41.126-75.736v72.362H708c1.672-6.093,2.6-19.478,2.6-34.821V718.113h13.554ZM704.58,790.475V813h1.174V793.849h20.952V813h1.138V790.475h-2.49V714.848H709.382v36.127c0,23.069-.889,31.883-2.81,39.5H704.58Zm48.6,3.374V714.74h-1.245l-16.186,72.8v-72.8h-1.209v79.109h1.209l16.221-72.689v72.689h1.21Zm14.767,0h1.209V718.222h8.04V714.74H759.762v3.482h8.182v75.627Zm34.12-39.718h1.423c5.585,0,8.928,7.073,8.928,18.825,0,14.8-4.09,19.26-8.146,19.26-4.624,0-8.075-8.487-8.359-22.524H794.7c0.285,16.322,4.055,25.9,9.747,25.9,4.98,0,9.249-6.2,9.249-22.634,0-10.555-2.419-18.825-6.4-20.457,3.45-1.2,5.336-9.9,5.336-18.717,0-13.493-3.273-20.783-8.431-20.783-5.051,0-8.609,10.228-8.858,23.177h1.139c0.178-11.425,3.593-19.8,7.79-19.8,3.771,0,7.15,5.767,7.15,17.193,0,9.9-2.312,17.737-7.9,17.737h-1.458v2.829Zm36.715-36.018v72.362h-16.15c1.672-6.093,2.6-19.478,2.6-34.821V718.113h13.554Zm-19.565,72.362V813h1.174V793.849H841.34V813h1.138V790.475h-2.49V714.848H824.016v36.127c0,23.069-.889,31.883-2.81,39.5h-1.992Zm28.925-36.126c0,25.789,4.34,41.241,11.419,41.241s11.455-15.452,11.455-41.241S866.637,713,859.558,713,848.139,728.559,848.139,754.349Zm1.245,0c0-23.722,3.842-37.977,10.174-37.977s10.209,14.255,10.209,37.977-3.877,37.867-10.209,37.867S849.384,778.07,849.384,754.349Zm35.827-36.236c2.774,0,4.8.217,6.332,2.829,1.707,2.829,2.6,7.835,2.6,14.364,0,7.943-1.139,14.255-2.953,16.649-1.53,2.067-3.486,2.067-6.012,2.067h-4.909V718.113h4.945Zm0.889-3.373h-7.043v79.109h1.209V757.286h5.727c3.415,0,5.763-.761,7.471-5.984,1.245-3.809,1.921-9.358,1.921-15.67C895.385,721.16,892.325,714.74,886.1,714.74Zm15.763,39.609c0,25.789,4.34,41.241,11.419,41.241s11.454-15.452,11.454-41.241S920.361,713,913.282,713,901.863,728.559,901.863,754.349Zm1.245,0c0-23.722,3.842-37.977,10.174-37.977s10.209,14.255,10.209,37.977-3.877,37.867-10.209,37.867S903.108,778.07,903.108,754.349Zm30.882,36.126V754.131h6.438c6.048,0,8.929,5,8.929,17.954,0,7.944-1.174,13.929-3.166,16.432-1.494,1.85-3.379,1.958-5.8,1.958h-6.4Zm0-39.173V718.113h5.94c5.443,0,8.147,3.373,8.147,16,0,11.97-2.668,17.193-8.076,17.193H933.99Zm-1.21,42.547h7.862c3.024,0,5.3-.544,7.043-3.918,1.815-3.373,2.917-9.793,2.917-17.193,0-11.425-2.063-19.26-6.3-20.348,3.415-2.394,4.98-9.576,4.98-18.064,0-7.073-1-12.949-2.775-16.1-1.6-2.938-3.77-3.482-6.687-3.482H932.78v79.109Zm32.731-3.374h-5.692V754.566h5.657c2.49,0,4.446,0,5.976,2.068,1.814,2.394,2.952,8.705,2.952,16.649,0,6.528-.889,11.534-2.6,14.363C970.278,790.258,968.25,790.475,965.511,790.475Zm0.854,3.374c6.261,0,9.285-6.42,9.285-20.893,0-6.311-.676-11.861-1.921-15.67-1.708-5.223-4.056-5.984-7.471-5.984h-6.439V714.74H958.61v79.109h7.755ZM1002.55,713c-6.691,0-10.96,13.6-11.422,37h-6.475V714.74h-1.209v79.109h1.209V753.26h6.475v1.089c0,25.789,4.339,41.241,11.422,41.241S1014,780.138,1014,754.349,1009.63,713,1002.55,713Zm-10.177,41.35c0-23.722,3.841-37.977,10.177-37.977s10.21,14.255,10.21,37.977-3.88,37.867-10.21,37.867S992.373,778.07,992.373,754.349Z" transform="translate(-9 -713)"/>
</svg>
