<svg id="илюстрашка" xmlns="http://www.w3.org/2000/svg" width="385" height="141" viewBox="0 0 385 141">
  <metadata><?xpacket begin="﻿" id="W5M0MpCehiHzreSzNTczkc9d"?>
<x:xmpmeta xmlns:x="adobe:ns:meta/" x:xmptk="Adobe XMP Core 5.6-c138 79.159824, 2016/09/14-01:09:01        ">
   <rdf:RDF xmlns:rdf="http://www.w3.org/1999/02/22-rdf-syntax-ns#">
      <rdf:Description rdf:about=""/>
   </rdf:RDF>
</x:xmpmeta>
                                                                                                    
                                                                                                    
                                                                                                    
                                                                                                    
                                                                                                    
                                                                                                    
                                                                                                    
                                                                                                    
                                                                                                    
                                                                                                    
                                                                                                    
                                                                                                    
                                                                                                    
                                                                                                    
                                                                                                    
                                                                                                    
                                                                                                    
                                                                                                    
                                                                                                    
                                                                                                    
                           
<?xpacket end="w"?></metadata>
<defs>
    <style>
      .cls-1 {
        fill: #006ed9;
        opacity: 0.34;
      }

      .cls-1, .cls-12, .cls-2, .cls-3, .cls-4, .cls-5 {
        fill-rule: evenodd;
      }

      .cls-2, .cls-8 {
        fill: #002d62;
      }

      .cls-3 {
        fill: #fff;
      }

      .cls-10, .cls-4 {
        fill: #004990;
      }

      .cls-5, .cls-6 {
        fill: #d1d1d1;
      }

      .cls-12, .cls-7 {
        fill: #cfcfcf;
      }

      .cls-9 {
        fill: #4bae00;
      }

      .cls-10, .cls-11 {
        stroke: #004990;
        stroke-width: 1px;
      }

      .cls-10 {
        opacity: 0.5;
      }

      .cls-11 {
        fill: none;
      }
    </style>
  </defs>
  <path class="cls-1" d="M328,458c0-59.647,82.827-120,185-120s185,60.353,185,120" transform="translate(-320 -319)"/>
  <path id="Forma_1" data-name="Forma 1" class="cls-2" d="M379.821,426.729a6.329,6.329,0,0,0-5.693-6.277,6.361,6.361,0,0,0-9.223-3.215,6.364,6.364,0,0,0-11.82,2.067,6.326,6.326,0,0,0-7.144,6.258c0,0.171.013,0.338,0.026,0.5a6.276,6.276,0,0,0-.6,10.243c-0.006.113-.018,0.226-0.018,0.341a6.361,6.361,0,0,0,9.274,5.6c1.211,0.863,2.945,1.943,3.784,1.728,0,0,.313,4.8.245,6.023a42.068,42.068,0,0,1-1.323,7h7.643a53.6,53.6,0,0,1-1.175-6.218,27.88,27.88,0,0,1,.49-4.422l2.651-2.722a6.384,6.384,0,0,0,9.9-4.572,6.318,6.318,0,0,0,4.15-5.919,6.249,6.249,0,0,0-1.6-4.174A6.235,6.235,0,0,0,379.821,426.729ZM356.1,441.214a6.36,6.36,0,0,0,1.264-1.674l1.248,2.6S357.927,442.434,356.1,441.214Zm4.667,1.6c-0.646.116-1.746-1.858-2.526-3.463a6.252,6.252,0,0,0,3.668.637C361.7,441.275,361.35,442.71,360.762,442.817Zm2.744,1.263c-1.493.412-.6-2.66-0.171-4.438a6.287,6.287,0,0,0,.894-0.409,6.257,6.257,0,0,0,1.58,3.39A6.633,6.633,0,0,1,363.506,444.08Z" transform="translate(-320 -319)"/>
  <path id="Forma_1_copy_6" data-name="Forma 1 copy 6" class="cls-2" d="M541.5,444.624a2.749,2.749,0,0,0-2.4-2.773,2.683,2.683,0,0,0-2.508-1.82,2.58,2.58,0,0,0-1.376.4A2.659,2.659,0,0,0,532.886,439a2.712,2.712,0,0,0-2.64,2.345,2.592,2.592,0,0,0-.331-0.024,2.735,2.735,0,0,0-2.677,2.789c0,0.075.006,0.149,0.011,0.223a2.854,2.854,0,0,0-.251,4.526c0,0.05-.007.1-0.007,0.151a2.734,2.734,0,0,0,2.677,2.788,2.579,2.579,0,0,0,1.227-.312,2.88,2.88,0,0,0,1.594.764s0.131,2.122.1,2.661a19.429,19.429,0,0,1-.557,3.091h3.218a24.817,24.817,0,0,1-.5-2.748,12.915,12.915,0,0,1,.206-1.953l1.117-1.2a2.584,2.584,0,0,0,1.508.48,2.722,2.722,0,0,0,2.662-2.5A2.788,2.788,0,0,0,542,447.461a2.838,2.838,0,0,0-.673-1.844A2.885,2.885,0,0,0,541.5,444.624Zm-9.99,6.4a2.83,2.83,0,0,0,.532-0.74l0.525,1.147A1.289,1.289,0,0,1,531.514,451.025Zm1.965,0.708c-0.272.051-.735-0.821-1.064-1.53a2.507,2.507,0,0,0,1.545.281A1.734,1.734,0,0,1,533.479,451.733Zm1.155,0.558c-0.629.182-.252-1.175-0.072-1.961a2.465,2.465,0,0,0,.377-0.181,2.824,2.824,0,0,0,.665,1.5A2.782,2.782,0,0,1,534.634,452.291Z" transform="translate(-320 -319)"/>
  <path id="Forma_1_copy_7" data-name="Forma 1 copy 7" class="cls-2" d="M655.659,448.552a1.792,1.792,0,0,0-1.648-1.751,1.838,1.838,0,0,0-1.724-1.15,1.89,1.89,0,0,0-.946.252,1.854,1.854,0,0,0-1.607-.9,1.818,1.818,0,0,0-1.815,1.481,1.9,1.9,0,0,0-.227-0.015,1.8,1.8,0,0,0-1.841,1.762c0,0.047,0,.094.008,0.141a1.715,1.715,0,0,0-.173,2.858c0,0.032,0,.063,0,0.1a1.8,1.8,0,0,0,1.84,1.761,1.89,1.89,0,0,0,.845-0.2,2.062,2.062,0,0,0,1.1.483s0.091,1.34.071,1.68a11.338,11.338,0,0,1-.383,1.952h2.213a14.376,14.376,0,0,1-.341-1.735,7.565,7.565,0,0,1,.142-1.234l0.768-.76a1.879,1.879,0,0,0,1.037.3A1.814,1.814,0,0,0,654.8,452a1.769,1.769,0,0,0,1.2-1.652A1.691,1.691,0,0,1,655.659,448.552Zm-6.868,4.043a1.781,1.781,0,0,0,.365-0.468l0.362,0.725A0.943,0.943,0,0,1,648.791,452.6Zm1.351,0.447a1.831,1.831,0,0,1-.732-0.967,1.863,1.863,0,0,0,1.062.178A1.051,1.051,0,0,1,650.142,453.042Zm0.794,0.352c-0.432.115-.173-0.742-0.05-1.238a1.882,1.882,0,0,0,.259-0.114,1.721,1.721,0,0,0,.457.946A1.916,1.916,0,0,1,650.936,453.394Z" transform="translate(-320 -319)"/>
  <path id="Forma_1_copy_8" data-name="Forma 1 copy 8" class="cls-2" d="M679.287,437.992a3.923,3.923,0,0,0-3.446-3.941,3.854,3.854,0,0,0-3.605-2.587,3.745,3.745,0,0,0-1.978.569A3.829,3.829,0,0,0,666.9,430a3.881,3.881,0,0,0-3.794,3.331,3.95,3.95,0,0,0-.476-0.033,3.907,3.907,0,0,0-3.848,3.963c0,0.107.008,0.212,0.016,0.317a4.025,4.025,0,0,0-.361,6.431c0,0.072-.011.143-0.011,0.215a3.907,3.907,0,0,0,3.848,3.963,3.738,3.738,0,0,0,1.765-.444c0.733,0.542,1.783,1.22,2.291,1.085,0,0,.189,3.016.148,3.782a27.35,27.35,0,0,1-.8,4.392H670.3a34.837,34.837,0,0,1-.712-3.9,18.183,18.183,0,0,1,.3-2.776l1.605-1.71a3.746,3.746,0,0,0,2.169.682,3.9,3.9,0,0,0,3.826-3.553A3.96,3.96,0,0,0,680,442.024,4.029,4.029,0,0,1,679.287,437.992Zm-14.361,9.1a3.974,3.974,0,0,0,.765-1.051l0.755,1.63S666.035,447.854,664.926,447.088Zm2.825,1.006c-0.391.073-1.057-1.166-1.529-2.174a3.668,3.668,0,0,0,2.22.4C668.321,447.126,668.106,448.027,667.751,448.094Zm1.661,0.793c-0.9.259-.363-1.67-0.1-2.786a3.725,3.725,0,0,0,.541-0.257,4,4,0,0,0,.956,2.129A3.989,3.989,0,0,1,669.412,448.887Z" transform="translate(-320 -319)"/>
  <path id="Forma_1-2" data-name="Forma 1" class="cls-3" d="M614,393.288A6.694,6.694,0,0,1,607.325,400H586.673a6.715,6.715,0,0,1-1.048-13.34,4.227,4.227,0,0,1,6.9-3.969c1.313-2.975,3-5.691,7.719-5.691,5.727,0,8.442,4.442,8.442,9.129,0,0.2-.008.391-0.021,0.583A6.705,6.705,0,0,1,614,393.288Z" transform="translate(-320 -319)"/>
  <path id="Forma_1_copy_4" data-name="Forma 1 copy 4" class="cls-3" d="M434,385.039A4.935,4.935,0,0,1,429.092,390H413.907a4.965,4.965,0,0,1-.771-9.86,3.144,3.144,0,0,1,3.064-3.68,3.073,3.073,0,0,1,2.009.746c0.966-2.2,2.2-4.206,5.676-4.206,4.212,0,6.208,3.283,6.208,6.748,0,0.145-.006.288-0.016,0.43A4.95,4.95,0,0,1,434,385.039Z" transform="translate(-320 -319)"/>
  <path id="Forma_1_copy_10" data-name="Forma 1 copy 10" class="cls-3" d="M526,407.705a7.184,7.184,0,0,1-7.067,7.3H497.066a7.316,7.316,0,0,1-1.11-14.5,4.745,4.745,0,0,1-.067-0.789,4.552,4.552,0,0,1,4.479-4.622,4.365,4.365,0,0,1,2.893,1.1c1.391-3.234,3.173-6.186,8.174-6.186,6.064,0,8.938,4.828,8.938,9.923,0,0.213-.008.424-0.022,0.633A7.245,7.245,0,0,1,526,407.705Z" transform="translate(-320 -319)"/>
  <path id="Forma_1_copy_5" data-name="Forma 1 copy 5" class="cls-3" d="M557,362.79a3.176,3.176,0,0,1-3.141,3.21H544.14a3.216,3.216,0,0,1-.493-6.38,2.083,2.083,0,0,1-.03-0.347,2.013,2.013,0,0,1,1.991-2.034,1.951,1.951,0,0,1,1.286.483c0.618-1.423,1.41-2.722,3.633-2.722,2.695,0,3.972,2.124,3.972,4.366,0,0.094,0,.187-0.01.279A3.194,3.194,0,0,1,557,362.79Z" transform="translate(-320 -319)"/>
  <path id="Forma_1_copy_9" data-name="Forma 1 copy 9" class="cls-3" d="M452,405.79a3.176,3.176,0,0,1-3.141,3.21H439.14a3.216,3.216,0,0,1-.493-6.38,2.083,2.083,0,0,1-.03-0.347,2.013,2.013,0,0,1,1.991-2.034,1.951,1.951,0,0,1,1.286.483c0.618-1.423,1.41-2.722,3.633-2.722,2.695,0,3.972,2.124,3.972,4.366,0,0.094,0,.187-0.01.279A3.194,3.194,0,0,1,452,405.79Z" transform="translate(-320 -319)"/>
  <path class="cls-4" d="M323,459v-2h76v2H323Z" transform="translate(-320 -319)"/>
  <path id="Shape_1_copy_3" data-name="Shape 1 copy 3" class="cls-4" d="M401,459v-2h76v2H401Z" transform="translate(-320 -319)"/>
  <path id="Shape_1_copy_4" data-name="Shape 1 copy 4" class="cls-4" d="M477,459v-2h76v2H477Z" transform="translate(-320 -319)"/>
  <path id="Shape_1_copy_5" data-name="Shape 1 copy 5" class="cls-5" d="M554,459v-2h73v2H554Z" transform="translate(-320 -319)"/>
  <circle id="Ellipse_4_copy_5" data-name="Ellipse 4 copy 5" class="cls-6" cx="308.5" cy="138.5" r="2.5"/>
  <path id="Shape_1_copy_6" data-name="Shape 1 copy 6" class="cls-5" d="M625,459v-2h76v2H625Z" transform="translate(-320 -319)"/>
  <circle id="Ellipse_4_copy_6" data-name="Ellipse 4 copy 6" class="cls-6" cx="382.5" cy="138.5" r="2.5"/>
  <circle id="Ellipse_4_copy_3" data-name="Ellipse 4 copy 3" class="cls-7" cx="382.5" cy="138.5" r="2.5"/>
  <circle class="cls-8" cx="2.5" cy="138.5" r="2.5"/>
  <circle id="Ellipse_4_copy" data-name="Ellipse 4 copy" class="cls-8" cx="79.5" cy="138.5" r="2.5"/>
  <circle id="Ellipse_4_copy_2" data-name="Ellipse 4 copy 2" class="cls-8" cx="158.5" cy="138.5" r="2.5"/>
  <circle class="cls-9" cx="190.5" cy="20.5" r="20.5"/>
  <path id="Forma_1-3" data-name="Forma 1" class="cls-3" d="M519.36,332.692l-0.53-.454a2.143,2.143,0,0,0-2.979.189l-8.866,9.8-2.677-2.3a2.141,2.141,0,0,0-2.978.185l-0.469.517a2.124,2.124,0,0,0,.154,3.007l4.906,4.476a2.141,2.141,0,0,0,3.081-.163L519.586,335.7A2.125,2.125,0,0,0,519.36,332.692Z" transform="translate(-320 -319)"/>
  <circle class="cls-10" cx="150.5" cy="53.5" r="2.5"/>
  <circle id="Ellipse_6_copy_6" data-name="Ellipse 6 copy 6" class="cls-10" cx="274.5" cy="35.5" r="2.5"/>
  <circle id="Ellipse_6_copy_7" data-name="Ellipse 6 copy 7" class="cls-10" cx="333.5" cy="98.5" r="2.5"/>
  <circle id="Ellipse_6_copy_8" data-name="Ellipse 6 copy 8" class="cls-10" cx="96.5" cy="98.5" r="2.5"/>
  <circle id="Ellipse_6_copy" data-name="Ellipse 6 copy" class="cls-11" cx="68.5" cy="63.5" r="2.5"/>
  <circle id="Ellipse_6_copy_2" data-name="Ellipse 6 copy 2" class="cls-11" cx="124.5" cy="35.5" r="2.5"/>
  <circle id="Ellipse_6_copy_9" data-name="Ellipse 6 copy 9" class="cls-11" cx="206.5" cy="62.5" r="2.5"/>
  <circle id="Ellipse_6_copy_3" data-name="Ellipse 6 copy 3" class="cls-11" cx="313.5" cy="69.5" r="2.5"/>
  <circle id="Ellipse_6_copy_4" data-name="Ellipse 6 copy 4" class="cls-11" cx="285.5" cy="96.5" r="2.5"/>
  <circle id="Ellipse_6_copy_5" data-name="Ellipse 6 copy 5" class="cls-11" cx="248.5" cy="59.5" r="2.5"/>
  <path class="cls-4" d="M329,456h1v3h-1v-3Z" transform="translate(-320 -319)"/>
  <path id="Shape_2_copy" data-name="Shape 2 copy" class="cls-4" d="M335,456h1v3h-1v-3Z" transform="translate(-320 -319)"/>
  <path id="Shape_2_copy_2" data-name="Shape 2 copy 2" class="cls-4" d="M341,456h1v3h-1v-3Z" transform="translate(-320 -319)"/>
  <path id="Shape_2_copy_3" data-name="Shape 2 copy 3" class="cls-4" d="M347,456h1v3h-1v-3Z" transform="translate(-320 -319)"/>
  <path id="Shape_2_copy_4" data-name="Shape 2 copy 4" class="cls-4" d="M353,456h1v3h-1v-3Z" transform="translate(-320 -319)"/>
  <path id="Shape_2_copy_5" data-name="Shape 2 copy 5" class="cls-4" d="M359,456h1v3h-1v-3Z" transform="translate(-320 -319)"/>
  <path id="Shape_2_copy_6" data-name="Shape 2 copy 6" class="cls-4" d="M365,456h1v3h-1v-3Z" transform="translate(-320 -319)"/>
  <path id="Shape_2_copy_7" data-name="Shape 2 copy 7" class="cls-4" d="M371,456h1v3h-1v-3Z" transform="translate(-320 -319)"/>
  <path id="Shape_2_copy_8" data-name="Shape 2 copy 8" class="cls-4" d="M377,456h1v3h-1v-3Z" transform="translate(-320 -319)"/>
  <path id="Shape_2_copy_9" data-name="Shape 2 copy 9" class="cls-4" d="M383,456h1v3h-1v-3Z" transform="translate(-320 -319)"/>
  <path id="Shape_2_copy_10" data-name="Shape 2 copy 10" class="cls-4" d="M389,456h1v3h-1v-3Z" transform="translate(-320 -319)"/>
  <path id="Shape_2_copy_11" data-name="Shape 2 copy 11" class="cls-4" d="M395,456h1v3h-1v-3Z" transform="translate(-320 -319)"/>
  <path id="Shape_2_copy_12" data-name="Shape 2 copy 12" class="cls-4" d="M401,456h1v3h-1v-3Z" transform="translate(-320 -319)"/>
  <path id="Shape_2_copy_12-2" data-name="Shape 2 copy 12" class="cls-4" d="M406,456h1v3h-1v-3Z" transform="translate(-320 -319)"/>
  <path id="Shape_2_copy_12-3" data-name="Shape 2 copy 12" class="cls-4" d="M412,456h1v3h-1v-3Z" transform="translate(-320 -319)"/>
  <path id="Shape_2_copy_13" data-name="Shape 2 copy 13" class="cls-4" d="M418,456h1v3h-1v-3Z" transform="translate(-320 -319)"/>
  <path id="Shape_2_copy_15" data-name="Shape 2 copy 15" class="cls-4" d="M454,456h1v3h-1v-3Z" transform="translate(-320 -319)"/>
  <path id="Shape_2_copy_15-2" data-name="Shape 2 copy 15" class="cls-4" d="M460,456h1v3h-1v-3Z" transform="translate(-320 -319)"/>
  <path id="Shape_2_copy_15-3" data-name="Shape 2 copy 15" class="cls-4" d="M466,456h1v3h-1v-3Z" transform="translate(-320 -319)"/>
  <path id="Shape_2_copy_15-4" data-name="Shape 2 copy 15" class="cls-4" d="M472,456h1v3h-1v-3Z" transform="translate(-320 -319)"/>
  <path id="Shape_2_copy_15-5" data-name="Shape 2 copy 15" class="cls-4" d="M492,456h1v3h-1v-3Z" transform="translate(-320 -319)"/>
  <path id="Shape_2_copy_18" data-name="Shape 2 copy 18" class="cls-4" d="M486,456h1v3h-1v-3Z" transform="translate(-320 -319)"/>
  <path id="Shape_2_copy_17" data-name="Shape 2 copy 17" class="cls-4" d="M424,456h1v3h-1v-3Z" transform="translate(-320 -319)"/>
  <path id="Shape_2_copy_17-2" data-name="Shape 2 copy 17" class="cls-4" d="M430,456h1v3h-1v-3Z" transform="translate(-320 -319)"/>
  <path id="Shape_2_copy_17-3" data-name="Shape 2 copy 17" class="cls-4" d="M436,456h1v3h-1v-3Z" transform="translate(-320 -319)"/>
  <path id="Shape_2_copy_17-4" data-name="Shape 2 copy 17" class="cls-4" d="M442,456h1v3h-1v-3Z" transform="translate(-320 -319)"/>
  <path id="Shape_2_copy_17-5" data-name="Shape 2 copy 17" class="cls-4" d="M448,456h1v3h-1v-3Z" transform="translate(-320 -319)"/>
  <path id="Shape_2_copy_15-6" data-name="Shape 2 copy 15" class="cls-4" d="M498,456h1v3h-1v-3Z" transform="translate(-320 -319)"/>
  <path id="Shape_2_copy_15-7" data-name="Shape 2 copy 15" class="cls-4" d="M504,456h1v3h-1v-3Z" transform="translate(-320 -319)"/>
  <path id="Shape_2_copy_15-8" data-name="Shape 2 copy 15" class="cls-4" d="M510,456h1v3h-1v-3Z" transform="translate(-320 -319)"/>
  <path id="Shape_2_copy_15-9" data-name="Shape 2 copy 15" class="cls-4" d="M516,456h1v3h-1v-3Z" transform="translate(-320 -319)"/>
  <path id="Shape_2_copy_15-10" data-name="Shape 2 copy 15" class="cls-4" d="M522,456h1v3h-1v-3Z" transform="translate(-320 -319)"/>
  <path id="Shape_2_copy_15-11" data-name="Shape 2 copy 15" class="cls-4" d="M528,456h1v3h-1v-3Z" transform="translate(-320 -319)"/>
  <path id="Shape_2_copy_15-12" data-name="Shape 2 copy 15" class="cls-4" d="M534,456h1v3h-1v-3Z" transform="translate(-320 -319)"/>
  <path id="Shape_2_copy_15-13" data-name="Shape 2 copy 15" class="cls-4" d="M540,456h1v3h-1v-3Z" transform="translate(-320 -319)"/>
  <path id="Shape_2_copy_15-14" data-name="Shape 2 copy 15" class="cls-4" d="M546,456h1v3h-1v-3Z" transform="translate(-320 -319)"/>
  <path id="Shape_2_copy_15-15" data-name="Shape 2 copy 15" class="cls-12" d="M552,456h1v3h-1v-3Z" transform="translate(-320 -319)"/>
  <path id="Shape_2_copy_15-16" data-name="Shape 2 copy 15" class="cls-12" d="M564,456h1v3h-1v-3Z" transform="translate(-320 -319)"/>
  <path id="Shape_2_copy_15-17" data-name="Shape 2 copy 15" class="cls-12" d="M570,456h1v3h-1v-3Z" transform="translate(-320 -319)"/>
  <path id="Shape_2_copy_15-18" data-name="Shape 2 copy 15" class="cls-12" d="M558,456h1v3h-1v-3Z" transform="translate(-320 -319)"/>
  <path id="Shape_2_copy_16" data-name="Shape 2 copy 16" class="cls-12" d="M576,456h1v3h-1v-3Z" transform="translate(-320 -319)"/>
  <path id="Shape_2_copy_19" data-name="Shape 2 copy 19" class="cls-12" d="M582,456h1v3h-1v-3Z" transform="translate(-320 -319)"/>
  <path id="Shape_2_copy_16-2" data-name="Shape 2 copy 16" class="cls-12" d="M588,456h1v3h-1v-3Z" transform="translate(-320 -319)"/>
  <path id="Shape_2_copy_16-3" data-name="Shape 2 copy 16" class="cls-12" d="M594,456h1v3h-1v-3Z" transform="translate(-320 -319)"/>
  <path id="Shape_2_copy_16-4" data-name="Shape 2 copy 16" class="cls-12" d="M600,456h1v3h-1v-3Z" transform="translate(-320 -319)"/>
  <path id="Shape_2_copy_16-5" data-name="Shape 2 copy 16" class="cls-12" d="M606,456h1v3h-1v-3Z" transform="translate(-320 -319)"/>
  <path id="Shape_2_copy_16-6" data-name="Shape 2 copy 16" class="cls-12" d="M612,456h1v3h-1v-3Z" transform="translate(-320 -319)"/>
  <path id="Shape_2_copy_16-7" data-name="Shape 2 copy 16" class="cls-12" d="M618,456h1v3h-1v-3Z" transform="translate(-320 -319)"/>
  <path id="Shape_2_copy_16-8" data-name="Shape 2 copy 16" class="cls-12" d="M624,456h1v3h-1v-3Z" transform="translate(-320 -319)"/>
  <path id="Shape_2_copy_16-9" data-name="Shape 2 copy 16" class="cls-12" d="M630,456h1v3h-1v-3Z" transform="translate(-320 -319)"/>
  <path id="Shape_2_copy_16-10" data-name="Shape 2 copy 16" class="cls-12" d="M636,456h1v3h-1v-3Z" transform="translate(-320 -319)"/>
  <path id="Shape_2_copy_16-11" data-name="Shape 2 copy 16" class="cls-12" d="M642,456h1v3h-1v-3Z" transform="translate(-320 -319)"/>
  <path id="Shape_2_copy_16-12" data-name="Shape 2 copy 16" class="cls-12" d="M648,456h1v3h-1v-3Z" transform="translate(-320 -319)"/>
  <path id="Shape_2_copy_16-13" data-name="Shape 2 copy 16" class="cls-12" d="M654,456h1v3h-1v-3Z" transform="translate(-320 -319)"/>
  <path id="Shape_2_copy_16-14" data-name="Shape 2 copy 16" class="cls-12" d="M660,456h1v3h-1v-3Z" transform="translate(-320 -319)"/>
  <path id="Shape_2_copy_16-15" data-name="Shape 2 copy 16" class="cls-12" d="M666,456h1v3h-1v-3Z" transform="translate(-320 -319)"/>
  <path id="Shape_2_copy_16-16" data-name="Shape 2 copy 16" class="cls-12" d="M672,456h1v3h-1v-3Z" transform="translate(-320 -319)"/>
  <path id="Shape_2_copy_16-17" data-name="Shape 2 copy 16" class="cls-12" d="M678,456h1v3h-1v-3Z" transform="translate(-320 -319)"/>
  <path id="Shape_2_copy_16-18" data-name="Shape 2 copy 16" class="cls-12" d="M690,456h1v3h-1v-3Z" transform="translate(-320 -319)"/>
  <path id="Shape_2_copy_16-19" data-name="Shape 2 copy 16" class="cls-12" d="M696,456h1v3h-1v-3Z" transform="translate(-320 -319)"/>
  <path id="Shape_2_copy_16-20" data-name="Shape 2 copy 16" class="cls-12" d="M684,456h1v3h-1v-3Z" transform="translate(-320 -319)"/>
  <circle id="Ellipse_4_copy_4" data-name="Ellipse 4 copy 4" class="cls-8" cx="234.5" cy="138.5" r="2.5"/>
</svg>
