<svg xmlns="http://www.w3.org/2000/svg" width="31" height="14" viewBox="0 0 31 14">
  <defs>
    <style>
      .cls-1 {
        fill: #f2f2f2;
        fill-rule: evenodd;
      }
    </style>
  </defs>
  <path id="Forma_1" data-name="Forma 1" class="cls-1" d="M491.852,730.425c-0.569-.2-4.527-1.095-4.527-1.095s-7.338-4.33-8.219-4.33l-6.921,0c-1.476,0-2.709,1.167-4.137,2.518a27.436,27.436,0,0,1-2.236,1.96l-3.052.421a1.131,1.131,0,0,0-.76,1.081v3.628a1.114,1.114,0,0,0,1.093,1.134h2.1A3.493,3.493,0,0,0,468.612,739,3.244,3.244,0,0,0,472,736h10a3.322,3.322,0,0,0,3.472,3,3.493,3.493,0,0,0,3.422-3.255h1.723c1.365,0,2.032-.612,2.2-1.186C493.24,733.105,492.936,730.8,491.852,730.425Zm-23.24,6.856a1.848,1.848,0,1,1,1.781-1.847A1.816,1.816,0,0,1,468.612,737.281ZM475,730h-6c0.432-.354,1.082-1.4,1.449-1.748C471.416,727.337,473,726,474,726h1v4Zm2-4h2c0.823,0,3.747,3.227,5,4h-7v-4h0Zm8.471,11.281a1.848,1.848,0,1,1,1.781-1.847A1.816,1.816,0,0,1,485.471,737.281Z" transform="translate(-462 -725)"/>
</svg>
