<svg xmlns="http://www.w3.org/2000/svg" width="23" height="41" viewBox="0 0 23 41">
  <defs>
    <style>
      .cls-1 {
        fill: #6d0313;
        fill-rule: evenodd;
      }
    </style>
  </defs>
  <path id="Forma_1" data-name="Forma 1" class="cls-1" d="M679.134,698.008L673.616,698c-6.2,0-10.2,3.962-10.2,10.093v4.654h-5.547a0.853,0.853,0,0,0-.868.837v6.742a0.853,0.853,0,0,0,.868.836h5.547v17.014a0.852,0.852,0,0,0,.867.836h7.237a0.853,0.853,0,0,0,.868-0.836V721.161h6.486a0.852,0.852,0,0,0,.867-0.836l0-6.742a0.825,0.825,0,0,0-.254-0.592,0.886,0.886,0,0,0-.614-0.245h-6.488V708.8c0-1.9.469-2.859,3.031-2.859h3.717a0.852,0.852,0,0,0,.867-0.836v-6.261A0.853,0.853,0,0,0,679.134,698.008Z" transform="translate(-657 -698)"/>
</svg>
