<svg id="Layer_1" data-name="Layer 1" width="35px" height="80px" xmlns="http://www.w3.org/2000/svg" viewBox="0 0 114.27 256.48"><defs><style>.cls-1{fill:#986a4c;}.cls-2{fill:#41201f;}.cls-3{fill:#c69d9e;}.cls-4{fill:#812529;}.cls-5{fill:#cda8a9;}</style></defs><title>kj</title><path class="cls-1" d="M136.84,147.45h-1.18v2.94a1.9,1.9,0,0,1-1.91,1.88H132c-10.6,0-13.84,3.34-13.84,14.29V242.9c0,22.31-14.55,37.29-36.2,37.29a32,32,0,0,1-15.12-3.44c4.59,3.47,10.72,5.47,18.21,5.47,21.65,0,36.2-15,36.2-37.29V168.59c0-11,3.24-14.29,13.84-14.29h1.76a1.9,1.9,0,0,0,1.91-1.88v-3.09a1.9,1.9,0,0,0-1.91-1.87" transform="translate(-41.06 -25.74)"/><path class="cls-1" d="M73.08,266.68c7.69,0,11.71-6,11.71-12a12.39,12.39,0,0,0-6.42-11.09,13,13,0,0,1,3,8.41c0,6-4,12-11.71,12a11.06,11.06,0,0,1-2.71-.44c1,2.54,5.39,3.12,6.12,3.12" transform="translate(-41.06 -25.74)"/><path class="cls-2" d="M131.6,143.36H71.91a1.89,1.89,0,0,0-1.9,1.87v3.09a1.89,1.89,0,0,0,1.9,1.88h1.73c11,.15,14,3.22,14,14.29v89.58c0,7.22-1.67,15.84-9.64,15.84-6,0-12.28-3-14.26-8.22a11,11,0,0,0,2.71.44c7.69,0,11.71-6,11.71-12,0-6.23-4.27-12.53-12.41-12.53-6,0-13.11,4.13-13.11,15.8,0,15.25,10.39,24.74,27.12,24.74,21.65,0,36.2-15,36.2-37.29V164.5c0-11,3.23-14.29,13.84-14.29h1.76a1.9,1.9,0,0,0,1.91-1.88v-3.09a1.9,1.9,0,0,0-1.91-1.87" transform="translate(-41.06 -25.74)"/><path class="cls-3" d="M56.57,255.13c0-11.05,6.82-13,9-13.07a12.67,12.67,0,0,1,8.48,2c-1.4-2.53-3.76-3.39-6.12-3.75-6-.92-12.83,1.87-13.11,13.53a20.63,20.63,0,0,0,13.45,20c-6.41-4.22-11.71-10.7-11.71-18.77" transform="translate(-41.06 -25.74)"/><path class="cls-3" d="M73.11,148.69h.45a1.16,1.16,0,0,1-.11-.44v-.59c0-.79.31-1.43,1.79-1.43h55.42a1.6,1.6,0,0,0-1.92-1.32h-55a1.81,1.81,0,0,0-1.83,1.76v.6c0,.79.19,1.42,1.18,1.42" transform="translate(-41.06 -25.74)"/><path class="cls-3" d="M80.43,273.33c8.54,0,12-5.45,11.93-20.08v-88c0-6.6-2.19-13.57-8-16,4.09,3.13,5.69,9.05,5.69,14.71v91.9c.16,16.5-9.67,17.51-9.67,17.51" transform="translate(-41.06 -25.74)"/><path class="cls-4" d="M148.62,126l-2.63-.12a20.18,20.18,0,0,1-5.47-1.12c-4.33-2-7.74-3.63-12.41-11.31l-31-51.55L114.4,41.06c5.52-6.58,10.85-9.54,17.84-9.87a1.52,1.52,0,0,0,1-.43l.14-.14a1.45,1.45,0,0,0,.45-1.06V27.23a1.49,1.49,0,0,0-1.49-1.49H93.94a1.5,1.5,0,0,0-1.49,1.49v2.46a1.5,1.5,0,0,0,1.49,1.5c8.08,0,11.53,1.77,11.53,5.9,0,3.18-2,7.09-6,11.63L76.39,76.15V41.21c0-8.21,0-9.92,8.24-10h1.09a1.49,1.49,0,0,0,1.49-1.5V27.23a1.49,1.49,0,0,0-1.49-1.49H42.55a1.49,1.49,0,0,0-1.49,1.49v2.46a1.49,1.49,0,0,0,1.49,1.5h1.22c8.63,0,11.13,2.55,11.13,11.37v72c0,8.73-2.6,11.38-11.13,11.38H42.55a1.5,1.5,0,0,0-1.49,1.49v2.46a1.5,1.5,0,0,0,1.49,1.5h45.9a1.49,1.49,0,0,0,1.49-1.5v-2.46A1.5,1.5,0,0,0,88.45,126h-1.1c-4.4,0-7.41-.12-8.87-1.67s-2.1-5-2.1-9.71V86.39l5.44-6.48L102.53,114c2.32,3.76,2.67,6.53,2.67,7.85s0,4.12-7.28,4.12a1.5,1.5,0,0,0-1.49,1.49v2.46a1.5,1.5,0,0,0,1.49,1.5h50.71a1.49,1.49,0,0,0,1.49-1.5v-2.46a1.49,1.49,0,0,0-1.49-1.49" transform="translate(-41.06 -25.74)"/><path class="cls-1" d="M153.84,130.47h-1.57v1.9a1.49,1.49,0,0,1-1.49,1.49H101.64v.57a1.5,1.5,0,0,0,1.49,1.49h50.71a1.49,1.49,0,0,0,1.49-1.49V132a1.49,1.49,0,0,0-1.49-1.49" transform="translate(-41.06 -25.74)"/><path class="cls-1" d="M93.67,130.06H92.11V132a1.5,1.5,0,0,1-1.49,1.49H46.28V134a1.5,1.5,0,0,0,1.5,1.5h45.9a1.5,1.5,0,0,0,1.49-1.5v-2.46a1.5,1.5,0,0,0-1.49-1.49" transform="translate(-41.06 -25.74)"/><path class="cls-1" d="M136.75,31.21a1.45,1.45,0,0,1-.45,1.06l-.14.14a1.52,1.52,0,0,1-1,.43c-7,.34-12.32,3.29-17.84,9.87L101.12,62,132,113.83c3.17,5.23,6,8.09,9.6,8.09-2.26-1.84-3.46-3.63-5.65-7.23L105,63.14l15.4-18.37c5.52-6.58,10.85-9.53,17.84-9.87a1.52,1.52,0,0,0,1-.43l.13-.14a1.44,1.44,0,0,0,.45-1.06V30.94a1.49,1.49,0,0,0-1.49-1.49h-1.57Z" transform="translate(-41.06 -25.74)"/><path class="cls-1" d="M84.28,87.92l-2-3.31-3.72,3.81v23.71c0,4.68.75,8.13,2.1,9.71a5,5,0,0,0,2.56,1.22c-1-1.8-1.6-4.83-1.6-8.87V90.48Z" transform="translate(-41.06 -25.74)"/><path class="cls-1" d="M89.37,31.72a1.49,1.49,0,0,1-1.49,1.5H86.78c-8.27.11-8.26,1.82-8.24,10V69.16l3.05-3.63V45.3c0-8.21,0-9.92,8.24-10h.38a1.49,1.49,0,0,0,1.49-1.5V31.32a1.49,1.49,0,0,0-1.49-1.49h-.85Z" transform="translate(-41.06 -25.74)"/><path class="cls-5" d="M108.09,37.43c.1,3.18-2,7.09-6,11.64L76.46,79.3v2L103.8,49.12c4-4.54,6-8.45,6-11.63,0,0,.19-7.26-8.65-7.64,3,.6,6.82,2.81,7,7.57" transform="translate(-41.06 -25.74)"/><path class="cls-5" d="M106.82,114.41,84.44,77.59l-.94,1.12,21.66,35.64c5.81,9.78.81,12.75-1.54,13.69,3.68,0,9.22-4.59,3.2-13.64" transform="translate(-41.06 -25.74)"/><path class="cls-5" d="M48.86,128.05c10.83,0,10.95-4.35,10.95-22.29V45.11c0-6.6-1.26-13.78-9.48-15.25,7.1,2.73,7.22,8.28,7.22,13.93v64.55c.25,16.33-1.79,18-8.68,19.71" transform="translate(-41.06 -25.74)"/></svg>