<svg xmlns="http://www.w3.org/2000/svg" width="45.563" height="37.312" viewBox="0 0 45.563 37.312">
  <defs>
    <style>
      .cls-1 {
        fill: #6d0313;
        fill-rule: evenodd;
      }
    </style>
  </defs>
  <path id="Forma_1" data-name="Forma 1" class="cls-1" d="M602.1,704.109a18.587,18.587,0,0,1-5.37,1.483,9.438,9.438,0,0,0,4.112-5.21,18.618,18.618,0,0,1-5.938,2.285,9.341,9.341,0,0,0-16.174,6.442,9.481,9.481,0,0,0,.242,2.146,26.48,26.48,0,0,1-19.271-9.838,9.47,9.47,0,0,0,2.893,12.571,9.255,9.255,0,0,1-4.235-1.178c0,0.04,0,.079,0,0.119a9.406,9.406,0,0,0,7.5,9.233,9.307,9.307,0,0,1-4.222.161,9.369,9.369,0,0,0,8.734,6.539,18.764,18.764,0,0,1-13.842,3.9,26.331,26.331,0,0,0,14.332,4.23c17.2,0,26.6-14.347,26.6-26.79q0-.612-0.027-1.218A19.055,19.055,0,0,0,602.1,704.109Z" transform="translate(-556.531 -699.688)"/>
</svg>
