<svg xmlns="http://www.w3.org/2000/svg" width="68.375" height="38.938" viewBox="0 0 68.375 38.938">
  <defs>
    <style>
      .cls-1 {
        fill: #812529;
        fill-rule: evenodd;
      }
    </style>
  </defs>
  <path class="cls-1" d="M745.08,340.16h4.088a3.44,3.44,0,0,0,1.863-.814,2.994,2.994,0,0,0,.563-1.793s-0.082-5.476,2.466-6.281c2.511-.8,5.729,5.29,9.148,7.63a6.472,6.472,0,0,0,4.547,1.384l9.13-.126s4.777-.294,2.511-4.045c-0.186-.308-1.319-2.775-6.791-7.843-5.725-5.3-4.959-4.449,1.94-13.626,4.2-5.589,5.88-9,5.358-10.462-0.5-1.394-3.589-1.023-3.589-1.023l-10.287.063a2.35,2.35,0,0,0-1.328.231,2.841,2.841,0,0,0-.906,1.1,59.2,59.2,0,0,1-3.8,8c-4.578,7.767-6.409,8.173-7.158,7.694-1.74-1.127-1.305-4.516-1.305-6.923,0-7.522,1.143-10.658-2.226-11.468a17.461,17.461,0,0,0-4.8-.475c-3.671-.04-6.776.009-8.535,0.869-1.17.57-2.072,1.847-1.524,1.918a4.628,4.628,0,0,1,3.038,1.526c1.052,1.43,1.016,4.642,1.016,4.642s0.607,8.857-1.415,9.956c-1.387.757-3.287-.788-7.371-7.829a65.569,65.569,0,0,1-3.668-7.593,3.051,3.051,0,0,0-.847-1.141,4.276,4.276,0,0,0-1.583-.637l-9.769.063a3.334,3.334,0,0,0-2.008.679,2.132,2.132,0,0,0-.036,1.737s7.648,17.866,16.31,26.868c7.943,8.257,16.965,7.715,16.965,7.715h0Zm0,0" transform="translate(-711.625 -301.375)"/>
</svg>
