<svg xmlns="http://www.w3.org/2000/svg" width="300" height="57"><path fill="#86613d" d="M4.487 7.39h-2.29L1.75 9.091H-.025L2.574.775H4.11l2.617 8.317H4.933zm-1.925-1.4h1.554L3.34 3.025zm9.607 1.4H9.88l-.446 1.702H7.657L10.256.775h1.536l2.616 8.317h-1.793zm-1.925-1.4h1.554l-.777-2.965zm9.927-3.816h-2.057v6.918H16.43V2.174h-2.022v-1.4h5.764zm5.091-1.068l-.222 2.359h-.937V.318h1.16zm1.868 0l-.228 2.359h-.931V.318h1.16zm7.337 7.986h-1.68V2.174H30.32v6.918h-1.68V.775h5.827zm3.415 0h-1.68V.775h1.68zm1.725 0V.775h2.57c.869 0 1.529.193 1.98.58.451.386.677.953.677 1.699 0 .422-.094.786-.28 1.09a1.653 1.653 0 0 1-.766.67c.374.106.661.32.863.642.202.322.303.719.303 1.19 0 .808-.222 1.417-.666 1.829-.443.411-1.086.617-1.927.617zm1.68-3.616v2.222h1.074c.3 0 .529-.093.685-.28.156-.187.234-.451.234-.794 0-.746-.27-1.13-.811-1.148zm0-1.223h.874c.658 0 .988-.34.988-1.022 0-.377-.076-.647-.229-.811-.152-.164-.4-.246-.742-.246h-.892zm9.069 3.136h-2.291l-.445 1.703h-1.777l2.6-8.317h1.536l2.616 8.317H50.8zm-1.925-1.4h1.553l-.776-2.964zm5.36 3.103V.775h2.571c.868 0 1.528.193 1.98.58.45.386.676.953.676 1.699 0 .422-.093.786-.28 1.09a1.651 1.651 0 0 1-.765.67c.373.106.66.32.862.642.202.322.303.719.303 1.19 0 .808-.222 1.417-.665 1.829-.444.411-1.087.617-1.928.617zm1.68-3.616v2.222h1.074c.3 0 .53-.093.685-.28.156-.187.235-.451.235-.794 0-.746-.27-1.13-.811-1.148zm0-1.223h.874c.659 0 .988-.34.988-1.022 0-.377-.076-.647-.228-.811-.153-.164-.4-.246-.743-.246h-.89zm9.07 3.136H62.25l-.446 1.703h-1.777l2.6-8.317h1.536l2.616 8.317h-1.794zm-1.926-1.4h1.554l-.777-2.964zm7.04.178v2.925h-1.679V.775h2.833c.823 0 1.479.255 1.968.765.49.51.734 1.173.734 1.988s-.242 1.459-.725 1.93c-.484.473-1.154.709-2.01.709zm0-1.4h1.154c.32 0 .568-.104.743-.314.175-.21.263-.514.263-.914 0-.415-.09-.745-.269-.99a.86.86 0 0 0-.72-.375h-1.17zm11.06 4.325H79.04v-3.56h-2.48v3.56h-1.679V.775h1.68v3.364h2.479V.775h1.673zm5.728-1.703h-2.29l-.446 1.703H81.93l2.6-8.317h1.536l2.616 8.317h-1.794zm-1.925-1.4h1.554l-.777-2.964zm8.874 3.103V6.098h-.88l-1.227 2.994h-1.81l1.473-3.599c-.686-.476-1.029-1.192-1.029-2.148 0-.822.232-1.456.695-1.902.462-.446 1.118-.668 1.967-.668h2.496v8.317zm-.833-6.918c-.636 0-.954.434-.954 1.302 0 .461.081.795.245 1.003.164.208.419.311.766.311h.776V2.174zm9.535 3.524h-.73v3.394h-1.68V.775h1.68v3.324h.565l1.445-3.324h2.045l-2.034 3.872 2.262 4.445h-1.999zm8.919 1.691h-2.29l-.446 1.703h-1.776L109.1.775h1.536l2.616 8.317h-1.793zm-1.925-1.4h1.554l-.777-2.964zm7.555-5.214l1.57 6.015L119.78.775h2.193v8.317h-1.685V6.84l.154-3.467-1.662 5.718h-1.143l-1.662-5.718.154 3.467v2.25h-1.679V.776zM129.5 9.092h-1.68V2.174h-2.467v6.918h-1.68V.775h5.827zm5.734-1.703h-2.29l-.446 1.703h-1.777l2.6-8.317h1.536l2.616 8.317h-1.793zm-1.925-1.4h1.554l-.777-2.964zm11.193 3.103h-1.674v-3.56h-2.479v3.56h-1.679V.775h1.68v3.364h2.478V.775h1.674zm3.41 0h-1.68V.775h1.68zm5.03 0V6.098h-.88l-1.227 2.994h-1.811l1.474-3.599c-.686-.476-1.029-1.192-1.029-2.148 0-.822.232-1.456.694-1.902.463-.446 1.119-.668 1.968-.668h2.496v8.317zm-.834-6.918c-.636 0-.954.434-.954 1.302 0 .461.082.795.246 1.003.164.208.42.311.765.311h.777V2.174zm11.084 5.215h-2.29l-.446 1.703h-1.776l2.6-8.317h1.536l2.616 8.317h-1.793zm-1.925-1.4h1.554l-.777-2.964zM172.644.776v8.317h-1.685V2.174h-1.543l-.114 2.948c-.045.97-.155 1.74-.328 2.31-.173.57-.427.988-.76 1.254-.333.267-.782.402-1.345.406h-.411V7.698l.194-.017c.35-.042.602-.272.757-.689.154-.417.25-1.154.288-2.213l.109-4.004zm3.412 8.317h-1.679V.775h1.68zm1.726 0V.775h2.57c.869 0 1.529.193 1.98.58.451.386.677.953.677 1.699 0 .422-.094.786-.28 1.09a1.651 1.651 0 0 1-.766.67c.374.106.661.32.863.642.202.322.303.719.303 1.19 0 .808-.222 1.417-.666 1.829-.444.411-1.086.617-1.928.617zm1.68-3.616v2.222h1.073c.301 0 .53-.093.686-.28.156-.187.234-.451.234-.794 0-.746-.27-1.13-.811-1.148zm0-1.223h.874c.658 0 .988-.34.988-1.022 0-.377-.077-.647-.229-.811-.152-.164-.4-.246-.742-.246h-.892zm9.069 3.136h-2.291l-.446 1.703h-1.776l2.599-8.317h1.536l2.617 8.317h-1.794zm-1.926-1.4h1.554l-.776-2.964zm7.041.178v2.925h-1.68V.775h2.834c.823 0 1.478.255 1.968.765.489.51.734 1.173.734 1.988s-.242 1.459-.726 1.93c-.483.473-1.153.709-2.01.709zm0-1.4h1.154c.32 0 .567-.104.742-.314.175-.21.263-.514.263-.914 0-.415-.09-.745-.268-.99a.861.861 0 0 0-.72-.375h-1.17zm6.923-1.005h.994c.842 0 1.512.24 2.01.717.5.478.749 1.117.749 1.916 0 .796-.244 1.44-.731 1.934-.488.493-1.133.747-1.937.763h-2.77V.775h1.685zm5.867 5.33h-1.68V.775h1.68zm-5.867-3.936v2.542h1.017a.923.923 0 0 0 .774-.369c.188-.245.283-.56.283-.945 0-.362-.093-.656-.277-.883-.185-.226-.441-.341-.769-.345zm10.865 3.936V6.098h-.88l-1.228 2.994h-1.81l1.473-3.599c-.685-.476-1.028-1.192-1.028-2.148 0-.822.231-1.456.694-1.902.463-.446 1.119-.668 1.968-.668h2.496v8.317zm-.834-6.918c-.636 0-.954.434-.954 1.302 0 .461.082.795.246 1.003.163.208.419.311.765.311h.777V2.174zm5.202-1.068l-.223 2.359h-.936V.318h1.16zm1.868 0l-.228 2.359h-.931V.318h1.159zm6.943 3.364l1.12-3.695h1.804l-2.279 6.683c-.259.663-.538 1.118-.837 1.365a1.71 1.71 0 0 1-1.076.389h-.183l-.4-.023-.028-1.394c.037.015.161.023.37.023.214 0 .375-.048.483-.143.109-.095.203-.309.283-.64l.08-.303-2.376-5.957h1.8zm10.011 4.622h-1.673v-3.56h-2.48v3.56h-1.679V.775h1.68v3.364h2.479V.775h1.673zm7.527 0h-1.68V2.174h-2.468v6.918h-1.679V.775h5.827zm8.067 0h-1.622V2.74l-1.582.61V2.004l3.033-1.24h.171zm6.962-3.44c0 1.151-.209 2.03-.626 2.64-.417.61-1.012.914-1.785.914-.765 0-1.356-.296-1.774-.888-.417-.593-.633-1.44-.648-2.545V4.202c0-1.146.208-2.023.623-2.63.415-.608 1.01-.912 1.788-.912.776 0 1.372.301 1.787.903.416.602.627 1.46.635 2.576zm-1.623-1.684c0-.655-.065-1.146-.194-1.474-.13-.327-.331-.491-.605-.491-.515 0-.781.6-.8 1.8v2.073c0 .67.066 1.169.197 1.496.131.328.336.491.614.491.263 0 .458-.153.586-.46.127-.306.195-.775.202-1.407zm7.871 1.685c0 1.15-.208 2.03-.625 2.639-.417.61-1.012.914-1.785.914-.765 0-1.357-.296-1.774-.888-.417-.593-.633-1.44-.648-2.545V4.202c0-1.146.208-2.023.622-2.63.415-.608 1.012-.912 1.789-.912.776 0 1.372.301 1.788.903.414.602.626 1.46.633 2.576zm-1.622-1.685c0-.655-.065-1.146-.194-1.474-.13-.327-.331-.491-.605-.491-.514 0-.781.6-.8 1.8v2.073c0 .67.065 1.169.197 1.496.131.328.336.491.614.491.263 0 .458-.153.586-.46.127-.306.195-.775.202-1.407zm6.342 5.124h-1.622V2.74l-1.582.61V2.004l3.033-1.24h.171zm6.961 0h-4.9V7.949l2.25-2.862c.285-.396.496-.743.63-1.042.136-.3.204-.586.204-.86 0-.37-.064-.659-.192-.868a.61.61 0 0 0-.55-.314c-.264 0-.472.122-.626.365-.155.244-.232.587-.232 1.029h-1.622c0-.51.106-.977.317-1.4.211-.423.508-.751.891-.985a2.44 2.44 0 0 1 1.3-.352c.742 0 1.318.205 1.727.614.41.41.615.992.615 1.746 0 .468-.114.943-.34 1.425-.227.481-.637 1.075-1.231 1.779l-1.068 1.525h2.827zm5.93-6.107c0 .404-.086.762-.257 1.074a1.996 1.996 0 0 1-.709.748c.343.195.613.462.811.803.198.34.297.742.297 1.202 0 .74-.213 1.323-.64 1.751-.426.429-1.007.643-1.742.643-.735 0-1.32-.214-1.753-.643-.434-.428-.652-1.012-.652-1.75 0-.461.1-.863.297-1.206.199-.343.47-.61.817-.8a1.981 1.981 0 0 1-.714-.748 2.195 2.195 0 0 1-.257-1.074c0-.727.204-1.296.611-1.708.408-.41.954-.617 1.64-.617.693 0 1.241.208 1.645.623.404.415.605.983.605 1.702zm-2.24 4.878a.628.628 0 0 0 .563-.31c.131-.208.197-.497.197-.866 0-.37-.069-.659-.206-.869a.643.643 0 0 0-.565-.314c-.24 0-.43.105-.568.314-.14.21-.209.5-.209.869 0 .37.07.658.209.865a.66.66 0 0 0 .58.311zm.629-4.792c0-.324-.053-.583-.157-.777a.514.514 0 0 0-.483-.291.509.509 0 0 0-.468.282c-.107.19-.16.45-.16.786 0 .328.053.591.16.791.106.2.266.3.48.3.213 0 .37-.1.474-.3.102-.2.154-.463.154-.791zm3.29 1.93l.411-4.226h4.028v1.382h-2.702l-.149 1.782c.312-.21.634-.314.965-.314.686 0 1.214.244 1.586.731.371.488.557 1.177.557 2.068 0 .834-.221 1.506-.663 2.016-.442.51-1.032.766-1.77.766-.439 0-.844-.104-1.218-.311a2.292 2.292 0 0 1-.882-.866 2.49 2.49 0 0 1-.328-1.257h1.599c.026.347.112.615.257.806.145.19.331.285.56.285.266 0 .472-.128.617-.385.144-.257.217-.64.217-1.151 0-.48-.087-.842-.26-1.085a.843.843 0 0 0-.728-.366c-.305 0-.541.105-.709.314l-.103.143zm10.817 4.09h-4.9V7.95l2.25-2.862a6.27 6.27 0 0 0 .63-1.042c.136-.3.204-.586.204-.86 0-.37-.064-.659-.192-.868a.61.61 0 0 0-.55-.314c-.264 0-.472.122-.626.365-.154.244-.232.587-.232 1.029h-1.622c0-.51.106-.977.317-1.4a2.364 2.364 0 0 1 2.19-1.337c.743 0 1.32.205 1.728.614.41.41.615.992.615 1.746 0 .468-.114.943-.34 1.425-.227.481-.637 1.075-1.231 1.779l-1.068 1.525h2.827zm1.428-4.09l.411-4.226h4.028v1.382H296.7l-.149 1.782c.312-.21.634-.314.966-.314.685 0 1.213.244 1.585.731.371.488.557 1.177.557 2.068 0 .834-.221 1.506-.663 2.016-.442.51-1.032.766-1.77.766-.439 0-.844-.104-1.217-.311a2.292 2.292 0 0 1-.883-.866 2.487 2.487 0 0 1-.328-1.257h1.599c.027.347.112.615.257.806.145.19.331.285.56.285.266 0 .472-.128.617-.385.144-.257.217-.64.217-1.151 0-.48-.087-.842-.26-1.085a.843.843 0 0 0-.728-.366c-.305 0-.541.105-.709.314l-.102.143zM3.594 18.3H.905v34.463H.009V16.267h4.48v36.496h-.895zm2.934-2.033h2.24c1.569 0 2.24 2.19 2.24 6.205v10.844c0 4.014-.671 6.256-2.24 6.256H7.424v13.19h-.896zm.896 1.981v19.343h1.344c.941 0 1.344-1.564 1.344-4.275V22.472c0-2.712-.403-4.224-1.344-4.224zm8.781 27.685h-2.89l-.403 6.83h-.918l2.33-36.548h.896l2.33 36.548h-.919zm-2.755-1.981h2.644l-.65-10.584-.672-12.252-.672 12.252zm8.849-14.65v-7.873c0-2.398-.404-3.702-1.344-3.702-.942 0-1.345 1.304-1.345 3.702v5.265h-.896V21.43c0-3.702.672-5.683 2.24-5.683 1.569 0 2.241 1.981 2.241 5.683v7.873c0 2.658-.359 4.431-1.12 5.213.761.782 1.12 2.555 1.12 5.214v7.82c0 3.702-.672 5.735-2.24 5.735-1.569 0-2.24-2.033-2.24-5.735v-5.214h.895v5.214c0 2.399.403 3.754 1.345 3.754.94 0 1.344-1.355 1.344-3.754v-7.82c0-2.711-.404-4.223-1.344-4.223h-1.121v-1.981h1.12c.941 0 1.345-1.513 1.345-4.223zm6.54 16.631h-.895L25.972 22.42l.112 6.83v23.513h-.896V16.267h.896l1.636 16.788.672 10.115.672-10.115L30.7 16.267h.896v36.496H30.7V29.249l.112-6.83zm8.491-27.632h-2.8v15.224h2.352v1.98H34.53V50.73h2.8v2.034h-3.696V16.267h3.696zm1.702-2.034h2.24c1.57 0 2.241 2.19 2.241 6.205v10.844c0 4.014-.672 6.256-2.24 6.256h-1.344v13.19h-.897zm.897 1.981v19.343h1.344c.94 0 1.344-1.564 1.344-4.275V22.472c0-2.712-.403-4.224-1.344-4.224zm8.96 17.258h-2.688v17.257h-.896V16.267h.896v17.258h2.688V16.267h.897v36.496h-.897zm6.676 10.427h-2.89l-.403 6.83h-.92l2.331-36.548h.896l2.33 36.548h-.918zm-2.756-1.981h2.644l-.65-10.584-.672-12.252-.672 12.252zM62.173 18.3h-2.8v15.224h2.352v1.98h-2.352V50.73h2.8v2.034h-3.696V16.267h3.696zm4.838-2.034h.874l1.322 15.641.672 9.802.538-9.802 1.165-15.64h.873l-2.173 29.196c-.313 4.588-.65 7.299-2.195 7.299v-1.981c.94 0 1.12-2.034 1.345-5.318l.022-.47zm4.481-6.256c0 2.711-.515 4.17-1.68 4.17-1.187 0-1.68-1.459-1.68-4.17h.784c0 1.564.269 2.45.896 2.45s.896-.886.896-2.45zm4.055 19.238c.112 2.711.38 4.276 1.232 4.276h.224V16.267h.896v17.258h.224c.851 0 1.12-1.565 1.232-4.276l.27-6.36c.179-4.328.582-6.778 1.97-6.778v1.981c-.76 0-.94 1.773-1.075 4.797l-.268 6.36c-.113 2.66-.403 4.432-1.076 5.266.762.782 1.076 2.555 1.187 5.214l.27 6.413c.134 3.024.313 4.796 1.075 4.796v1.981c-1.39 0-1.793-2.45-1.972-6.777l-.268-6.413c-.113-2.711-.404-4.223-1.345-4.223h-.224v17.257h-.896V35.506h-.224c-.941 0-1.232 1.512-1.344 4.223l-.27 6.413c-.178 4.327-.582 6.777-1.97 6.777v-1.98c.761 0 .94-1.773 1.075-4.797l.269-6.413c.111-2.66.425-4.432 1.187-5.214-.695-.834-.963-2.607-1.076-5.266l-.268-6.36c-.135-3.024-.314-4.797-1.075-4.797v-1.981c1.388 0 1.791 2.45 1.97 6.778zm7.46-12.982h.895v13.191h1.345c1.568 0 2.24 2.242 2.24 6.256v10.844c0 4.015-.672 6.205-2.24 6.205h-2.24zm2.24 34.515c.94 0 1.344-1.512 1.344-4.224V35.714c0-2.71-.403-4.275-1.344-4.275h-1.345v19.343zm4.301 1.98h-.896V16.268h.896zm6.295-31.333v8.863c0 2.086-.269 3.493-.896 4.223.784.73 1.12 2.346 1.12 4.692v7.821c0 3.701-.672 5.735-2.24 5.735h-2.241V16.267h2.24c1.412 0 2.017 1.825 2.017 5.162zm-3.36 14.077v15.276h1.344c.94 0 1.343-1.356 1.343-3.754v-7.82c0-2.399-.403-3.702-1.343-3.702zm0-17.258v15.277h1.344c.784 0 1.12-1.147 1.12-3.233V21.43c0-2.086-.336-3.18-1.12-3.18zm9.296 27.685h-2.89l-.403 6.83h-.919l2.33-36.548h.896l2.33 36.548h-.918zm-2.756-1.981h2.644l-.65-10.584-.672-12.252-.672 12.252zm9.253-8.446h-2.689v17.257h-.896V16.267h.896v17.258h2.689V16.267h.896v36.496h-.896zm6.518 0h-2.688v17.257h-.897V16.267h.897v17.258h2.688V16.267h.896v36.496h-.896zm6.63-17.205h-2.8v15.224h2.353v1.98h-2.353V50.73h2.8v2.034h-3.696V16.267h3.697zm8.984 0h-2.69v34.462h-.895V16.267h4.48v36.496h-.895zm3.852 34.462h-.896V16.267h.896zm6.318-31.334v8.863c0 2.086-.27 3.493-.897 4.223.785.73 1.12 2.346 1.12 4.692v7.821c0 3.701-.671 5.735-2.24 5.735h-2.24V16.267h2.24c1.412 0 2.017 1.825 2.017 5.162zm-3.361 14.077v15.276h1.344c.94 0 1.345-1.356 1.345-3.754v-7.82c0-2.399-.404-3.702-1.345-3.702zm0-17.258v15.277h1.344c.784 0 1.12-1.147 1.12-3.233V21.43c0-2.086-.336-3.18-1.12-3.18zm9.297 27.685h-2.89l-.404 6.83h-.918l2.33-36.548h.896l2.33 36.548h-.918zm-2.756-1.981h2.644l-.65-10.584-.672-12.252-.672 12.252zm13.173 6.777h2.016V16.267h.896v36.496h-6.721V16.267h.896V50.73h2.016V16.267h.897zm9.296-4.587c.135 3.024.314 4.796 1.076 4.796v1.981c-1.39 0-1.793-2.45-1.972-6.777l-.269-6.413c-.112-2.711-.403-4.223-1.344-4.223h-.672v17.257h-.897V16.267h.897v17.258h.672c.851 0 1.12-1.565 1.232-4.276l.269-6.36c.18-4.328.582-6.778 1.971-6.778v1.981c-.761 0-.94 1.773-1.075 4.797l-.269 6.36c-.112 2.66-.403 4.432-1.075 5.266.761.782 1.075 2.555 1.188 5.214zm4.57-30.396c1.568 0 2.24 1.981 2.24 5.683v26.12c0 3.702-.672 5.735-2.24 5.735-1.569 0-2.241-2.033-2.241-5.735V21.43c0-3.702.672-5.683 2.24-5.683zm-1.344 31.803c0 2.399.403 3.754 1.344 3.754.94 0 1.344-1.355 1.344-3.754V21.43c0-2.398-.403-3.702-1.344-3.702-.941 0-1.344 1.304-1.344 3.702zm10.103 5.214h-4.481v4.223h-.784v-6.257c.784 0 1.097-5.109 1.165-9.332l.403-25.13h3.809V50.73h.672v6.257h-.784zm-4.168-2.034h3.384V18.301h-2.062l-.358 23.096c-.067 3.493-.247 7.56-.964 9.332zm9.499-21.427v-7.873c0-2.398-.403-3.702-1.344-3.702-.941 0-1.345 1.304-1.345 3.702v5.265h-.896V21.43c0-3.702.672-5.683 2.24-5.683 1.569 0 2.241 1.981 2.241 5.683v7.873c0 2.658-.358 4.431-1.12 5.213.762.782 1.12 2.555 1.12 5.214v7.82c0 3.702-.672 5.735-2.24 5.735-1.569 0-2.241-2.033-2.241-5.735v-5.214h.896v5.214c0 2.399.404 3.754 1.345 3.754.94 0 1.344-1.355 1.344-3.754v-7.82c0-2.711-.403-4.223-1.344-4.223h-1.12v-1.981h1.12c.94 0 1.344-1.513 1.344-4.223zm3.808 23.46h-.897V16.268h.897zm6.43 0h-4.37V16.268h.897V50.73h2.688V16.267h.896V50.73h.673v6.257h-.784zm2.149-36.495h.896v13.191h1.345c1.568 0 2.24 2.242 2.24 6.256v10.844c0 4.015-.672 6.205-2.24 6.205h-2.241zm2.24 34.515c.942 0 1.345-1.512 1.345-4.224V35.714c0-2.71-.403-4.275-1.345-4.275h-1.344v19.343zm12.097-29.353v8.863c0 2.086-.268 3.493-.896 4.223.784.73 1.12 2.346 1.12 4.692v7.821c0 3.701-.671 5.735-2.24 5.735h-2.24V16.267h2.24c1.411 0 2.016 1.825 2.016 5.162zm-3.36 14.077v15.276h1.344c.94 0 1.344-1.356 1.344-3.754v-7.82c0-2.399-.403-3.702-1.344-3.702zm0-17.258v15.277h1.344c.784 0 1.12-1.147 1.12-3.233V21.43c0-2.086-.336-3.18-1.12-3.18zm9.297 27.685h-2.89l-.404 6.83h-.918l2.33-36.548h.896l2.33 36.548h-.919zm-2.756-1.981h2.643l-.65-10.584-.671-12.252-.672 12.252zm9.476 6.777h2.016V16.267h.897v36.496h-6.722V16.267h.897V50.73h2.016V16.267h.896zm8.692-4.796h-2.89l-.404 6.83h-.918l2.33-36.548h.896l2.33 36.548h-.918zm-2.756-1.981h2.643l-.65-10.584-.671-12.252-.672 12.252zm9.32 1.981h-.897l-1.971-23.513.112 6.83v23.513h-.896V16.267h.896l1.635 16.788.672 10.115.673-10.115 1.635-16.788h.896v36.496h-.896V29.249l.112-6.83zm4.233-29.666h.873l1.322 15.641.672 9.802.538-9.802 1.165-15.64h.874l-2.173 29.196c-.314 4.588-.65 7.299-2.196 7.299v-1.981c.941 0 1.12-2.034 1.344-5.318l.023-.47zm13.8 13.035v-7.873c0-2.398-.404-3.702-1.345-3.702-.94 0-1.344 1.304-1.344 3.702v5.265h-.896V21.43c0-3.702.672-5.683 2.24-5.683s2.24 1.981 2.24 5.683v7.873c0 2.658-.358 4.431-1.12 5.213.762.782 1.12 2.555 1.12 5.214v7.82c0 3.702-.672 5.735-2.24 5.735s-2.24-2.033-2.24-5.735v-5.214h.896v5.214c0 2.399.403 3.754 1.344 3.754.941 0 1.344-1.355 1.344-3.754v-7.82c0-2.711-.403-4.223-1.344-4.223h-1.12v-1.981h1.12c.941 0 1.344-1.513 1.344-4.223zm7.415 23.46h-4.481v4.224h-.785v-6.257c.785 0 1.098-5.109 1.165-9.332l.403-25.13h3.81V50.73h.672v6.257h-.784zm-4.168-2.033h3.383V18.301h-2.061l-.358 23.096c-.067 3.493-.247 7.56-.964 9.332zm10.059-4.796h-2.89l-.404 6.83h-.919l2.33-36.548h.897l2.33 36.548h-.919zm-2.756-1.981h2.644l-.65-10.584-.672-12.252-.672 12.252zm5.667-27.685h2.24c1.57 0 2.241 2.19 2.241 6.205v10.844c0 4.014-.671 6.256-2.24 6.256h-1.344v13.19h-.897zm.897 1.981V37.59h1.344c.94 0 1.344-1.564 1.344-4.275V22.472c0-2.712-.403-4.224-1.344-4.224zm7.572-2.502c1.568 0 2.24 1.981 2.24 5.683v26.12c0 3.702-.672 5.735-2.24 5.735-1.569 0-2.24-2.033-2.24-5.735V21.43c0-3.702.671-5.683 2.24-5.683zm-1.345 31.803c0 2.399.404 3.754 1.345 3.754.94 0 1.344-1.355 1.344-3.754V21.43c0-2.398-.404-3.702-1.344-3.702-.941 0-1.345 1.304-1.345 3.702zm5.018-31.282h.874l1.321 15.641.673 9.802.537-9.802 1.166-15.64h.873l-2.173 29.196c-.314 4.588-.65 7.299-2.196 7.299v-1.981c.941 0 1.12-2.034 1.344-5.318l.023-.47zm4.481-6.256c0 2.711-.515 4.17-1.68 4.17-1.188 0-1.681-1.459-1.681-4.17h.784c0 1.564.269 2.45.896 2.45.628 0 .896-.886.896-2.45zm7.37 5.735c1.568 0 2.24 1.981 2.24 5.683v26.12c0 3.702-.672 5.735-2.24 5.735s-2.24-2.033-2.24-5.735V35.506h-1.793v17.257h-.896V16.267h.896v17.258h1.793V21.429c0-3.702.672-5.683 2.24-5.683zm-1.344 31.803c0 2.399.403 3.754 1.344 3.754.941 0 1.344-1.355 1.344-3.754V21.43c0-2.398-.403-3.702-1.344-3.702-.941 0-1.344 1.304-1.344 3.702z"/></svg>