<?xml version="1.0" encoding="utf-8"?>
<!-- Generator: Adobe Illustrator 17.0.0, SVG Export Plug-In . SVG Version: 6.00 Build 0)  -->
<!DOCTYPE svg PUBLIC "-//W3C//DTD SVG 1.1//EN" "http://www.w3.org/Graphics/SVG/1.1/DTD/svg11.dtd" [
	<!ENTITY st0 "fill:#D4AE67;">
]>
<svg version="1.1" id="Слой_1" xmlns="http://www.w3.org/2000/svg" xmlns:xlink="http://www.w3.org/1999/xlink" x="0px" y="0px"
	 width="1326.474px" height="133px" viewBox="0 0 1326.474 133" style="enable-background:new 0 0 1326.474 133;"
	 xml:space="preserve">
<g>
	<polygon style="&st0;" points="0,118.56 5.49,118.56 5.49,22.387 17.043,22.387 17.043,118.56 22.673,118.56 22.673,17.474 
		0,17.474 	"/>
	<path style="&st0;" d="M42.734,17.474h-9.962V118.56h5.484V69.028c2.31,0.14,5.633,0.286,7.801-0.146
		c4.621-0.87,6.639-3.612,7.363-4.767c2.022-3.32,1.879-8.226,1.879-11.838V34.803c0-5.053-0.435-9.096-2.168-11.984
		C50.386,18.198,45.765,17.474,42.734,17.474z M49.808,52.994c0,1.155,0,5.345-0.578,6.931c-1.298,4.05-4.475,4.481-7.074,4.481
		h-3.9V22.673H43.6c1.301,0,3.034,0.286,4.475,2.164c1.733,2.171,1.733,5.199,1.733,8.087V52.994z"/>
	<path style="&st0;" d="M67.993,17.474L56.876,118.56h5.776l2.453-27.294h11.121l2.456,27.294h5.776L73.338,17.474H67.993z
		 M65.54,86.359l4.621-42.892l0.143-3.897h0.724l0.146,3.897l4.475,42.892H65.54z"/>
	<path style="&st0;" d="M105.678,65.994c2.742-1.009,4.475-2.888,5.484-4.621c1.879-3.174,1.59-6.068,1.59-9.534V35.812
		c0-8.372-1.012-11.838-2.022-13.863c-2.164-4.475-5.63-5.922-9.242-5.922c-4.475,0-7.363,2.171-9.242,5.776
		c-1.879,3.758-2.022,7.655-2.022,11.99v16.89h5.487V33.648c0-2.888-0.146-5.922,0.866-8.664c0.866-2.456,2.168-3.466,4.91-3.466
		c2.022,0,3.897,0.87,4.91,3.466c0.435,1.155,0.866,3.32,0.866,9.096v17.328c0,4.621,0,12.568-6.208,12.568h-8.521v5.484h9.385
		c2.31,0,5.633,1.733,5.633,11.124v21.518c0,4.621-0.143,7.071-0.866,8.95c-1.009,2.888-2.456,3.174-5.053,3.174
		c-1.733,0-3.9-0.432-5.056-3.466c-0.578-1.295-0.866-3.028-0.866-8.658V79.428h-5.487v22.089c0,6.646,0.866,10.257,2.31,12.853
		c2.022,3.612,4.91,5.345,9.099,5.345c4.907,0,7.652-2.456,9.242-5.053c2.018-3.466,2.164-8.525,2.164-13.145V82.602
		c0-5.919-0.432-8.09-0.724-9.245C111.454,70.183,109.429,67.581,105.678,65.994z"/>
	<polygon style="&st0;" points="140.322,96.033 139.887,96.033 131.366,17.474 122.701,17.474 122.701,118.56 128.192,118.56 
		128.192,41.442 127.757,28.017 128.046,28.017 137.865,118.56 142.34,118.56 152.16,28.017 152.452,28.017 152.017,41.442 
		152.017,118.56 157.504,118.56 157.504,17.474 148.84,17.474 	"/>
	<polygon style="&st0;" points="173.081,67.873 187.813,67.873 187.813,62.96 173.081,62.96 173.081,22.387 189.254,22.387 
		189.254,17.474 167.596,17.474 167.596,118.56 189.977,118.56 189.977,113.653 173.081,113.653 	"/>
	<path style="&st0;" d="M206.144,17.474h-9.965V118.56h5.49V69.028c2.31,0.14,5.63,0.286,7.795-0.146
		c4.621-0.87,6.646-3.612,7.366-4.767c2.022-3.32,1.876-8.226,1.876-11.838V34.803c0-5.053-0.432-9.096-2.164-11.984
		C213.799,18.198,209.178,17.474,206.144,17.474z M213.221,52.994c0,1.155,0,5.345-0.578,6.931c-1.301,4.05-4.478,4.481-7.077,4.481
		h-3.897V22.673h5.341c1.298,0,3.031,0.286,4.478,2.164c1.733,2.171,1.733,5.199,1.733,8.087V52.994z"/>
	<polygon style="&st0;" points="243.676,63.537 232.124,63.537 232.124,17.474 226.64,17.474 226.64,118.56 232.124,118.56 
		232.124,68.45 243.676,68.45 243.676,118.56 249.167,118.56 249.167,17.474 243.676,17.474 	"/>
	<path style="&st0;" d="M266.774,17.474L255.654,118.56h5.776l2.456-27.294h11.117l2.453,27.294h5.776L272.116,17.474H266.774z
		 M264.318,86.359l4.621-42.892l0.146-3.897h0.72l0.143,3.897l4.478,42.892H264.318z"/>
	<polygon style="&st0;" points="295.211,67.873 309.937,67.873 309.937,62.96 295.211,62.96 295.211,22.387 311.384,22.387 
		311.384,17.474 289.72,17.474 289.72,118.56 312.104,118.56 312.104,113.653 295.211,113.653 	"/>
	<path style="&st0;" d="M360.316,14.732c3.751,0,5.919-2.025,7.074-3.758c1.444-2.164,2.168-5.63,2.168-8.81V0h-3.612
		c0.289,2.31,0,5.922-0.866,8.087c-1.298,3.034-3.466,3.32-4.764,3.32c-2.025,0-3.9-1.587-4.767-3.32
		c-1.009-1.872-1.155-5.922-0.866-8.087h-3.608v2.164c0,3.034,0.72,6.646,2.164,8.81C354.683,13.145,357.282,14.732,360.316,14.732z
		"/>
	<path style="&st0;" d="M362.191,77.4l-0.143,4.338h-0.435l-0.289-4.338l-7.22-59.926h-5.487l9.965,78.704
		c0.863,7.363,0.72,11.114-0.724,13.717c-2.022,3.32-4.332,3.174-6.785,3.174h-3.034v5.49c2.888,0.286,3.897,0.286,4.475,0.286
		c3.034,0,6.211-1.155,8.379-3.466c3.751-3.897,3.897-9.813,4.475-15.735l7.798-82.17h-5.487L362.191,77.4z"/>
	<path style="&st0;" d="M419.077,80.869c0-10.686-3.754-13.574-7.22-15.021c3.034-1.733,5.345-4.329,5.345-11.552V27.579
		c0-2.164-0.292-5.053,2.742-5.053h1.733V17.62h-2.164c-2.31,0-4.621,0.717-5.776,2.164c-1.447,1.733-1.301,4.913-1.301,8.087
		v24.406c0,5.776-0.289,11.114-4.767,11.114h-5.63V17.474h-5.487v45.917h-5.633c-4.475,0-4.764-5.338-4.764-11.114V27.871
		c0-3.174,0.143-6.354-1.298-8.087c-1.155-1.447-3.466-2.164-5.776-2.164h-2.168v4.907h1.733c3.031,0,2.745,2.888,2.745,5.053
		v26.716c0,7.223,2.31,9.819,5.341,11.552c-3.466,1.447-7.22,4.335-7.22,15.021v24.114c0,6.792-0.432,9.826-2.742,13.291
		l0.143,0.286h5.633c2.018-3.897,2.453-7.801,2.453-12.561V81.015c0-6.211,0.143-8.09,0.72-9.245
		c0.724-1.733,2.745-3.466,5.633-3.466h5.198v50.255h5.487V68.304h5.199c1.587,0,4.189,0.432,5.487,3.612
		c0.72,1.733,0.866,4.043,0.866,9.099v24.983c0,4.761,0.432,8.664,2.456,12.561h5.63l0.146-0.286
		c-2.31-3.466-2.745-6.5-2.745-13.291V80.869z"/>
	<path style="&st0;" d="M437.833,66.857h-3.323V17.474h-5.484V118.56h12.273c4.043,0,6.789-2.596,8.087-4.767
		c2.31-3.605,2.168-8.226,2.168-11.984V83.757c0-3.32,0-9.677-3.612-13.434C445.053,67.295,441.156,66.857,437.833,66.857z
		 M446.063,104.843c0,2.596-0.143,4.475-0.863,5.776c-1.301,2.742-3.612,3.034-4.913,3.034h-5.776V71.77h2.31
		c3.612,0,6.5,0,8.233,3.758c0.578,1.155,1.009,2.882,1.009,8.229V104.843z"/>
	<rect x="456.174" y="17.474" style="&st0;" width="5.484" height="101.085"/>
	<path style="&st0;" d="M488.07,65.702c2.888-1.441,4.332-3.751,4.91-5.338c0.866-2.164,1.012-4.913,1.012-9.534V36.536
		c0-6.931-0.578-10.975-2.31-13.863c-2.745-4.767-6.646-5.199-9.677-5.199h-10.254V118.56h10.832c5.056,0,8.521-1.733,10.397-7.363
		c0.866-2.748,1.298-6.354,1.298-12.999V84.049c0-8.382-0.432-10.692-0.72-11.701C492.545,68.304,490.234,66.571,488.07,65.702z
		 M477.241,22.387h5.63c2.164,0,3.754,1.009,4.621,3.466c0.866,2.018,1.009,5.338,1.009,7.363v20.502
		c0,3.466-0.432,5.636-1.298,7.077c-0.578,1.009-2.168,2.888-5.056,2.888h-4.907V22.387z M488.793,100.508
		c0,4.475-0.292,7.223-1.012,9.242c-0.72,2.025-2.022,3.904-5.056,3.904h-5.484V68.596h5.199c3.32,0,4.907,2.164,5.484,3.605
		c0.578,1.301,0.87,3.18,0.87,9.677V100.508z"/>
	<path style="&st0;" d="M511.162,17.474L500.044,118.56h5.776l2.453-27.294h11.121l2.456,27.294h5.776L516.506,17.474H511.162z
		 M508.708,86.359l4.621-42.892l0.143-3.897h0.724l0.146,3.897l4.475,42.892H508.708z"/>
	<polygon style="&st0;" points="551.15,63.537 539.598,63.537 539.598,17.474 534.114,17.474 534.114,118.56 539.598,118.56 
		539.598,68.45 551.15,68.45 551.15,118.56 556.641,118.56 556.641,17.474 551.15,17.474 	"/>
	<polygon style="&st0;" points="583.776,63.537 572.223,63.537 572.223,17.474 566.739,17.474 566.739,118.56 572.223,118.56 
		572.223,68.45 583.776,68.45 583.776,118.56 589.266,118.56 589.266,17.474 583.776,17.474 	"/>
	<polygon style="&st0;" points="604.849,67.873 619.581,67.873 619.581,62.96 604.849,62.96 604.849,22.387 621.022,22.387 
		621.022,17.474 599.365,17.474 599.365,118.56 621.746,118.56 621.746,113.653 604.849,113.653 	"/>
	<polygon style="&st0;" points="661.582,118.56 667.066,118.56 667.066,22.387 678.618,22.387 678.618,118.56 684.252,118.56 
		684.252,17.474 661.582,17.474 	"/>
	<rect x="694.347" y="17.474" style="&st0;" width="5.481" height="101.085"/>
	<path style="&st0;" d="M726.252,65.702c2.888-1.441,4.329-3.751,4.906-5.338c0.87-2.164,1.009-4.913,1.009-9.534V36.536
		c0-6.931-0.578-10.975-2.31-13.863c-2.742-4.767-6.639-5.199-9.673-5.199h-10.251V118.56h10.829c5.053,0,8.518-1.733,10.397-7.363
		c0.87-2.748,1.301-6.354,1.301-12.999V84.049c0-8.382-0.432-10.692-0.724-11.701C730.727,68.304,728.417,66.571,726.252,65.702z
		 M715.417,22.387h5.636c2.164,0,3.751,1.009,4.621,3.466c0.863,2.018,1.009,5.338,1.009,7.363v20.502
		c0,3.466-0.432,5.636-1.301,7.077c-0.578,1.009-2.164,2.888-5.052,2.888h-4.913V22.387z M726.97,100.508
		c0,4.475-0.286,7.223-1.009,9.242c-0.724,2.025-2.018,3.904-5.053,3.904h-5.49V68.596h5.199c3.326,0,4.913,2.164,5.49,3.605
		c0.578,1.301,0.863,3.18,0.863,9.677V100.508z"/>
	<path style="&st0;" d="M749.344,17.474L738.223,118.56H744l2.456-27.294h11.121l2.45,27.294h5.776L754.689,17.474H749.344z
		 M746.888,86.359l4.621-42.892l0.146-3.897h0.724l0.14,3.897l4.481,42.892H746.888z"/>
	<polygon style="&st0;" points="840.004,113.653 828.452,113.653 828.452,17.474 822.967,17.474 822.967,113.653 811.415,113.653 
		811.415,17.474 805.925,17.474 805.925,118.56 845.494,118.56 845.494,17.474 840.004,17.474 	"/>
	<path style="&st0;" d="M878.114,80.869c0-9.531-2.888-13.142-6.785-15.021c2.45-1.733,4.907-4.475,4.907-11.552V27.579
		c0-2.45-0.146-4.475,2.742-4.475h1.733V17.62h-2.164c-2.31,0-4.621,0.717-5.776,2.164c-1.441,1.733-1.301,4.913-1.301,8.087v24.406
		c0,4.043-0.286,11.114-4.761,11.114h-5.636V17.474h-5.484V118.56h5.484V68.304h4.481c2.31,0,3.897,1.447,4.907,2.602
		c2.164,2.596,2.164,6.208,2.164,10.108v24.983c0,4.761,0.438,8.664,2.456,12.561h5.63l0.146-0.286
		c-2.31-3.466-2.742-6.5-2.742-13.291V80.869z"/>
	<path style="&st0;" d="M898.463,16.027c-3.612,0-7.369,1.016-9.68,5.922c-1.295,2.748-1.587,6.354-1.587,13.431v65.273
		c0,7.077,0.292,10.689,1.587,13.431c2.31,4.907,6.068,5.916,9.68,5.916c3.605,0,7.363-1.009,9.673-5.916
		c1.301-2.742,1.587-6.354,1.587-13.431V35.38c0-7.077-0.286-10.683-1.587-13.431C905.826,17.043,902.069,16.027,898.463,16.027z
		 M904.239,101.663c0,6.785-0.438,8.525-0.87,9.68c-1.155,2.882-3.034,3.174-4.906,3.174c-1.879,0-3.758-0.292-4.913-3.174
		c-0.432-1.155-0.863-2.894-0.863-9.68V34.371c0-6.792,0.432-8.518,0.863-9.673c1.155-2.894,3.034-3.18,4.913-3.18
		c1.872,0,3.751,0.286,4.906,3.18c0.432,1.155,0.87,2.882,0.87,9.673V101.663z"/>
	<path style="&st0;" d="M944.514,17.474h-17.76V54.15c0,33.797-4.767,50.833-7.795,59.504h-3.904V133h4.621v-14.44h25.129V133h4.621
		v-19.347h-4.913V17.474z M939.029,113.653h-15.31c3.612-11.413,7.369-27.586,7.369-56.178V22.387h7.941V113.653z"/>
	<path style="&st0;" d="M970.639,65.994c2.742-1.009,4.475-2.888,5.484-4.621c1.879-3.174,1.593-6.068,1.593-9.534V35.812
		c0-8.372-1.016-11.838-2.025-13.863c-2.164-4.475-5.63-5.922-9.242-5.922c-4.475,0-7.363,2.171-9.242,5.776
		c-1.879,3.758-2.018,7.655-2.018,11.99v16.89h5.484V33.648c0-2.888-0.146-5.922,0.87-8.664c0.863-2.456,2.164-3.466,4.906-3.466
		c2.025,0,3.897,0.87,4.913,3.466c0.432,1.155,0.863,3.32,0.863,9.096v17.328c0,4.621,0,12.568-6.208,12.568H957.5v5.484h9.381
		c2.31,0,5.636,1.733,5.636,11.124v21.518c0,4.621-0.146,7.071-0.87,8.95c-1.009,2.888-2.456,3.174-5.053,3.174
		c-1.733,0-3.897-0.432-5.052-3.466c-0.578-1.295-0.87-3.028-0.87-8.658V79.428h-5.484v22.089c0,6.646,0.863,10.257,2.31,12.853
		c2.018,3.612,4.906,5.345,9.096,5.345c4.907,0,7.655-2.456,9.242-5.053c2.018-3.466,2.164-8.525,2.164-13.145V82.602
		c0-5.919-0.432-8.09-0.724-9.245C976.416,70.183,974.391,67.581,970.639,65.994z"/>
	<rect x="987.663" y="17.474" style="&st0;" width="5.49" height="101.085"/>
	<polygon style="&st0;" points="1025.779,17.474 1020.295,17.474 1020.295,113.653 1008.743,113.653 1008.743,17.474 
		1003.252,17.474 1003.252,118.56 1026.503,118.56 1026.503,133 1031.124,133 1031.124,113.793 1025.779,113.793 	"/>
	<path style="&st0;" d="M1045.697,66.857h-3.32V17.474h-5.49V118.56h12.276c4.043,0,6.785-2.596,8.087-4.767
		c2.311-3.605,2.165-8.226,2.165-11.984V83.757c0-3.32,0-9.677-3.605-13.434C1052.921,67.295,1049.017,66.857,1045.697,66.857z
		 M1053.93,104.843c0,2.596-0.146,4.475-0.87,5.776c-1.295,2.742-3.605,3.034-4.907,3.034h-5.776V71.77h2.311
		c3.612,0,6.5,0,8.233,3.758c0.578,1.155,1.009,2.882,1.009,8.229V104.843z"/>
	<path style="&st0;" d="M1116.433,65.994c2.742-1.009,4.475-2.888,5.484-4.621c1.879-3.174,1.593-6.068,1.593-9.534V35.812
		c0-8.372-1.016-11.838-2.025-13.863c-2.164-4.475-5.63-5.922-9.242-5.922c-4.475,0-7.363,2.171-9.242,5.776
		c-1.879,3.758-2.019,7.655-2.019,11.99v16.89h5.484V33.648c0-2.888-0.146-5.922,0.87-8.664c0.863-2.456,2.164-3.466,4.906-3.466
		c2.025,0,3.897,0.87,4.913,3.466c0.432,1.155,0.863,3.32,0.863,9.096v17.328c0,4.621,0,12.568-6.208,12.568h-8.518v5.484h9.381
		c2.31,0,5.636,1.733,5.636,11.124v21.518c0,4.621-0.146,7.071-0.87,8.95c-1.009,2.888-2.457,3.174-5.053,3.174
		c-1.733,0-3.897-0.432-5.052-3.466c-0.578-1.295-0.87-3.028-0.87-8.658V79.428h-5.484v22.089c0,6.646,0.863,10.257,2.31,12.853
		c2.019,3.612,4.907,5.345,9.096,5.345c4.907,0,7.655-2.456,9.242-5.053c2.018-3.466,2.164-8.525,2.164-13.145V82.602
		c0-5.919-0.432-8.09-0.724-9.245C1122.209,70.183,1120.184,67.581,1116.433,65.994z"/>
	<path style="&st0;" d="M1157.576,17.474h-17.76V54.15c0,33.797-4.767,50.833-7.801,59.504h-3.897V133h4.621v-14.44h25.123V133
		h4.621v-19.347h-4.906V17.474z M1152.086,113.653h-15.304c3.612-11.413,7.363-27.586,7.363-56.178V22.387h7.941V113.653z"/>
	<path style="&st0;" d="M1176.479,17.474l-11.114,101.085h5.776l2.45-27.294h11.121l2.456,27.294h5.776l-11.121-101.085H1176.479z
		 M1174.029,86.359l4.621-42.892l0.14-3.897h0.724l0.146,3.897l4.475,42.892H1174.029z"/>
	<path style="&st0;" d="M1209.396,17.474h-9.965V118.56h5.484V69.028c2.31,0.14,5.636,0.286,7.801-0.146
		c4.621-0.87,6.639-3.612,7.363-4.767c2.025-3.32,1.879-8.226,1.879-11.838V34.803c0-5.053-0.432-9.096-2.164-11.984
		C1217.045,18.198,1212.424,17.474,1209.396,17.474z M1216.467,52.994c0,1.155,0,5.345-0.578,6.931
		c-1.295,4.05-4.475,4.481-7.071,4.481h-3.904V22.673h5.344c1.301,0,3.034,0.286,4.475,2.164c1.733,2.171,1.733,5.199,1.733,8.087
		V52.994z"/>
	<path style="&st0;" d="M1240.721,16.027c-3.612,0-7.363,1.016-9.673,5.922c-1.301,2.748-1.587,6.354-1.587,13.431v65.273
		c0,7.077,0.286,10.689,1.587,13.431c2.31,4.907,6.062,5.916,9.673,5.916s7.363-1.009,9.673-5.916
		c1.301-2.742,1.593-6.354,1.593-13.431V35.38c0-7.077-0.292-10.683-1.593-13.431C1248.084,17.043,1244.333,16.027,1240.721,16.027z
		 M1246.497,101.663c0,6.785-0.432,8.525-0.863,9.68c-1.155,2.882-3.034,3.174-4.913,3.174s-3.751-0.292-4.906-3.174
		c-0.438-1.155-0.87-2.894-0.87-9.68V34.371c0-6.792,0.432-8.518,0.87-9.673c1.155-2.894,3.028-3.18,4.906-3.18
		s3.758,0.286,4.913,3.18c0.432,1.155,0.863,2.882,0.863,9.673V101.663z"/>
	<path style="&st0;" d="M1270.02,14.732c3.758,0,5.922-2.025,7.077-3.758c1.441-2.164,2.165-5.63,2.165-8.81V0h-3.605
		c0.286,2.31,0,5.922-0.87,8.087c-1.301,3.034-3.466,3.32-4.767,3.32c-2.019,0-3.897-1.587-4.761-3.32
		c-1.016-1.872-1.155-5.922-0.87-8.087h-3.612v2.164c0,3.034,0.724,6.646,2.171,8.81C1264.39,13.145,1266.986,14.732,1270.02,14.732
		z"/>
	<path style="&st0;" d="M1271.899,77.4l-0.146,4.338h-0.432l-0.286-4.338l-7.223-59.926h-5.484l9.959,78.704
		c0.87,7.363,0.724,11.114-0.717,13.717c-2.025,3.32-4.335,3.174-6.792,3.174h-3.028v5.49c2.888,0.286,3.897,0.286,4.475,0.286
		c3.034,0,6.208-1.155,8.372-3.466c3.758-3.897,3.904-9.813,4.475-15.735l7.801-82.17h-5.49L1271.899,77.4z"/>
	<path style="&st0;" d="M1324.887,21.949c-2.31-4.907-6.068-5.922-9.673-5.922c-3.612,0-7.369,1.016-9.68,5.922
		c-1.301,2.748-1.587,6.354-1.587,13.431v28.449h-9.096V17.474h-5.49V118.56h5.49V68.736h9.096v31.918
		c0,7.077,0.286,10.689,1.587,13.431c2.311,4.907,6.068,5.916,9.68,5.916c3.605,0,7.363-1.009,9.673-5.916
		c1.295-2.742,1.587-6.354,1.587-13.431V35.38C1326.474,28.303,1326.182,24.698,1324.887,21.949z M1320.99,101.663
		c0,6.931-0.292,8.525-0.724,9.68c-1.155,2.882-3.326,3.174-5.052,3.174c-1.879,0-3.758-0.292-4.913-3.174
		c-0.432-1.155-0.863-2.894-0.863-9.68V34.371c0-6.792,0.432-8.518,0.863-9.673c1.155-2.894,3.034-3.18,4.913-3.18
		c1.727,0,3.897,0.286,5.052,3.18c0.432,1.155,0.724,2.742,0.724,9.673V101.663z"/>
</g>
<g>
</g>
<g>
</g>
<g>
</g>
<g>
</g>
<g>
</g>
<g>
</g>
</svg>
