<svg xmlns="http://www.w3.org/2000/svg" xmlns:xlink="http://www.w3.org/1999/xlink" preserveAspectRatio="xMidYMid" width="7.5" height="8" viewBox="0 0 7.5 8">
  <defs>
    <style>
      .cls-1 {
        fill: #eebe63;
        opacity: 0.8;
        fill-rule: evenodd;
      }
    </style>
  </defs>
  <path d="M7.312,4.610 L4.167,7.827 C3.934,8.065 3.556,8.065 3.323,7.827 L0.178,4.610 C-0.055,4.371 -0.055,3.985 0.178,3.746 C0.411,3.508 0.789,3.508 1.022,3.746 L3.745,6.532 L6.468,3.746 C6.701,3.508 7.079,3.508 7.312,3.746 C7.545,3.985 7.545,4.371 7.312,4.610 ZM3.720,5.677 C3.385,5.671 3.108,5.398 3.102,5.067 L3.025,0.593 C3.019,0.262 3.286,-0.002 3.622,0.003 C3.958,0.009 4.235,0.282 4.240,0.614 L4.318,5.087 C4.324,5.419 4.056,5.683 3.720,5.677 Z" class="cls-1"/>
</svg>
