<svg xmlns="http://www.w3.org/2000/svg" xmlns:xlink="http://www.w3.org/1999/xlink" viewBox="0 0 454.02 307.16"><defs><style>.cls-1{isolation:isolate;}.cls-2{fill:#e6e6e6;}.cls-3{fill:url(#linear-gradient);}.cls-4{fill:#dadada;}.cls-17,.cls-20,.cls-5{fill:#fff;}.cls-6{fill:url(#linear-gradient-2);}.cls-7{fill:url(#linear-gradient-3);}.cls-8{fill:url(#linear-gradient-4);}.cls-9{fill:url(#linear-gradient-5);}.cls-10{fill:url(#linear-gradient-6);}.cls-11{fill:url(#linear-gradient-7);}.cls-12,.cls-16,.cls-23{fill:#c6c6c6;}.cls-12,.cls-16{stroke:#c6c6c6;mix-blend-mode:multiply;}.cls-12,.cls-14,.cls-16,.cls-17{stroke-linecap:round;stroke-linejoin:round;}.cls-12,.cls-14{stroke-width:1.97px;}.cls-13{fill:#f6f6f6;}.cls-14,.cls-17,.cls-20{stroke:#fff;}.cls-14{fill:url(#linear-gradient-8);}.cls-15{fill:url(#linear-gradient-9);}.cls-16,.cls-17{stroke-width:2.37px;}.cls-18{fill:url(#linear-gradient-10);}.cls-19{fill:url(#linear-gradient-11);}.cls-20{stroke-width:8.5px;}.cls-20,.cls-22{fill-rule:evenodd;}.cls-21{fill:#a15a36;}.cls-22{fill:url(#New_Gradient_Swatch_4);}.cls-24{fill:url(#linear-gradient-12);}.cls-25{fill:url(#linear-gradient-13);}.cls-26{fill:url(#linear-gradient-14);}.cls-27{fill:url(#linear-gradient-15);}</style><linearGradient id="linear-gradient" x1="260.2" y1="199.11" x2="621.64" y2="199.11" gradientUnits="userSpaceOnUse"><stop offset="0" stop-color="#ffe596"/><stop offset="0" stop-color="#fbe092"/><stop offset="0" stop-color="#eed086"/><stop offset="0" stop-color="#d9b773"/><stop offset="0" stop-color="#bb9358"/><stop offset="0" stop-color="#956635"/><stop offset="0" stop-color="#946434"/><stop offset="0" stop-color="#9c6d3a"/><stop offset="0" stop-color="#b2884c"/><stop offset="0" stop-color="#c09857"/><stop offset="0.01" stop-color="#c59e5b"/><stop offset="1" stop-color="#c59e5b"/></linearGradient><linearGradient id="linear-gradient-2" x1="216.06" y1="230.14" x2="663.99" y2="230.14" gradientUnits="userSpaceOnUse"><stop offset="0" stop-color="#ffe596"/><stop offset="0" stop-color="#fbe092"/><stop offset="0" stop-color="#eed086"/><stop offset="0" stop-color="#d9b773"/><stop offset="0" stop-color="#bb9358"/><stop offset="0" stop-color="#956635"/><stop offset="0" stop-color="#946434"/><stop offset="0" stop-color="#9a6b39"/><stop offset="0" stop-color="#aa7e46"/><stop offset="0.01" stop-color="#c59d5b"/><stop offset="0.01" stop-color="#c59e5b"/><stop offset="1" stop-color="#c59e5b"/></linearGradient><linearGradient id="linear-gradient-3" x1="216.08" y1="233.94" x2="663.97" y2="233.94" xlink:href="#linear-gradient-2"/><linearGradient id="linear-gradient-4" x1="216.06" y1="245.75" x2="663.99" y2="245.75" xlink:href="#linear-gradient-2"/><linearGradient id="linear-gradient-5" x1="216.09" y1="235.7" x2="663.94" y2="235.7" xlink:href="#linear-gradient-2"/><linearGradient id="linear-gradient-6" x1="216.09" y1="230.41" x2="663.94" y2="230.41" xlink:href="#linear-gradient-2"/><linearGradient id="linear-gradient-7" x1="216.08" y1="230.22" x2="663.97" y2="230.22" xlink:href="#linear-gradient-2"/><linearGradient id="linear-gradient-8" x1="348.25" y1="144.1" x2="555.67" y2="144.1" gradientTransform="matrix(0.99, 0.12, -0.12, 0.99, 8.8, -45.73)" gradientUnits="userSpaceOnUse"><stop offset="0.01" stop-color="#c59e5b"/><stop offset="0.21" stop-color="#ffe596"/><stop offset="0.27" stop-color="#f0d389"/><stop offset="0.53" stop-color="#aa814b"/><stop offset="0.65" stop-color="#8e6032"/><stop offset="0.7" stop-color="#9a6d3b"/><stop offset="0.82" stop-color="#b1884c"/><stop offset="0.92" stop-color="#c09857"/><stop offset="1" stop-color="#c59e5b"/></linearGradient><linearGradient id="linear-gradient-9" x1="348.25" y1="144.1" x2="555.67" y2="144.1" gradientTransform="matrix(0.99, 0.12, -0.12, 0.99, 8.8, -45.73)" gradientUnits="userSpaceOnUse"><stop offset="0" stop-color="#ecb35b"/><stop offset="0" stop-color="#e2ac58"/><stop offset="0" stop-color="#c2964d"/><stop offset="0.01" stop-color="#c59e5b"/><stop offset="1" stop-color="#c59e5b"/></linearGradient><linearGradient id="linear-gradient-10" x1="336.1" y1="185.97" x2="543.52" y2="185.97" gradientUnits="userSpaceOnUse"><stop offset="0" stop-color="#ecb35b"/><stop offset="0" stop-color="#e2ac58"/><stop offset="0" stop-color="#c2964d"/><stop offset="0" stop-color="#ad8042"/><stop offset="0" stop-color="#8e6032"/><stop offset="0" stop-color="#9a6d3b"/><stop offset="0" stop-color="#b1884c"/><stop offset="0" stop-color="#c09857"/><stop offset="0.01" stop-color="#c59e5b"/><stop offset="1" stop-color="#c59e5b"/></linearGradient><linearGradient id="linear-gradient-11" x1="336.09" y1="163.64" x2="543.55" y2="163.64" xlink:href="#linear-gradient-10"/><radialGradient id="New_Gradient_Swatch_4" cx="428.03" cy="317.15" r="172.88" gradientTransform="translate(-22.09 36.71) rotate(-4.5)" gradientUnits="userSpaceOnUse"><stop offset="0" stop-color="#d20a11"/><stop offset="0.38" stop-color="#cf0a10"/><stop offset="0.63" stop-color="#c70b0f"/><stop offset="0.83" stop-color="#b80d0c"/><stop offset="1" stop-color="#a51008"/></radialGradient><linearGradient id="linear-gradient-12" x1="249.66" y1="369.86" x2="677.76" y2="369.86" xlink:href="#linear-gradient"/><linearGradient id="linear-gradient-13" x1="249.67" y1="370.24" x2="677.76" y2="370.24" xlink:href="#linear-gradient"/><linearGradient id="linear-gradient-14" x1="249.67" y1="370.28" x2="677.76" y2="370.28" xlink:href="#linear-gradient"/><linearGradient id="linear-gradient-15" x1="249.66" y1="370.13" x2="677.76" y2="370.13" xlink:href="#linear-gradient"/></defs><title>alivaria</title><g class="cls-1"><g id="Layer_17" data-name="Layer 17"><path class="cls-2" d="M353.56,232l6.27-.48c12.61-36.42,51.12-57.65,89.9-52.45,21.37,2.21,41.27,10.3,56,23.35-15.28-14.3-36.41-23.14-59.18-25.51C406.22,171.53,366.22,193.85,353.56,232Z" transform="translate(-201.05 -128.24)"/><path class="cls-3" d="M339.64,230.85q6.4-.62,13.2-1.16c12.66-38.19,52.66-60.51,92.94-55.1C468.54,177,489.68,185.81,505,200.1a77,77,0,0,1,7.42,7.53,87.25,87.25,0,0,0-11.07-13.52c-17.3-16.43-42.09-26.75-69.62-26.75C387,167.36,349.55,194.49,339.64,230.85Z" transform="translate(-201.05 -128.24)"/></g><g id="Layer_16" data-name="Layer 16"><path class="cls-4" d="M557.78,222.88a47.65,47.65,0,0,0-13.05-5h0s-.77-.25-2-.55a45.31,45.31,0,0,1,5.66.1,1.32,1.32,0,0,0,1.32-.8,1.3,1.3,0,0,0-.36-1.5c-.27-.23-2.95-2.28-12.63-2.28-1.25,0-2.59,0-4,.1a3.39,3.39,0,0,0-1.66-2.69,2.35,2.35,0,0,0-1-.24A3.6,3.6,0,0,0,528,211a8,8,0,0,1-1.29.84,40.36,40.36,0,0,1-4.35,1.68l-1.61.51a2.69,2.69,0,0,0-1.36-2.77,2.36,2.36,0,0,0-1-.21,3.84,3.84,0,0,0-2.22,1,13.45,13.45,0,0,1-1.82,1.13,43.17,43.17,0,0,1-5.09,2.2c-.8.28-1.67.57-2.57.91.2-1.32.14-2.83-1.25-3.44a2.41,2.41,0,0,0-1-.21,4.23,4.23,0,0,0-2.27.92,15.49,15.49,0,0,1-1.93,1.09l-.67.32c-1,.48-2.55,1.24-4.25,1.89a2.72,2.72,0,0,0-.47-.34l-.29-.17a33.24,33.24,0,0,0,6.66-9.21c1.2-2.35,2.34-5,.82-6.2a1.9,1.9,0,0,0-1.22-.45,3,3,0,0,0-1.71.71,9.3,9.3,0,0,1-2.82,1.38,2.22,2.22,0,0,0-.36.14,4.82,4.82,0,0,1-2,.21l-1.68,0a11.71,11.71,0,0,0-6.42,2.12c-.09-1-.19-1.58-.2-1.62-.06-.37-.62-3.67-2.84-3.92l-.27,0c-1.87,0-3.28,2.46-3.61,3.27a24.12,24.12,0,0,1-2.57,2.47l-.2.18-1.46,1.29a2.32,2.32,0,0,0-1.59-1.15h-.26c-2.24,0-3.5,3.23-3.53,3.3a29.2,29.2,0,0,1-3.29,3l-.31.26-1.3,1.08c-.2-1.07-.61-2.25-1.9-2.25a2,2,0,0,0-1.44.69c-.19.2-.39.39-.62.6a35.88,35.88,0,0,0-3,3.22c-.53.62-1.89,2.22-3.29,3.76l-1.27,1.43a1.31,1.31,0,0,0-.13,1.56,6.74,6.74,0,0,1,.82,1.84,7.17,7.17,0,0,1,.2,1.4,8.7,8.7,0,0,1-.07,1.87,30.65,30.65,0,0,1-1.09,5.4,33.69,33.69,0,0,1-2.84,6.81,1.13,1.13,0,0,0-.11.21,14.59,14.59,0,0,1-3.12,4.71,21.54,21.54,0,0,1-3.45,2.95,1.37,1.37,0,0,0-.54.48,5.74,5.74,0,0,1-2.47,1.12,1.31,1.31,0,0,0-1.35-1.11l-3.14.14a1.31,1.31,0,0,0-1,.54l-1.88,2.63a1.31,1.31,0,0,0,1,2.07l4.47.24-2.48,2a1.31,1.31,0,0,0,1,2.32l4.44-.57c1.61-.26,6.67-1.35,10.11-4.84,1.15,4,2.79,6.65,4.88,7.77l1.67.88a7.54,7.54,0,0,0,2.86,2l1.59.62a1.3,1.3,0,0,0,1.21-.13,1.31,1.31,0,0,0,.39-.41l0,0a8,8,0,0,1,1.66,2.34l2.17,4a1.31,1.31,0,0,0,1.16.69H469a1.31,1.31,0,0,0,1.12-.92l2-6.68a7.05,7.05,0,0,0,.2-.74c0-.17.08-.35.12-.47a3.31,3.31,0,0,0,.3-1.51c0-.08,0-.16,0-.24a10.13,10.13,0,0,0,6.3,2.34l1.94.1a10.75,10.75,0,0,0,6.42,1.9l4.41,1.13a1.31,1.31,0,0,0,1.63-1.15v0a6.77,6.77,0,0,0,1.76-.19l1.46-.36a1.31,1.31,0,0,0,1-1.39l-.15-1.56c0-.05,0-.18,0-.36l.1,0a1.3,1.3,0,0,0,1.62-1.35l-.25-4.18a15.7,15.7,0,0,0,.29-2.24,9.67,9.67,0,0,0-.74-4.61h.58a35.57,35.57,0,0,1,5.05.29,3.91,3.91,0,0,0,2.09.62h0a4.35,4.35,0,0,1,.56.13,3.71,3.71,0,0,0,2.51,0,2.64,2.64,0,0,0,.87-.62,2.86,2.86,0,0,0,.54-.8,3.44,3.44,0,0,0,.22-.63,3.69,3.69,0,0,0,.11-.81,6.89,6.89,0,0,0,0-.74,8,8,0,0,0-.26-1.42H511l1.16-.16,1.14-.15.65-.09a37.5,37.5,0,0,1,4.3-.46,3.42,3.42,0,0,1,.58,0l.63.12.68.17.68.2a7.53,7.53,0,0,0,2.06.42,2.26,2.26,0,0,0,1.64-.62,1.17,1.17,0,0,0,.32-.46c0-.08.08-.17.1-.22a1.16,1.16,0,0,0,.06-.17,1.26,1.26,0,0,0,0-.17,2.71,2.71,0,0,0-.09-1.17,4.94,4.94,0,0,0-.29-.74c0-.11-.1-.22-.16-.32h0l1.88-.2.17,0c.93-.1,1.91-.17,3-.21.72,0,1.24,0,1.5,0h.17a10.05,10.05,0,0,1,1.47.15l.68.09a4.65,4.65,0,0,0,1.23,0A2.45,2.45,0,0,0,536,239a2.19,2.19,0,0,0,.43-.61.7.7,0,0,0,.07-.14,2.72,2.72,0,0,0,0-1.91,9,9,0,0,0-1.19-2.2c-.55-.8-1.16-1.59-1.8-2.36l.85-.18c1.11-.16,2.45-.33,3.93-.49l1.68-.18h.16l1.18-.11a50.37,50.37,0,0,1,11.56,0,1.31,1.31,0,0,0,.75-2.49,31.89,31.89,0,0,0-10.29-2.12l-.76,0a7.73,7.73,0,0,1,1.64-1.43,2.06,2.06,0,0,0,.34-.2l.07-.05a4.46,4.46,0,0,1,.41-.31l.12-.07a6.82,6.82,0,0,1,.68-.41l.62-.33a41.1,41.1,0,0,1,10.26,1.87,1.31,1.31,0,0,0,1.11-2.35Z" transform="translate(-201.05 -128.24)"/><path class="cls-4" d="M410,257a1.31,1.31,0,0,0,.71-2l-2.16-3a3.4,3.4,0,0,1-.53-2.7c0-.39.08-.8.14-1.27a20.79,20.79,0,0,0-1.29-11.6C403,226.87,395.47,226,391.37,225.5l-.12-.12c-.27-.27-.56-.55-.77-.74a11.85,11.85,0,0,0-2.26-1.95c-.4-.3-.77-.57-1.12-.8,0-.12,0-.24,0-.35.24-.08.48-.17.73-.28a1.31,1.31,0,0,0,.78-1.12,21.68,21.68,0,0,1,1.27-6,22.15,22.15,0,0,1,1.06-2.48,1.31,1.31,0,0,0-.06-1.27,10.05,10.05,0,0,0-1.63-2,4.77,4.77,0,0,0-1.39-.92,2.2,2.2,0,0,1-.54-.31,10.63,10.63,0,0,1-2.14-3.14,1.23,1.23,0,0,0-.2-.36,3.45,3.45,0,0,1-.45-1.59,9.09,9.09,0,0,0-.89-3.12,1.47,1.47,0,0,0-1.31-.8c-1.24,0-2.64,2.08-3.53,3.68l-.69-.64-.8-.75a34.1,34.1,0,0,1-2.43-2.41,1.31,1.31,0,0,0-.33-.5,8.6,8.6,0,0,1-1.44-2c-.56-1-1.2-2-2.53-2h0c-1.07,0-1.48.87-1.67,1.73l-.22-.19c-.57-.5-2.1-1.83-2.33-2.13a1.09,1.09,0,0,0-.1-.16,17.77,17.77,0,0,1-1.52-2.7c-.62-1.28-1.2-2.49-2.7-2.49h0c-1.91.15-2.11,2.81-2.29,5.15,0,.14,0,.26,0,.38a29.13,29.13,0,0,0-8.65-2.63l-.5-.07a12.69,12.69,0,0,0-1.87-.19c-1.87,0-2.46,1-2.65,1.54-.5,1.58.43,2.45,1.33,3.3l.78.74a18.27,18.27,0,0,1,1.52,3.85,11.1,11.1,0,0,0,3.25,4.75l-.65.34-.16.09c-1.23.69-3.52,2-3,3.89a2.51,2.51,0,0,0,2.26,1.82c.3.07.65.15,1.06.28a26.57,26.57,0,0,1-5.78-1.62c-2.42-1.34-4.1-1.52-5.2-.65-1.54,1.2-.62,3.5-.07,4.86a16.87,16.87,0,0,0-2.91-.78c-1.52-.28-2.95-.52-4.28-.74a46.68,46.68,0,0,1-8-2c-.51-.22-.94-.42-1.31-.6a5.31,5.31,0,0,0-2.23-.72,2.34,2.34,0,0,0-1.47.52c-.88.7-1.09,1.93-.59,3.74-.37-.08-.75-.15-1.14-.21-1-.16-2-.3-3-.43l-1-.15-2.37-.29a28.14,28.14,0,0,1-4.95-.81l-.23-.19a4.68,4.68,0,0,0-2.79-1.41,2.14,2.14,0,0,0-1.37.49c-1.59,1.29-.74,4.28-.29,5.28.08.18.47,1,1.11,2.17l.1.18a16.93,16.93,0,0,0-1.81-.1c-6.47,0-14,2.76-17,4l-.16.06a4.37,4.37,0,0,1-.75.21c-.7.16-2.83.66-2.39,2.67s3.08,2.67,4.35,3a1,1,0,0,0,.32,0l.22,0a14.87,14.87,0,0,1,1.6,1.26c.88.75,2.09,1.77,3.88,3.15A18.1,18.1,0,0,0,303.73,235a9.66,9.66,0,0,0,1.11-.08l.43,0h.14a45.7,45.7,0,0,0-3,4.33,3.62,3.62,0,0,0,.55,4.39,1.46,1.46,0,0,0,.26.2,3.28,3.28,0,0,0,.95.56,3.42,3.42,0,0,0,3.06-.28,2.22,2.22,0,0,1,.37-.12,42.45,42.45,0,0,1,6.61-.51l4-.15V242h0l.26,1.28c.43,0,.85-.08,1.24-.14a3.51,3.51,0,0,0,1,2.34,2.36,2.36,0,0,0,.4.34,3.43,3.43,0,0,0,3.91.29,2.1,2.1,0,0,1,.36-.12,25.18,25.18,0,0,1,5-.39,15.64,15.64,0,0,0-.16,2.71l.07,2.65a14.45,14.45,0,0,0-1.71,8.39l-1,5.87a1.32,1.32,0,0,0,.29,1.05,1.3,1.3,0,0,0,1,.47h.31a9.21,9.21,0,0,0,.39,2.5l.56,1.85a1.31,1.31,0,0,0,1.48.91l1.85-.33h.09l.78-.13-.11.68a1.31,1.31,0,0,0,1.47,1.5l5.07-.7c.95.12,1.79.15,2.73.17a10.24,10.24,0,0,0,6.64-2.24l1,.09a11.74,11.74,0,0,0,1.55.09h.22a11.72,11.72,0,0,0,8-3.08,1.32,1.32,0,0,0,2.06.09,30.89,30.89,0,0,1,3-2.72l.58-.29a13.93,13.93,0,0,1-.91,2.52l-2.3,5.12a1.3,1.3,0,0,0,.23,1.42,1.32,1.32,0,0,0,1,.43,1.29,1.29,0,0,0,.43-.07l8-2.78a6.65,6.65,0,0,0,.81-.31l.59-.24a3.66,3.66,0,0,0,1.66-.77,4.18,4.18,0,0,1,1.25-.67,6.77,6.77,0,0,0,1-.38,1.24,1.24,0,0,0,.46.48,1.29,1.29,0,0,0,1.21.08l1.93-.85a8.69,8.69,0,0,0,3.21-2.42,1.3,1.3,0,0,0,1-.13l1.71-1c1.78-1.05,3.15-3,4.18-5.88a28.08,28.08,0,0,0,1.11-4.19c4.09,3.77,9.45,4.74,12.46,5h4.43a1.31,1.31,0,0,0,1.05-2.09Z" transform="translate(-201.05 -128.24)"/><path class="cls-5" d="M556.95,222a47.69,47.69,0,0,0-13.05-5h0s-.76-.25-2-.55a45.34,45.34,0,0,1,5.66.1,1.31,1.31,0,0,0,1-2.3c-.27-.23-3-2.28-12.64-2.28-1.25,0-2.59,0-4,.1a3.4,3.4,0,0,0-1.66-2.69,2.36,2.36,0,0,0-1-.24,3.61,3.61,0,0,0-2.14.95,8.05,8.05,0,0,1-1.29.84,40,40,0,0,1-4.35,1.68l-1.61.5a2.7,2.7,0,0,0-1.36-2.77,2.39,2.39,0,0,0-1-.21,3.83,3.83,0,0,0-2.22,1,13.56,13.56,0,0,1-1.82,1.13,42.7,42.7,0,0,1-5.09,2.2c-.8.28-1.67.57-2.57.91.2-1.32.14-2.83-1.25-3.44a2.38,2.38,0,0,0-1-.21,4.24,4.24,0,0,0-2.27.92,15.64,15.64,0,0,1-1.93,1.09l-.66.32c-1,.48-2.55,1.24-4.25,1.89a2.72,2.72,0,0,0-.47-.34l-.29-.17a33.4,33.4,0,0,0,6.66-9.21c1.19-2.35,2.34-5,.82-6.2a1.9,1.9,0,0,0-1.21-.45,3,3,0,0,0-1.71.71,9.33,9.33,0,0,1-2.82,1.38,2.05,2.05,0,0,0-.36.14,4.92,4.92,0,0,1-2,.21l-1.68,0a11.72,11.72,0,0,0-6.42,2.12c-.09-1-.19-1.58-.2-1.62-.06-.37-.62-3.67-2.84-3.92l-.27,0c-1.87,0-3.29,2.46-3.61,3.27a24.12,24.12,0,0,1-2.57,2.47l-.2.18-1.46,1.29a2.31,2.31,0,0,0-1.59-1.15H472c-2.25,0-3.51,3.23-3.53,3.3a28.86,28.86,0,0,1-3.29,3l-.31.26-1.29,1.08c-.2-1.07-.61-2.25-1.91-2.25a2,2,0,0,0-1.43.69c-.2.2-.39.39-.62.6a34.66,34.66,0,0,0-3,3.22c-.52.62-1.89,2.22-3.29,3.76L452,219.68a1.31,1.31,0,0,0-.13,1.57,6.82,6.82,0,0,1,.81,1.84,7.46,7.46,0,0,1,.2,1.4,8.69,8.69,0,0,1-.07,1.87,30.28,30.28,0,0,1-1.09,5.4,33.7,33.7,0,0,1-2.84,6.81,1.42,1.42,0,0,0-.11.21,14.77,14.77,0,0,1-3.12,4.71,22,22,0,0,1-3.45,2.95,1.38,1.38,0,0,0-.55.48,5.68,5.68,0,0,1-2.47,1.12,1.3,1.3,0,0,0-1.35-1.11l-3.14.14a1.31,1.31,0,0,0-1,.54l-1.88,2.63a1.31,1.31,0,0,0,1,2.07l4.47.24-2.48,2a1.31,1.31,0,0,0,1,2.32l4.44-.57c1.61-.26,6.67-1.35,10.11-4.84,1.15,4,2.79,6.65,4.88,7.77l1.67.88a7.54,7.54,0,0,0,2.87,2l1.59.62a1.3,1.3,0,0,0,1.21-.13,1.37,1.37,0,0,0,.39-.41l0,0a8.1,8.1,0,0,1,1.66,2.34l2.16,4a1.31,1.31,0,0,0,1.16.69h.13a1.31,1.31,0,0,0,1.12-.92l2-6.68a5.64,5.64,0,0,0,.2-.74l.12-.47a3.22,3.22,0,0,0,.3-1.51c0-.08,0-.16,0-.24a10.16,10.16,0,0,0,6.3,2.34l1.94.1a10.76,10.76,0,0,0,6.42,1.9l4.41,1.13a1.31,1.31,0,0,0,1.63-1.15v0a6.8,6.8,0,0,0,1.75-.19l1.46-.36a1.31,1.31,0,0,0,1-1.39l-.15-1.56c0-.05,0-.18,0-.36l.11,0a1.31,1.31,0,0,0,1.62-1.35l-.25-4.18a16.26,16.26,0,0,0,.3-2.24,9.72,9.72,0,0,0-.74-4.61h.57a35.56,35.56,0,0,1,5.05.29,3.91,3.91,0,0,0,2.09.62h0a4.48,4.48,0,0,1,.56.13,3.72,3.72,0,0,0,2.52,0,2.68,2.68,0,0,0,.87-.62,2.87,2.87,0,0,0,.54-.8,3.74,3.74,0,0,0,.21-.63,3.93,3.93,0,0,0,.11-.81,6,6,0,0,0,0-.74,7.72,7.72,0,0,0-.27-1.42h.2l1.15-.16,1.14-.15.65-.09a37.7,37.7,0,0,1,4.29-.46,3.43,3.43,0,0,1,.58,0l.63.12.68.17.68.2a7.51,7.51,0,0,0,2.06.42,2.24,2.24,0,0,0,1.64-.62,1.11,1.11,0,0,0,.33-.46c0-.08.08-.17.1-.22l.06-.17a1.31,1.31,0,0,0,0-.17,2.64,2.64,0,0,0-.09-1.17,4.51,4.51,0,0,0-.28-.74l-.16-.32h0l1.89-.2.17,0c.93-.1,1.91-.17,3-.21.72,0,1.24,0,1.5,0h.17a10.07,10.07,0,0,1,1.47.15l.68.09a4.65,4.65,0,0,0,1.23,0,2.46,2.46,0,0,0,1.39-.67,2.21,2.21,0,0,0,.44-.61l.07-.14a2.73,2.73,0,0,0,0-1.91,9,9,0,0,0-1.19-2.2c-.55-.8-1.16-1.59-1.8-2.36l.85-.18c1.12-.16,2.45-.33,3.93-.49l1.67-.18h.16l1.18-.11A50.29,50.29,0,0,1,552,230a1.31,1.31,0,0,0,.75-2.49,31.8,31.8,0,0,0-10.29-2.12l-.76,0a7.83,7.83,0,0,1,1.65-1.44,2.06,2.06,0,0,0,.34-.2l.07-.05c.14-.11.27-.22.4-.31l.12-.07a6.75,6.75,0,0,1,.68-.41l.62-.34a41.22,41.22,0,0,1,10.27,1.87,1.31,1.31,0,0,0,1.11-2.35Z" transform="translate(-201.05 -128.24)"/><path class="cls-5" d="M409.14,256.16a1.31,1.31,0,0,0,.71-2l-2.15-3a3.39,3.39,0,0,1-.53-2.7c0-.39.08-.8.13-1.27a20.77,20.77,0,0,0-1.29-11.6c-3.87-9.52-11.38-10.43-15.47-10.89l-.12-.12c-.27-.27-.56-.55-.77-.74a11.64,11.64,0,0,0-2.27-1.95c-.4-.3-.76-.56-1.12-.8,0-.12,0-.24,0-.35.24-.08.48-.17.73-.28a1.31,1.31,0,0,0,.78-1.12,21.67,21.67,0,0,1,1.27-6,22.27,22.27,0,0,1,1.06-2.49,1.31,1.31,0,0,0-.06-1.27,10.15,10.15,0,0,0-1.63-2,4.75,4.75,0,0,0-1.4-.92,2.11,2.11,0,0,1-.54-.31,10.69,10.69,0,0,1-2.13-3.14,1.22,1.22,0,0,0-.19-.36,3.42,3.42,0,0,1-.45-1.59,9.1,9.1,0,0,0-.89-3.12,1.47,1.47,0,0,0-1.32-.8c-1.24,0-2.64,2.08-3.53,3.68l-.69-.64-.8-.75c-.78-.73-2.23-2.09-2.43-2.41a1.31,1.31,0,0,0-.33-.5,8.67,8.67,0,0,1-1.44-2c-.56-1-1.2-2-2.53-2h0c-1.06,0-1.48.87-1.67,1.73l-.22-.19c-.57-.5-2.1-1.83-2.32-2.13l-.1-.16a18.14,18.14,0,0,1-1.52-2.7c-.61-1.28-1.2-2.49-2.7-2.49h0c-1.9.15-2.1,2.81-2.28,5.15,0,.14,0,.26,0,.38a29.14,29.14,0,0,0-8.65-2.63l-.49-.07a12.71,12.71,0,0,0-1.87-.19c-1.87,0-2.46,1-2.65,1.54-.5,1.58.43,2.45,1.33,3.3l.78.74a18.27,18.27,0,0,1,1.52,3.85,11.11,11.11,0,0,0,3.25,4.75l-.65.34-.16.09c-1.23.69-3.52,2-3,3.89a2.51,2.51,0,0,0,2.26,1.82c.3.07.65.15,1.06.28a26.58,26.58,0,0,1-5.77-1.62c-2.42-1.35-4.1-1.52-5.21-.65-1.54,1.2-.62,3.5-.07,4.86a17,17,0,0,0-2.91-.78q-2.27-.41-4.28-.74a46.83,46.83,0,0,1-8-2c-.51-.22-.94-.42-1.31-.6a5.31,5.31,0,0,0-2.23-.72,2.32,2.32,0,0,0-1.47.52c-.88.7-1.09,1.93-.59,3.74q-.56-.12-1.14-.21c-1-.16-2-.3-3-.43l-1-.15-2.37-.29a28.23,28.23,0,0,1-5-.81l-.23-.19a4.67,4.67,0,0,0-2.79-1.41,2.16,2.16,0,0,0-1.37.49c-1.58,1.29-.74,4.28-.29,5.28.08.18.47,1,1.11,2.17l.1.18a16.58,16.58,0,0,0-1.8-.1c-6.46,0-14,2.76-17,4l-.16.06a4.47,4.47,0,0,1-.75.21c-.7.16-2.83.66-2.39,2.67s3.07,2.67,4.34,3a1,1,0,0,0,.32,0l.23,0a14.58,14.58,0,0,1,1.59,1.26c.88.75,2.1,1.77,3.88,3.16a18.11,18.11,0,0,0,10.81,3.33,9.6,9.6,0,0,0,1.11-.08l.43,0h.14a45.43,45.43,0,0,0-3,4.33,3.62,3.62,0,0,0,.55,4.39,1.58,1.58,0,0,0,.27.2,3.28,3.28,0,0,0,.95.56,3.42,3.42,0,0,0,3.06-.28,2.12,2.12,0,0,1,.37-.12,42.28,42.28,0,0,1,6.61-.51l4-.15v-1.32h0l.27,1.28q.64,0,1.24-.13a3.51,3.51,0,0,0,1,2.34,2.26,2.26,0,0,0,.4.34,3.44,3.44,0,0,0,1,.55,3.39,3.39,0,0,0,2.95-.26,2.63,2.63,0,0,1,.37-.12,25,25,0,0,1,5-.39,15.24,15.24,0,0,0-.15,2.71l.07,2.65a14.41,14.41,0,0,0-1.71,8.39l-1,5.87a1.33,1.33,0,0,0,.28,1.05,1.31,1.31,0,0,0,1,.47h.31a9.21,9.21,0,0,0,.39,2.5l.56,1.85a1.31,1.31,0,0,0,1.48.91l1.85-.33h.09l.78-.13-.11.68a1.31,1.31,0,0,0,1.47,1.5l5.07-.7a27.41,27.41,0,0,0,2.74.18,10.26,10.26,0,0,0,6.63-2.24l1,.09a11.82,11.82,0,0,0,1.54.09H352a11.74,11.74,0,0,0,8-3.08,1.32,1.32,0,0,0,2.06.09,30.41,30.41,0,0,1,3-2.72l.58-.29a14.15,14.15,0,0,1-.91,2.52l-2.3,5.12a1.31,1.31,0,0,0,1.2,1.85,1.24,1.24,0,0,0,.43-.07l8-2.78a6.9,6.9,0,0,0,.81-.31l.59-.24a3.68,3.68,0,0,0,1.66-.77,4.19,4.19,0,0,1,1.25-.67,6.53,6.53,0,0,0,1-.38,1.27,1.27,0,0,0,.46.48,1.29,1.29,0,0,0,1.21.08l1.93-.85a8.7,8.7,0,0,0,3.21-2.42,1.31,1.31,0,0,0,1-.13l1.71-1c1.78-1.05,3.15-3,4.18-5.88a28,28,0,0,0,1.11-4.19c4.09,3.77,9.45,4.74,12.46,5h4.43a1.31,1.31,0,0,0,1.05-2.09Z" transform="translate(-201.05 -128.24)"/></g><g id="gemuze"><path class="cls-6" d="M466.9,228.62c.71.15,1.15.26,1.15.26-.25-.21-.49-.36-.73-.54a11.18,11.18,0,0,0-5.23-2.25,10.71,10.71,0,0,0-6.79,1.54l-.55.34-.12.09a12.32,12.32,0,0,0-1.26,1l-.11.26c.41-.16.82-.31,1.24-.44a32.49,32.49,0,0,0,3,2.08c.61.38,1.21.73,1.79,1l.55.3h0c.2.1.39.17.59.27s.62.29.92.41.57.21.85.31a16.55,16.55,0,0,0,4.84,1,10.87,10.87,0,0,0,3.67-.42,5.84,5.84,0,0,0,.61-.23,10.06,10.06,0,0,1-1.18,0,12,12,0,0,1-5.65-1.67l-.36-.19-.66-.44c-.26-.17-.52-.35-.76-.53l-.39-.3a19.46,19.46,0,0,1-1.88-1.73l-.41-.46-.23-.26c.45,0,.89,0,1.32,0A32.3,32.3,0,0,1,466.9,228.62Z" transform="translate(-201.05 -128.24)"/><path class="cls-7" d="M541.63,226.65l-.75,0c-.69,0-1.42,0-2.17,0,.22-.21.45-.42.64-.64,2.82-3.26,3.32-3.14,3.55-3.34h0a6.2,6.2,0,0,1,.6-.44h0a7.3,7.3,0,0,1,.7-.43c.38-.2.74-.39,1-.58a42.92,42.92,0,0,1,11,2,46.44,46.44,0,0,0-12.75-4.88l-.07,0a36.38,36.38,0,0,0-9.8-1.63c-.43,0-.82,0-1.22.07l-.64,0-.79.11-.35.07.43-.12.75-.18h0l.67-.16a50.6,50.6,0,0,1,15.22-1.18s-3.12-2.66-17-1.79c.09-1.06-.16-2.49-1-2.89-1-.48-1.64.71-3.31,1.54a41.45,41.45,0,0,1-4.55,1.76c-.82.25-1.72.54-2.68.85a8.72,8.72,0,0,0-.83.3c.11-1,.58-3.05-.36-3.48s-1.64.72-3.9,1.86a46.43,46.43,0,0,1-5.17,2.24c-.9.31-1.87.64-2.91,1a10.5,10.5,0,0,0-2.06,1c.15-.54.24-.89.25-.94.25-1,.89-3.19-.13-3.63s-1.76.7-4.1,1.79a58.35,58.35,0,0,1-5.63,2.48l-.25.09a2.18,2.18,0,0,0-.77-.78,20.84,20.84,0,0,0-2-1c4.09-2.6,7.22-8.56,8-10,.49-1,2-3.94,1.19-4.61s-1.31.9-4.57,1.88c-.27.08-.44.4-2.72.4l-1.68,0a11.05,11.05,0,0,0-7.59,3.51,29,29,0,0,0-.32-4.13c-.15-1-.73-2.71-1.71-2.82s-2.14,1.57-2.52,2.5a18,18,0,0,1-3.1,3.09c-.6.52-1.25,1.1-1.93,1.72-.26.24-.49.49-.72.73-.34-.5-.79-1.9-1.41-2-1-.12-2.07,1.56-2.44,2.52-.24.63-2.12,2.2-3.65,3.46-.67.56-1.39,1.15-2.13,1.79s-.6.32-1.08,1a1.5,1.5,0,0,0-.26-.73c-.26-1-.26-3.5-1.36-2.38a43.7,43.7,0,0,0-3.54,3.68c-.46.54-1.91,2.25-3.38,3.86L453,220.55a8.1,8.1,0,0,1,1,2.23,8.47,8.47,0,0,1,.23,1.62,10.1,10.1,0,0,1-.08,2.1l.24-.21.48-.36a9.28,9.28,0,0,1,4.12-1.7,10.65,10.65,0,0,1,3.48.11l.45.1.58.12a12.46,12.46,0,0,1,4.89,2.4c.17.13.32.26.46.39.34.29.64.59.93.87l.19.19a12.93,12.93,0,0,0,1.86,1.65,4.09,4.09,0,0,0,1.76.64l.36,0h.16a5.41,5.41,0,0,1-.66.51A4.14,4.14,0,0,1,471,232a5.41,5.41,0,0,0,3.55,1.24,5.22,5.22,0,0,0,.88-.06,6.59,6.59,0,0,0,1.29-.31s-.3.35-.82.85c-.29.29-.66.62-1.09,1-.22.19-.46.38-.72.57h0l-.29.22a12.82,12.82,0,0,1-5.57,2.45,8.82,8.82,0,0,1-1.31.08,7.19,7.19,0,0,1-1-.1h-.08a8.32,8.32,0,0,1-2.27-.73,10,10,0,0,1-1.83-1.17c.37.28.92.72,1.58,1.27.44.37.91.79,1.41,1.23l.46.42.05,0,.38.36c.42.4.84.81,1.25,1.24l.71.78.47.53.48.59c1.41,1.79,2.43,3.66,2.25,5.24A9.13,9.13,0,0,0,468,247s3,2.59,2.23,5.89l-.16-.11a9.21,9.21,0,0,0-1.46-.77,2.19,2.19,0,0,0-1-.21h-.07a4.67,4.67,0,0,1,1.14,3.64,3,3,0,0,1-.09.39c-.76,2.05-1.82,2.82-1.5,3.42l.09,2.49a6.94,6.94,0,0,0-3.89-3c-2.08-.5-2.64-3.12-2.64-3.12-.6.62-.62,2.88-.62,2.88-3.05-1.2-3.48-5.19-3.48-5.19a5.62,5.62,0,0,0-.54,2.59c-2.68-1.42-3.91-7.3-4.45-11.17-.28-2-.36-3.52-.36-3.52a10.31,10.31,0,0,1-.16,3.48,10,10,0,0,1-5.73,6.67,12.2,12.2,0,0,0,4.42-6.76,17.17,17.17,0,0,0,.52-5.6l-.24.24a16.18,16.18,0,0,1-3.39,5.13,22.58,22.58,0,0,1-3.72,3.17l-.08.14a1.14,1.14,0,0,0,0-.13c-.89,1.55-5.91,2.3-5.91,2.3.37-.59.7-1.12,1-1.64l-3.14.14L432.92,251l6.86.37a5.63,5.63,0,0,0,.78-.26c-.09.15-.19.3-.29.45a7,7,0,0,1-1.19,1.25l-3.41,2.75L440,255c.29-.06,7.13-1,10.59-5.82a7.33,7.33,0,0,0,.45-.64c.84,4.06,2.32,8.16,4.84,9.52l1.79.95V259a6.33,6.33,0,0,0,2.61,1.95l1.59.62,0-1.4c.5.49,1.32.56,2,1.11a9.82,9.82,0,0,1,2,2.73l2.17,4,2.06-6.74c.07-.14.27-1.14.36-1.31.35-.56,0-1.39.44-2.52a4.4,4.4,0,0,0,.21-1.68,8.39,8.39,0,0,0,7.23,4l2.36.12a9.26,9.26,0,0,0,6.11,1.88l4.57,1.17.12-1.35a6.21,6.21,0,0,0,2.63,0l1.46-.36-.15-1.53s-.11-1-.16-2.22l1.84.46-.26-4.36a14.43,14.43,0,0,0,.3-2.22,7.39,7.39,0,0,0-1.39-5.24l.11-.64,1.09,0,1.32,0a33.26,33.26,0,0,1,5.31.32,1.56,1.56,0,0,1,.46.17,2.63,2.63,0,0,0,1.43.41c.55,0,2,.63,2.45.29a1.2,1.2,0,0,0,.5-.34,1.58,1.58,0,0,0,.31-.46,2.17,2.17,0,0,0,.13-.4,2.35,2.35,0,0,0,.07-.55,4.09,4.09,0,0,0,0-.57,9.35,9.35,0,0,0-.78-2.75c.11,0,.23,0,.33,0s.47,0,.7,0,.46,0,.7,0H510l1.14-.16,1.11-.15.67-.09a37.7,37.7,0,0,1,4.48-.47,3.76,3.76,0,0,1,.8.05l.73.14.7.18.72.21c1.11.33,2,.58,2.44.09,0,0,0-.07.06-.11l.05-.12s0,0,0-.05a1.41,1.41,0,0,0-.06-.58,3.06,3.06,0,0,0-.21-.56c-.36-.77-.94-1.62-1.14-2.07h0c.25,0,.51,0,.78,0h.12c.15,0,.29,0,.45,0l.19,0,.38,0h0l2-.21.16,0c1.17-.12,2.24-.18,3.07-.22s1.54,0,1.56,0a16.56,16.56,0,0,1,2.46.25,3.44,3.44,0,0,0,.88,0,1.19,1.19,0,0,0,.67-.31.85.85,0,0,0,.2-.3h0a1.52,1.52,0,0,0,0-1,8,8,0,0,0-1-1.79,35.9,35.9,0,0,0-2.95-3.68l-.55-.6h.46l-.19.11.68-.11H531c.3,0,.61-.05.9-.09h.07c.38-.06.76-.13,1.14-.21l.22-.05c1.13-.16,2.47-.33,4-.5l1.81-.19h0l1.2-.11a52.62,52.62,0,0,1,11.89,0,30.7,30.7,0,0,0-9.83-2Zm-63.37,20.92a5,5,0,0,0-.15,1c-2.61-.58-4.07-1.74-4.15-3.32a3.22,3.22,0,0,1,1.91-3,2.57,2.57,0,0,1,.64-.1,1.36,1.36,0,0,1,1.15.58C478.54,243.9,478.51,246.46,478.26,247.57Zm-6.85-6.17-1-1.47a10.26,10.26,0,0,0,6.59-4.55,9.57,9.57,0,0,0,.54-.89s0,.17-.07.44C477.23,236.13,476.12,239.47,471.4,241.4ZM478,207.62A30.74,30.74,0,0,0,481,204.7c.16,2,.27,5.53-.7,8a4,4,0,0,1-2.74,2.73,2.37,2.37,0,0,1-1.6-.3,3.15,3.15,0,0,1-1.46-1.61c-.5-1.36.06-2.85,1.55-4.22C476.75,208.7,477.38,208.13,478,207.62Zm52.72,12.13c.23-.06.46-.1.7-.14a12.74,12.74,0,0,1,2.2-.19,29,29,0,0,1,6.45.87h0a25.18,25.18,0,0,0-4.35.67l-1,.23c-.95.25-1.87.54-2.73.84s-1.39.5-2,.75l-.07,0c-.31.12-.6.24-.87.36s-.67.28-1,.41l-.54.24-.56.26a5.6,5.6,0,0,1,.11-1c0-.08,0-.15,0-.22a3.84,3.84,0,0,1,1-1.83A5,5,0,0,1,530,220c.22-.08.47-.15.73-.21Zm-12.46,17.66c-.52,0-1.1.1-1.73.18s-1.5.2-2.34.33-1.89.27-3,.39a8,8,0,0,1-1.33,0h-.05l-.6-.06a4,4,0,0,1-.65-.17,3.68,3.68,0,0,1-1.8-1.18,3.36,3.36,0,0,1-.43-.66,3.54,3.54,0,0,1-.14-.33,4.54,4.54,0,0,1,.11-3.27,28.52,28.52,0,0,1,3.95.29c.3,0,.59.08.89.14l.92.17.3.08a16.22,16.22,0,0,1,3.06,1,10.69,10.69,0,0,1,1.07.56,9.3,9.3,0,0,1,2.86,2.45C519,237.38,518.64,237.39,518.23,237.41Zm-24.3,6.11h-.09a7.34,7.34,0,0,0-1.44.05,6.93,6.93,0,0,1-.85,0c-1.71,0-3.67-.66-3.89-5.64a12.53,12.53,0,0,0,1.65.15,10.32,10.32,0,0,0,2.37-.17c.14,0,.29,0,.41-.08a4.63,4.63,0,0,1,.51.54,5.3,5.3,0,0,1,.59.89,6.9,6.9,0,0,1,.34.74c.08.22.16.46.22.71a7.49,7.49,0,0,1,.19,2.35C493.94,243.25,493.94,243.37,493.93,243.52Zm-14.21-25.22a4,4,0,0,1,3.75-1.79,10.28,10.28,0,0,1,1.25.13,21.79,21.79,0,0,1,5.93,1.86,30.76,30.76,0,0,0-3.71,2c-.65.39-1.36.82-2.12,1.26-2.16,1.25-4.14.91-5-.74a3,3,0,0,1-.26-.67A2.7,2.7,0,0,1,479.71,218.29Zm7.79-4.17a2.94,2.94,0,0,1-1.86-.71,4.2,4.2,0,0,1-.61-.59l-.12-.11a1.87,1.87,0,0,1-.45-1.43,2.24,2.24,0,0,0,1.49.49,7.62,7.62,0,0,0,1.16,0,9.47,9.47,0,0,0,3.41-1.18,22.81,22.81,0,0,0,5.07-4C493.68,209.72,490.4,214.12,487.51,214.12Zm26.25,5.51-.3.71c-.1.24-.21.48-.32.71a23.38,23.38,0,0,1-1.12,2.16l0,.08a11.07,11.07,0,0,1-3.21,3.67,4.56,4.56,0,0,1-1.6.66,4.26,4.26,0,0,1-.63.07,3.59,3.59,0,0,1-.62-.05h-.14a2.2,2.2,0,0,1-.77-.33,3.37,3.37,0,0,1-1-1,4.28,4.28,0,0,1-.21-.39,4.08,4.08,0,0,1-.31-.77h0c0-.1,0-.19-.07-.27l.23-.11h0l.81-.39L505,224c.69-.36,1.45-.77,2.23-1.23,1-.56,2-1.19,3-1.9.51-.37,1-.76,1.53-1.17a24,24,0,0,0,3-2.77C514.46,217.79,514.13,218.7,513.75,219.63ZM506,242a18.27,18.27,0,0,0-2-.2l-1.11,0-2.05,0c-1,0-2.1,0-3.25-.07a8.61,8.61,0,0,1-1.09-.1c-.19,0-.35-.08-.52-.12s-.05-.28-.09-.41a9.17,9.17,0,0,0-.33-1.26h0a9.15,9.15,0,0,0-.49-1.13,8.56,8.56,0,0,0-.83-1.31,6.76,6.76,0,0,0-1.16-1.17l-.29-.22h1.88l-.51-.63c-.23-.3-.5-.66-.78-1a3.6,3.6,0,0,1,.45-.49,3,3,0,0,1,.35-.26,9.84,9.84,0,0,1,1,.15c.34.06.71.14,1.09.25.22.06.45.12.68.2a14.36,14.36,0,0,1,1.35.51c.25.11.5.21.75.34h0l.11.06c.25.13.5.26.75.41a15.39,15.39,0,0,1,2,1.39c.27.23.55.46.82.71a17.6,17.6,0,0,1,1.66,1.9,17.34,17.34,0,0,1,1.44,2.24Zm15.75-7a5.87,5.87,0,0,1-.63,0,4.49,4.49,0,0,1-.58-.13,3.33,3.33,0,0,1-1.85-1.06,3,3,0,0,1-.57-1,3.68,3.68,0,0,1-.2-1.37,5.18,5.18,0,0,1,1.16-.22,12.75,12.75,0,0,1,2.22,0l.66.07.74.09a19.88,19.88,0,0,1,2.71.63,15.71,15.71,0,0,1,1.75.63,10.73,10.73,0,0,1,2.5,1.43c.09.12.21.25.29.37a9.61,9.61,0,0,0-1,0c-1,0-2.32.16-3.77.32l-1.62.17-1.05.1A5.89,5.89,0,0,1,521.79,235Zm4.14-16.89c-.11.24-.22.46-.34.7l-.37.71a22,22,0,0,1-1.2,2c-.07.1-.14.21-.22.31a10.67,10.67,0,0,1-1.69,1.88,4.91,4.91,0,0,1-1.72,1,4.27,4.27,0,0,1-.63.13,3.63,3.63,0,0,1-.55,0,3,3,0,0,1-.5-.06,2.06,2.06,0,0,1-.89-.48,2.64,2.64,0,0,1-.25-.27c-.06-.07-.12-.12-.18-.19h0a4,4,0,0,1-.36-.61c0-.09-.09-.17-.14-.27a.35.35,0,0,0,0-.07l.39-.16.25-.11.5-.22h0l.78-.35,1.08-.55c.53-.27,1.07-.59,1.62-.93l.07,0,.64-.42.08,0c.41-.28.83-.58,1.24-.9l.53-.43a18,18,0,0,0,2.89-3C526.66,216.44,526.32,217.28,525.93,218.11Zm-26.27,3.08c-.09.23-.18.46-.28.69s-.19.48-.3.72c-.32.73-.67,1.48-1.06,2.19a19.47,19.47,0,0,1-1.47,2.34,11,11,0,0,1-1.4,1.58,6.8,6.8,0,0,1-1.36,1,4.51,4.51,0,0,1-1.69.53,4.29,4.29,0,0,1-.61,0l0-.12c0-.08-.06-.14-.1-.22a13.54,13.54,0,0,0-.69-1.29,8.2,8.2,0,0,0-.61-.86l.29-.09.45-.15c.21-.07.43-.16.67-.26l.78-.36a17.23,17.23,0,0,0,4.28-3.11l.41-.41c.27-.28.55-.59.82-.92s.44-.54.67-.83a24.81,24.81,0,0,0,2.41-3.8C500.54,218.73,500.15,219.91,499.65,221.19Zm-23.39,3.29a16.1,16.1,0,0,1,3.75.5l.63.16-.08.07-1,.94a6.16,6.16,0,0,0-4.42,3.14,3.41,3.41,0,0,1-1.94-.82,15.79,15.79,0,0,1-1.23-1.14c-.27-.27-.57-.57-.9-.87A6.69,6.69,0,0,1,476.26,224.48Zm6.36,4.36a3.1,3.1,0,0,1,.51-1,2.39,2.39,0,0,1,1.8-.84l.28,0a1.11,1.11,0,0,1,.26,0l.29.07a4.45,4.45,0,0,1,2.36,1.43,6.73,6.73,0,0,1,.86,1.18,9.57,9.57,0,0,1,.46.86c.51,1.11.85,2,1.11,2.77.12.35.23.67.34,1a5.76,5.76,0,0,0,.3.64l-.84,0c-.75,0-1.64-.12-2.57-.27-2.46-.4-5.07-1.27-5.33-3.22A5.65,5.65,0,0,1,482.62,228.84ZM472.73,210a30.56,30.56,0,0,1-.08,5,16.79,16.79,0,0,1-.49,2.71c-.58,2.14-1.66,3.91-3.63,4.3a3.13,3.13,0,0,1-3.15-1.88,3,3,0,0,1-.2-.36c-.55-1.55.12-3.23,1.85-4.72.75-.64,1.45-1.22,2.1-1.76,1.09-.9,2-1.68,2.78-2.4C472.21,210.52,472.5,210.24,472.73,210ZM461.9,222.32c-.34,0-.67,0-1,0a10.93,10.93,0,0,0-2.19.17,10.39,10.39,0,0,0-1.93.54,11.13,11.13,0,0,0-1.26.6,8.51,8.51,0,0,1,1-1.39c.71-.82,1.39-1.57,2-2.27s1.35-1.49,1.9-2.15a18.52,18.52,0,0,0,1.47-2,33,33,0,0,1,.7,5.85c0,.24,0,.49,0,.73Zm16.4,33.29a8.22,8.22,0,0,0-.37,1.53,6.06,6.06,0,0,1-4.94-3.07,11.13,11.13,0,0,0,1-4.45c2.24.62,3.66,1.5,4.26,2.61A4.16,4.16,0,0,1,478.29,255.61Zm2.23-15.87a1.75,1.75,0,0,1-.11-1.67,2.57,2.57,0,0,1,2.29-1.45c1.63,0,2.67,1.66,2.93,4.58a4.91,4.91,0,0,0-1,0C483.67,241.35,481.29,240.9,480.53,239.75Zm5.78,17.46a4.23,4.23,0,0,0-.24,2c-2.3-.17-3.84-.87-4.58-2.08-.95-1.56-.36-3.61-.09-4.36a4.56,4.56,0,0,1,4.24,2.09A3.1,3.1,0,0,1,486.3,257.2Zm.91-5.8c-3.82-.3-5.82-1.35-6.07-3.23a4.54,4.54,0,0,1,.56-3.53,2.51,2.51,0,0,1,2-.78,4.06,4.06,0,0,1,1,.12,3.75,3.75,0,0,1,2.31,1.95C487.93,247.84,487.46,250.4,487.21,251.41Zm5.62,7.72a6.94,6.94,0,0,1-3.22-1,3.15,3.15,0,0,1-1.1-2.55,2.85,2.85,0,0,1,.53-2.1.84.84,0,0,1,.51-.11,5,5,0,0,1,3.11,1.37,1.23,1.23,0,0,1,.4.79c0,1.28.09,2.81.15,3.6Zm2-7.15a3.12,3.12,0,0,0-1.12-.19c-.21,0-.41,0-.77,0a3.3,3.3,0,0,1-2.3-1.69,4.75,4.75,0,0,1-.61-4c.78-.11,2.91-.28,4.07,1.2C494.93,248.29,495.17,249.88,494.87,252Z" transform="translate(-201.05 -128.24)"/><path class="cls-8" d="M465.53,242.46a4.77,4.77,0,0,0-.43-.88l-.06-.1a9.39,9.39,0,0,0-1.09-1.41l-.44-.46c-.16-.17-.33-.33-.51-.49a27.73,27.73,0,0,0-3.16-2.42c-.45-.3-.87-.57-1.26-.81l-.59-.35-.54-.31L457,235c-.55.4-.73,1.55-.65,3a21.29,21.29,0,0,0,1,5.06,18.3,18.3,0,0,0,1.86,4.14c2.45,3.84,6,9.33,6,9.33a23.23,23.23,0,0,0-1-6.91c-.27-1-.57-1.89-.88-2.71a36.08,36.08,0,0,0-1.71-3.95,8.36,8.36,0,0,1,2.71-.58A5,5,0,0,1,465.53,242.46Z" transform="translate(-201.05 -128.24)"/><path class="cls-9" d="M389.86,228.07c7.8,4.92,11.73,15.27,11.73,15.27C402.14,229.93,389.86,228.07,389.86,228.07Z" transform="translate(-201.05 -128.24)"/><path class="cls-10" d="M383.59,225a36,36,0,0,0-8.87.9,8.44,8.44,0,0,0-4.55,2.49,19.4,19.4,0,0,1,6.51-.91c-2.16.49-3.92,2.77-6.68,4.57a12.91,12.91,0,0,1-3.38,1.57A12.67,12.67,0,0,1,365,234a9.74,9.74,0,0,1-1.37.14,9.26,9.26,0,0,0,3.5,1.36,12.41,12.41,0,0,0,1.5.21c3.21.24,7.89-.6,13.72-4.88,0,0,3.55-3.32,1.3-5.83Z" transform="translate(-201.05 -128.24)"/><path class="cls-11" d="M407.56,256.22a7.8,7.8,0,0,1-2-2,6.47,6.47,0,0,0,1,.28l2.18.41-.59-.83-.57-.79-1-1.4a4.66,4.66,0,0,1-.77-3.58c0-.4.08-.82.14-1.31a19.41,19.41,0,0,0-1.21-10.94c-3.61-8.86-10.41-9.63-14.48-10.09l-.39,0-.27-.28c-.31-.31-.65-.63-1-1a8.4,8.4,0,0,0,.62,1.79c3.7.44,9.86.81,13.11,8.93,3.33,8.32-1,11.57,1.92,15.65a5.93,5.93,0,0,1-3.56-2.3,6.86,6.86,0,0,0,.65,3.28,8.5,8.5,0,0,0,2.77,3.32s-6.91-.6-11.11-4.9a10.83,10.83,0,0,1-3.09-6.57c0-.28,0-.55,0-.82s0-.61,0-.91c0,.21,0,.46,0,.75-.58-9.45-3.69-14.37-3.69-14.37A60.85,60.85,0,0,1,379,260l0-.06-.06.25c-.1.17-.2.38-.29.55,5.06-14.77,3.17-20.69,3.17-20.69-.21,10.52-6.43,20.67-9,24.43l0,0c-.73.06-1.19.12-1.36.5L369.09,267a9.17,9.17,0,0,0,0-6.15l0-.09a4.17,4.17,0,0,1-.06-2.93,7.1,7.1,0,0,1,1.12-2.15c-1-.13-3.24,1.51-3.24,1.51a21.2,21.2,0,0,1,1-5.61,10.2,10.2,0,0,1,1-1.41c.23-.27.41-.45.41-.45a2.7,2.7,0,0,0-.76.15,15.17,15.17,0,0,1,1-1.86,12.84,12.84,0,0,1,1.79-2.29,11.28,11.28,0,0,1,7.19-3.34s-2.51-1.36-6.77.39c-.46.19-.94.41-1.44.67s-1,.59-1.57.95c.37-.55.76-1.09,1.16-1.62a58.14,58.14,0,0,1,6.4-6.94l.76-.69c-.29.28-.58.48-.87.72a10.37,10.37,0,0,1-9.17,2.34,16.42,16.42,0,0,1-4.67-1.88,22.21,22.21,0,0,1-2.16-1.42,22.47,22.47,0,0,1-1.8-1.48c-.51-.46-.81-.77-.81-.77a9,9,0,0,0,2,.3,7.22,7.22,0,0,0,3-.48,6.34,6.34,0,0,0,2.08-1.3,4.86,4.86,0,0,1-2.43-.43,6.74,6.74,0,0,1-1.55-.93,7.6,7.6,0,0,0,2.12-.42,7.69,7.69,0,0,0,1.89-1,27.33,27.33,0,0,1,6.37-4c.75-.31,1.57-.62,2.52-.92a23.89,23.89,0,0,1,3.06-.76,18.76,18.76,0,0,1,2.48-.27,12,12,0,0,1,7.93,2.44,9.79,9.79,0,0,1-.51-1.94,16.86,16.86,0,0,0-1.66-1.13,6.16,6.16,0,0,0-.13-1.92c0-.06,0-.12,0-.17a5.33,5.33,0,0,0,1.68-.46,23.82,23.82,0,0,1,2.46-9,9.08,9.08,0,0,0-1.44-1.79c-.67-.66-1.33-.67-1.92-1.22a11.61,11.61,0,0,1-2.46-3.66c-.95-1.25-.43-2.93-1.46-4.89-.44-.83-3.09,3.62-3.37,4.51a9.29,9.29,0,0,0-.82-.91c-.63-.61-1.23-1.16-1.78-1.68a17.88,17.88,0,0,1-2.87-3c-1.64-1.56-2.06-3.74-3-3.68-.68,0-.48,2.43-.86,3l-.31-.29c-.57-.53-1.13-1-1.63-1.46a19.16,19.16,0,0,1-2.63-2.53c-1.77-2.51-2.07-4.7-3.06-4.63s-1,3.9-1.17,4.95c0,0-.1.61-.17,1.48-3.35-2.47-8.57-3.33-9.88-3.52-1.06-.13-3.28-.65-3.61.38s.41,1.32,1.89,2.83a16.51,16.51,0,0,1,1.74,4.26,10.3,10.3,0,0,0,4.57,5.4,26.47,26.47,0,0,0-2.58,1.23c-.89.5-2.8,1.5-2.53,2.51s1.07.59,3.33,1.51a22.17,22.17,0,0,1,3.52,1.9l1.89,1.12.48.25c0,.08,0,.18-.08.26-1.6-.31-3.11-.56-4.51-.8-4.06-.69-7.73-1.58-9-2.28s-3-1.39-3.77-.76,0,2.43.36,3.38c0,.1.4,1,1,2.25.23.47.49,1,.79,1.54a8.08,8.08,0,0,0-1.13-.91,12.91,12.91,0,0,0-5.07-1.94c-1.51-.27-2.93-.52-4.26-.74a47.31,47.31,0,0,1-8.31-2.07c-2.1-.89-2.89-1.61-3.69-1s-.1,2.66.29,3.61c0,.05.22.5.55,1.2a13.34,13.34,0,0,0-3.58-1c-1.41-.22-2.74-.4-4-.57-3.18-.43-7.11-.7-8-1.38s-2-1.76-2.74-1.11-.38,2.72,0,3.67c0,.07.42.9,1.09,2.13.41.75.93,1.64,1.54,2.6-.3-.09-.64-.12-.95-.2a16.26,16.26,0,0,0-3.45-.38c-7.28,0-16.24,3.76-16.62,3.91-1,.43-2.61.33-2.37,1.42s1.77,1.59,3.36,2h.29a1.32,1.32,0,0,1,.6.19c.83.46,2.12,1.8,5.64,4.53a16.77,16.77,0,0,0,10,3c.5,0,1-.08,1.43-.12a13.93,13.93,0,0,0,3.14-.61c.2-.07.46-.11.65-.19l-.38.41a43.35,43.35,0,0,0-5.07,6.67,2.32,2.32,0,0,0,.32,2.78,1.91,1.91,0,0,0,.2.14,2,2,0,0,0,.59.35,2.07,2.07,0,0,0,1.9-.17,2.83,2.83,0,0,1,.73-.28,40.78,40.78,0,0,1,6.88-.54l3.89-.15c.1,0,.18,0,.28,0a13.71,13.71,0,0,0,3.31-.63c-.17.27-.28.43-.29.46a2.31,2.31,0,0,0,.24,2.79,2.18,2.18,0,0,0,.26.21,2.09,2.09,0,0,0,.6.35,2.07,2.07,0,0,0,1.81-.15,2.67,2.67,0,0,1,.7-.26,33.81,33.81,0,0,1,7-.45c0,.09,0,.19-.05.29a13.9,13.9,0,0,0-.38,3.71l.09,3.06c-1.31,1.92-1.92,4.61-1.71,8.1l-1,6,1.64,0a8.73,8.73,0,0,0,.28,3.4l.56,1.85,1.84-.33s1.25-.24,2.66-.39l-.38,2.42,5.24-.73a20.47,20.47,0,0,0,2.72.19,8.67,8.67,0,0,0,6.2-2.29l1.63.16A11.7,11.7,0,0,0,352,269a10.1,10.1,0,0,0,8.69-4.6l.23-.38.18,2.45a26.63,26.63,0,0,1,3.43-3.06c.66-.32,1.51-.74,2.43-1.24a4.44,4.44,0,0,1,.17,1.23,12,12,0,0,1-1.17,4l-2.29,5.12,8.05-2.8c.18,0,1.32-.57,1.54-.59.82-.05,1.38-1,2.78-1.41a5.35,5.35,0,0,0,2.4-1.48l.1,1.72,1.93-.85a7.93,7.93,0,0,0,3.79-3.66l.29,1.18,1.7-1c1.63-1,2.78-2.85,3.62-5.19a31.78,31.78,0,0,0,1.47-6.63,14.56,14.56,0,0,0,1.17,1.34c3.57,3.69,8.69,4.93,12.16,5.22h4.43ZM358,237.11a15,15,0,0,1-2.61,6.58c-1.11-1.12-2.06-4.16-1.68-6.54.19-1.17.45-2.34.69-3.33l.93,1A22.05,22.05,0,0,0,358,237.11ZM355,231.78a.15.15,0,0,0,0,0l.13.08Zm12.76-12.12,0-.15.15.08Zm12.9-14.1,0,0a11.67,11.67,0,0,0,3.13,6.4c1.75,1.71.86,2.5.91,3.44-.55.55.35,1.45-.37,1.45a1.72,1.72,0,0,1-.51-.07C379.88,215.77,380.25,208.74,380.64,205.56ZM380.25,218a2.58,2.58,0,0,1,.48,1.42,3.29,3.29,0,0,1,0,.7,12.72,12.72,0,0,0-2.48-.29l-.26,0a17.31,17.31,0,0,0-5.14.82c-.21.06-.39.14-.58.21a24.85,24.85,0,0,0-3.21-1.25c1.81-1.14,5.23-3,8-3A3.79,3.79,0,0,1,380.25,218ZM371,199.85a28.73,28.73,0,0,0,2.83,2.85l1.73,1.65c1.37,1.32,1.86,2.75,1.37,4a2.74,2.74,0,0,1-2.94,1.77C370.37,209.2,370.66,202.84,371,199.85Zm.63,12.49a2.73,2.73,0,0,1-.12,2.58c-.87,1.56-2.77,1.85-4.8.6-.72-.44-1.39-.87-2-1.26a29.34,29.34,0,0,0-3.45-2,18.3,18.3,0,0,1,6.64-1.69C369.69,210.55,371,211.15,371.63,212.34Zm-9-17.45a31.82,31.82,0,0,0,2.57,2.41c.49.44,1,.9,1.61,1.42,1.27,1.16,1.74,2.42,1.33,3.56a2.49,2.49,0,0,1-2.19,1.66,1.61,1.61,0,0,1-.36,0C362.41,203.18,362.43,197.64,362.64,194.89Zm-10,2.58a20.6,20.6,0,0,0-1.34-3.5c2.89.62,7.4,2,8.53,4.36a3,3,0,0,1-.22,2.84,1.52,1.52,0,0,1-1.46.83C356.14,202,353.37,199.71,352.67,197.47Zm5.08,11a25.86,25.86,0,0,0-3-1.67,15.59,15.59,0,0,1,6-1.68,3.37,3.37,0,0,1,3.16,1.5,2.41,2.41,0,0,1-.07,2.32c-.74,1.38-2.39,1.67-4.23.61Zm-9.82,7.34c3,3,7.14,6.55,11.22,7.88a8.72,8.72,0,0,0,4.74.33,5.11,5.11,0,0,0,.54-.15,6.34,6.34,0,0,0,1-.42,6.12,6.12,0,0,1-1.91,2.72,5.17,5.17,0,0,1-1.7.9c-7.09,2.1-13-6.34-15.95-11.71a45.47,45.47,0,0,1-2-4.16A55.79,55.79,0,0,0,347.93,215.81Zm-.79,15a2.26,2.26,0,0,1,1.67,1.26,4.2,4.2,0,0,1-.48,3.71c-.47.9-1.52,1.35-3.13,1.35a15.13,15.13,0,0,1-3.88-.63c-.76-.21-1.46-.43-2-.62a11.45,11.45,0,0,0,1.09-1.2c.28-.33.62-.73,1-1.15s.56-.61.91-.94A5.41,5.41,0,0,1,347.14,230.83Zm-18.53-14.15c4.85,4.18,11.75,9.38,14.38,7.7a5.1,5.1,0,0,1-2.81,2.25c-6.45,1.93-11.88-5.58-14.68-10.56a45.17,45.17,0,0,1-2-4.09S325.65,214.14,328.61,216.68Zm-22.87-4s2.61,2.23,5.95,4.5c3.49,2.38,7.76,4.8,10.67,4.75a3.27,3.27,0,0,0,2.07-.69,5,5,0,0,1-.19,1,4.75,4.75,0,0,1-2.94,3.23c-5.65,1.89-10.69-4.42-13.41-8.83A40.68,40.68,0,0,1,305.74,212.69ZM294.2,228a38.31,38.31,0,0,0-4.88-3.41,5.31,5.31,0,0,0-3.11-.78,40,40,0,0,1,7.18-.32c5.91.13,13.67,1.11,16.05,4.8C307,231.55,298.37,231.26,294.2,228Zm28.06,9.17c-.11.08-.19.18-.31.26a9,9,0,0,1-4.86,1.45c-6.18.3-10.7.13-12.55,1.32,0,0,.19-.33.51-.83l0,.2s11.83-10,18-9A4.85,4.85,0,0,1,322.26,237.18Zm1.21,3.51-.68.08c.78-.87,1.84-2,3.11-3.13,3.41-3.11,8.34-6.57,13.66-7,.11.09.21.2.32.3l-4.75,6.55a10.17,10.17,0,0,0-3,3.38C328.19,240.84,325.44,240.53,323.47,240.69Zm15.6,23.48c-.52,1.28-1.24,2.09-1.89,2.12-1.63.11-3.56.41-4.46.56a8.91,8.91,0,0,1,.85-5c.63-1.24,2.36-1.79,3.81-1.79a2.83,2.83,0,0,1,2,.6C339.74,261.07,339.7,262.61,339.08,264.16Zm-.65-8.63a5.2,5.2,0,0,1-3.56,2.21,1.35,1.35,0,0,1-.38,0,5.72,5.72,0,0,0-1.52-.24,3,3,0,0,0-1,.14c0-2.72.49-4.71,1.6-5.93a4.56,4.56,0,0,1,3.52-1.4,8.26,8.26,0,0,1,2.48.4A6.19,6.19,0,0,1,338.42,255.53Zm2.78-13.09c-.8,3.41-2.28,3.88-3.37,3.88a5.77,5.77,0,0,1-1.45-.22,7.51,7.51,0,0,0-1.36-.25,7.08,7.08,0,0,1,.44-2.25l.08-.21a5.34,5.34,0,0,1,1.85-2.37,8.78,8.78,0,0,0,3.12.68c.32,0,.62,0,.87,0C341.32,242,341.26,242.2,341.2,242.44Zm6.09,23.66c-.91,1.28-2.63,1.85-5.24,1.64a4.4,4.4,0,0,0,0-2,2.89,2.89,0,0,1,.77-2,4.89,4.89,0,0,1,5-1.8A5.69,5.69,0,0,1,347.29,266.1Zm2.29-11.92c-.67,2.87-3.2,3.47-5.22,3.47h0a10,10,0,0,1-2-.19c0-4.1.91-6.29,2.74-6.7s3.19-.18,3.88.67A4,4,0,0,1,349.58,254.18Zm2.05-9.42c-.86,1.25-3.26,1.69-5,1.69a9.32,9.32,0,0,1-1.18-.08,6.28,6.28,0,0,0-1.08-.11H344c.49-3.83,2-6,4.2-6a4,4,0,0,1,3.58,2.32A2.3,2.3,0,0,1,351.64,244.77Zm.62,20.74a7.59,7.59,0,0,0-.15-1.69,4.5,4.5,0,0,1,.49-3.57c.82-1.07,2.45-1.77,4.89-2.06a12.08,12.08,0,0,0,.45,4.87A6.48,6.48,0,0,1,352.26,265.51Zm.52-9.45s.59,0,.24-1.94.3-7.84,4.3-6.64C360,248.29,362.61,255,352.77,256.05Zm11,4.92a11.94,11.94,0,0,0-2.07,1.12c-.2-3.64.07-9.86,2.66-11.62a6.82,6.82,0,0,0-.13,2.56l.4,2.49.07-.07a8,8,0,0,0,.05,4l.25.88Zm.34-13.84a7.41,7.41,0,0,1-5.54-1.81,2.22,2.22,0,0,1-.18-.2l.14-.1a19.45,19.45,0,0,1,2.3-1.27,10.22,10.22,0,0,1,3.43-.94l.38,0a4.06,4.06,0,0,1,3,1.19,25.72,25.72,0,0,0-1.89,2.94C365.21,247,364.67,247.08,364.11,247.13Z" transform="translate(-201.05 -128.24)"/></g><g id="Layer_9" data-name="Layer 9"><path class="cls-12" d="M424.72,151.6c-6.48-4.58-17.83-11.08-31.44-13.06,0,0,12,4.77,15.83,9.94,0,0-19.17-14.25-45.5-13.61,0,0,13.48,2.35,21.79,6.15a30.26,30.26,0,0,1,9.72,6.61c-3-1.89-31.22-20.79-63.13-4.61,0,0,32-8,66.7,18.53,3,1.26,5.3,1.18,9,1.08a81.52,81.52,0,0,0,13.28-1.8C424.57,160,428.26,154.17,424.72,151.6Zm-21.13,9.14c-25.43-21.2-56.76-20.53-53.44-20.75,23.78-1.58,48,11.78,53.15,17.85C405.75,160.72,403.59,160.74,403.59,160.74Z" transform="translate(-201.05 -128.24)"/><path class="cls-13" d="M422.24,148.84c-6.49-4.58-17.84-11.09-31.44-13.06,0,0,12,4.77,15.84,9.94,0,0-19.17-14.24-45.5-13.61,0,0,13.48,2.35,21.8,6.15a30.2,30.2,0,0,1,9.72,6.61c-3-1.89-31.22-20.79-63.14-4.61,0,0,32-8,66.71,18.53,3,1.26,5.3,1.18,9,1.09a81.7,81.7,0,0,0,13.29-1.8C422.1,157.24,425.78,151.41,422.24,148.84Z" transform="translate(-201.05 -128.24)"/><path class="cls-14" d="M422.24,148.84c-6.49-4.58-17.84-11.09-31.44-13.06,0,0,12,4.77,15.84,9.94,0,0-19.17-14.24-45.5-13.61,0,0,13.48,2.35,21.8,6.15a30.2,30.2,0,0,1,9.72,6.61c-3-1.89-31.22-20.79-63.14-4.61,0,0,32-8,66.71,18.53,3,1.26,5.3,1.18,9,1.09a81.7,81.7,0,0,0,13.29-1.8C422.1,157.24,425.78,151.41,422.24,148.84ZM401.11,158c-25.43-21.2-56.76-20.53-53.44-20.74,23.78-1.59,48,11.78,53.16,17.85C403.27,158,401.11,158,401.11,158Z" transform="translate(-201.05 -128.24)"/></g><g id="Layer_7" data-name="Layer 7"><path class="cls-15" d="M422.24,148.84c-6.49-4.58-17.84-11.09-31.44-13.06,0,0,12,4.77,15.84,9.94,0,0-19.17-14.24-45.5-13.61,0,0,13.48,2.35,21.8,6.15a30.2,30.2,0,0,1,9.72,6.61c-3-1.89-31.22-20.79-63.14-4.61,0,0,32-8,66.71,18.53,3,1.26,5.3,1.18,9,1.09a81.7,81.7,0,0,0,13.29-1.8C422.1,157.24,425.78,151.41,422.24,148.84ZM401.11,158c-25.43-21.2-56.76-20.53-53.44-20.74,23.78-1.59,48,11.78,53.16,17.85C403.27,158,401.11,158,401.11,158Z" transform="translate(-201.05 -128.24)"/></g><g id="Layer_8" data-name="Layer 8"><path class="cls-16" d="M375.58,174.42a9.84,9.84,0,0,0,.2,4.52c.68,2.35,2.17,3.93,3.89,4.14l1.36.16-.54-1.3a1.79,1.79,0,0,1,0-1.36c.57-1.46,2.58-2.94,4.43-4-1.7,3.27-.7,5.58-.65,5.69l.51,1.12.81-.91c3.13-3.6,6.31-5.42,9.43-5.42,4.15,0,7.13,3.21,8.16,4.49.27.38.53.76.8,1.11l.91,1.34v-.18a37,37,0,0,0,8.6,7.69c0,1.86-.91,4.19-4.53,6.47,0,0,2,2.2,4.9.14,0,0,.4,3.71-2.66,4.25,0,0,3.37,1.42,5.88-.35,1.62-1.14,1.69.91,1.15,2.7a4.36,4.36,0,0,0-4.14,1.53,74.94,74.94,0,0,0-11.62-.85v0c-3.89.17-8.15,4.17-10.28,10.1-2.34,6.48-1.3,13,2.27,15.28v0c.88.62,19.89,14.13,40.87,14.13a46.22,46.22,0,0,0,6.52-.46l.27,0,.23-.19c9.55-7.62,7.77-19.36,7.7-19.85l0-.3-.2-.23a40.8,40.8,0,0,0-6.89-6.52c0-.05,0-.09,0-.13.27-2.73-1.76-5.41-4.82-6.82-4.77-2.2-5-4-5-4,2.13,1.11,3.45.28,3.45.28-3.18-2.6-3.05-11.4-3.05-11.4C438.89,213,450,211.58,450,211.58c-6.55-5-6.37-10.58-6.37-10.58,8.75,11.68,22.56,5.22,22.56,5.22-10.87-.14-20.23-6.52-12.87-7.68,7.82-1.23,8.09-5.48,8.09-5.48-6,3.7-18.52-.34-18.48-10.82,0-12.93,31.42-15.4,31.42-15.4-18-2-25.65,2.25-24.37,1s2.27-2,11.3-4.84c16.47-5.17,38.82-8.52,38.82-8.52-27.29-6.33-46.08,2.29-42.29.68,9-3.89,12.41-4.25,27.41-6.12a504.29,504.29,0,0,1,50.68-3.37c-51-12.42-76,.23-72.83-1.46,4.45-2.39,10.62-5,26.94-6a268.5,268.5,0,0,1,57.06,2.55c-54.41-18-97-5.1-114.91,7.08-7.19,4.89-9,7.12-9,7.12s-6.44,2.25-8.86,2.9a19.86,19.86,0,0,1-4.79.91c-.72-.13-1.47-.27-2.23-.44a16.19,16.19,0,0,0-3.26-.34,17.17,17.17,0,0,0-6.46,1.3,5.85,5.85,0,0,0-.51-4.42l-.68-1.14-.68,1.12s-2,3.19-8.64,6.45c-3.67,1.82-4.43,2.93-5.39,4.34a15.58,15.58,0,0,1-3.23,3.63,10.77,10.77,0,0,0-1.48,1.67A9.79,9.79,0,0,0,375.58,174.42Z" transform="translate(-201.05 -128.24)"/><path class="cls-17" d="M372.95,172a9.78,9.78,0,0,0,.2,4.52c.68,2.35,2.16,3.93,3.89,4.14l1.35.16-.53-1.3a1.76,1.76,0,0,1,0-1.36c.57-1.46,2.58-2.94,4.43-4.05-1.7,3.27-.7,5.58-.65,5.7l.51,1.12L383,180c3.13-3.6,6.31-5.42,9.43-5.42,4.15,0,7.13,3.21,8.16,4.49.26.38.53.76.8,1.11l.9,1.34,0-.18a37,37,0,0,0,8.59,7.69c0,1.86-.91,4.19-4.53,6.48,0,0,2,2.19,4.91.13,0,0,.39,3.72-2.66,4.25,0,0,3.37,1.43,5.88-.35,1.62-1.14,1.69.91,1.14,2.7a4.38,4.38,0,0,0-4.14,1.53,74.7,74.7,0,0,0-11.62-.85v0c-3.89.17-8.15,4.17-10.28,10.1-2.34,6.48-1.29,13,2.27,15.28v0c.88.62,19.88,14.13,40.87,14.13a46.3,46.3,0,0,0,6.52-.46l.27,0,.23-.18c9.55-7.62,7.77-19.36,7.69-19.85l0-.3-.2-.23a41,41,0,0,0-6.89-6.52.69.69,0,0,0,0-.13c.27-2.74-1.77-5.41-4.83-6.82-4.77-2.2-5-4-5-4a3.58,3.58,0,0,0,3.45.28c-3.18-2.61-3.05-11.4-3.05-11.4,5.45,17.72,16.59,16.34,16.59,16.34-6.55-5-6.37-10.58-6.37-10.58,8.76,11.68,22.56,5.22,22.56,5.22-10.87-.14-20.23-6.53-12.87-7.68,7.82-1.24,8.09-5.49,8.09-5.49-6,3.7-18.51-.34-18.48-10.82,0-12.93,31.43-15.4,31.43-15.4-18-2-25.66,2.25-24.38,1s2.27-2,11.3-4.84c16.47-5.17,38.82-8.53,38.82-8.53-27.29-6.33-46.08,2.3-42.3.68,9-3.9,12.41-4.25,27.41-6.12a505.34,505.34,0,0,1,50.68-3.37c-51-12.42-76,.23-72.84-1.46,4.45-2.39,10.62-5,26.95-6a268.55,268.55,0,0,1,57.05,2.55c-54.41-18-97-5.1-114.91,7.08-7.19,4.88-9,7.12-9,7.12s-6.44,2.26-8.86,2.9a20,20,0,0,1-4.79.91c-.72-.13-1.47-.27-2.24-.44a16.06,16.06,0,0,0-3.26-.34,17.16,17.16,0,0,0-6.47,1.3,5.86,5.86,0,0,0-.51-4.42l-.68-1.14-.68,1.12s-2,3.19-8.64,6.45c-3.68,1.82-4.43,2.93-5.39,4.34a15.55,15.55,0,0,1-3.23,3.63,10.41,10.41,0,0,0-1.49,1.66A9.87,9.87,0,0,0,372.95,172Z" transform="translate(-201.05 -128.24)"/></g><g id="Eagle"><path class="cls-18" d="M372.95,172a9.78,9.78,0,0,0,.2,4.52c.68,2.35,2.16,3.93,3.89,4.14l1.35.16-.53-1.3a1.76,1.76,0,0,1,0-1.36c.57-1.46,2.58-2.94,4.43-4.05-1.7,3.27-.7,5.58-.65,5.7l.51,1.12L383,180c3.13-3.6,6.31-5.42,9.43-5.42,4.15,0,7.13,3.21,8.16,4.49.26.38.53.76.8,1.11l.9,1.34,0-.18a37,37,0,0,0,8.59,7.69c0,1.86-.91,4.19-4.53,6.48,0,0,2,2.19,4.91.13,0,0,.39,3.72-2.66,4.25,0,0,3.37,1.43,5.88-.35,1.62-1.14,1.69.91,1.14,2.7a4.38,4.38,0,0,0-4.14,1.53,74.7,74.7,0,0,0-11.62-.85v0c-3.89.17-8.15,4.17-10.28,10.1-2.34,6.48-1.29,13,2.27,15.28v0c.88.62,19.88,14.13,40.87,14.13a46.3,46.3,0,0,0,6.52-.46l.27,0,.23-.18c9.55-7.62,7.77-19.36,7.69-19.85l0-.3-.2-.23a41,41,0,0,0-6.89-6.52.69.69,0,0,0,0-.13c.27-2.74-1.77-5.41-4.83-6.82-4.77-2.2-5-4-5-4a3.58,3.58,0,0,0,3.45.28c-3.18-2.61-3.05-11.4-3.05-11.4,5.45,17.72,16.59,16.34,16.59,16.34-6.55-5-6.37-10.58-6.37-10.58,8.76,11.68,22.56,5.22,22.56,5.22-10.87-.14-20.23-6.53-12.87-7.68,7.82-1.24,8.09-5.49,8.09-5.49-6,3.7-18.51-.34-18.48-10.82,0-12.93,31.43-15.4,31.43-15.4-18-2-25.66,2.25-24.38,1s2.27-2,11.3-4.84c16.47-5.17,38.82-8.53,38.82-8.53-27.29-6.33-46.08,2.3-42.3.68,9-3.9,12.41-4.25,27.41-6.12a505.34,505.34,0,0,1,50.68-3.37c-51-12.42-76,.23-72.84-1.46,4.45-2.39,10.62-5,26.95-6a268.55,268.55,0,0,1,57.05,2.55c-54.41-18-97-5.1-114.91,7.08-7.19,4.88-9,7.12-9,7.12s-6.44,2.26-8.86,2.9a20,20,0,0,1-4.79.91c-.72-.13-1.47-.27-2.24-.44a16.06,16.06,0,0,0-3.26-.34,17.16,17.16,0,0,0-6.47,1.3,5.86,5.86,0,0,0-.51-4.42l-.68-1.14-.68,1.12s-2,3.19-8.64,6.45c-3.68,1.82-4.43,2.93-5.39,4.34a15.55,15.55,0,0,1-3.23,3.63,10.41,10.41,0,0,0-1.49,1.66A9.87,9.87,0,0,0,372.95,172Zm3-4.5c1.36-1.54,3.81-2.47,4.4-3.36.88-1.3,1.47-2.17,4.79-3.81a27.51,27.51,0,0,0,8.39-5.91c.21,1,.84,3.48-.75,4.87a19.72,19.72,0,0,1,8.66-2.11,14.21,14.21,0,0,1,2.94.31c3.08.66,5.37-.3,7.64-.3.52,0,9.68-2.79,12.81-3.67,8.08-10.58,44.48-28.48,92.88-20.41-60.55-8.07-96.28,26.61-91.64,35.45,0,0-2.81.46-4.07-7.08a7.6,7.6,0,0,1,.42-3.66c-2.43,1.8-7,3.4-16.41,3.34h-.7l-1.26,0,.37.55a40,40,0,0,0,7.9,3.62c-1,.54-3.53.94-8.44,1.21-.8,0-2.5-2.67-2.5-2.67-2.92,1.4-6.5,2.28-8.24,3.29-8.23,3.68-12.27,1.92-13.76,2a7.69,7.69,0,0,0-1.26.11c-3.7,2.65-3.05,6.61-2.54,8.59a6,6,0,0,1-1.89-6.26A9.41,9.41,0,0,1,376,167.52Zm50.86,33.82a4.14,4.14,0,0,1-2,5.61c-.9-.31-1.79-.59-2.7-.85a1.56,1.56,0,0,0,0-.26,4.5,4.5,0,0,0-3.82-3.5s-.17-.29.5-2.31a1.39,1.39,0,0,1,.5-.56,11,11,0,0,0,5.71-6.12,20.22,20.22,0,0,1-2.21,8.33A4.3,4.3,0,0,0,426.84,201.34Zm-23-22.75c-.45-.48,0-.46.48,0,8,7.64,20.69,7.79,20.69,7.79a56.5,56.5,0,0,1-2.49,6.47,12.61,12.61,0,0,1-3.38,4.21c1.12-1.34,2.53-5.52,2-7.59C419.65,189.07,413,188.52,403.83,178.59Zm13.61,28.62,1.68.42a5.4,5.4,0,0,1,.79,2.12c-1.68-.51-3.27-.92-4.73-1.23C415.06,208.05,415.18,207.16,417.44,207.21Zm-11.14-1.76c1.23.1,2.6.27,4.08.46a13.21,13.21,0,0,1,.48,1.86,37.2,37.2,0,0,0-5.13-.4c-.07-.2-.16-.38-.24-.56A1,1,0,0,1,406.3,205.45Zm-1.66-.14,0,.08a.34.34,0,0,0-.06-.08Zm-11.76,9c-2.07,5.71-1.72,11.15.64,12.76a2.87,2.87,0,0,1-.7-.13c-3.21-1.24-4-7.23-1.82-13.36s6.62-10.1,9.84-8.87a3.5,3.5,0,0,1,.6.38C398.63,204.73,394.93,208.62,392.88,214.33Zm14.42,10.55c-1.67-.81-2.93-1.49-3.77-2,.29-.49.56-1,.83-1.52.65-.77,1.68-1.12,3.56-.62l1.2.41A33.83,33.83,0,0,1,407.3,224.88Zm2.59-5.68-4.12-1.46c.14-.49.26-1,.35-1.46.24-.53.78-1,2.55-.78l2.07.47A24.91,24.91,0,0,1,409.88,219.2Zm1.18-5.28c-1.92-.48-3.46-.83-4.52-1.07a17.3,17.3,0,0,0,0-1.75c.05-.7.34-1.37,1.63-1.45l1.46.13c.25.06.49.08.79.16s.57.13.75.16A21.83,21.83,0,0,1,411.07,213.91Zm22,19.4a120.12,120.12,0,0,1-21.77-6.62c.6-1.17,1.22-2.49,1.85-4a.72.72,0,0,0,.06-.14l21.67,7.27A32.18,32.18,0,0,1,433,233.31Zm2.49-5.16-21.62-7.55a30.27,30.27,0,0,0,1-3.6,159.19,159.19,0,0,1,21.84,7.24A26.24,26.24,0,0,1,435.53,228.15Zm9.85-5.52a3.25,3.25,0,0,0,0,.32c-1.53-1.11-3-2.18-4.49-3.15,0-.58,0-1.14-.07-1.67A38.75,38.75,0,0,1,445.38,222.63Zm-4.52-1c1.21.81,2.45,1.65,3.67,2.56a7.11,7.11,0,0,1,.73,2.35c-1.55-.84-3.11-1.67-4.73-2.43A24.89,24.89,0,0,0,440.86,221.64Zm-.68,4.13c1,.47,1.95,1,2.93,1.51a4.69,4.69,0,0,1,1.35,3.95.14.14,0,0,0,0,.06l-5.4-1.89A31.45,31.45,0,0,0,440.18,225.77Zm-1.76,5.2,2.8.92a2.49,2.49,0,0,1,1.41,3.14c-2-.29-3.85-.61-5.66-1C437.44,233.18,437.93,232.13,438.42,231Zm-2.87-16.62c.29.18.58.34.86.53l0,0a12.21,12.21,0,0,1,.61,2.47c-.84-.5-1.67-1-2.5-1.42A6.26,6.26,0,0,0,435.54,214.35Zm-2.34,2.79c1.31.67,2.66,1.41,4,2.21a19.14,19.14,0,0,1-.19,3.18A166.49,166.49,0,0,0,415.24,215a22.77,22.77,0,0,0,.19-2.71c.68-.74,3.26-.69,7.2.36a73,73,0,0,1,7.5,3,11.11,11.11,0,0,1-1.85,2A6,6,0,0,0,433.2,217.14Zm-1.87-5.1a4.31,4.31,0,0,1-.32,2.08,76,76,0,0,0-10.05-4,10,10,0,0,0,.88-1.72A62,62,0,0,1,431.33,212Zm15.72-18.7s-15.76,2-9.29-16.2C437.77,177.13,434.31,188.39,447.05,193.33Z" transform="translate(-201.05 -128.24)"/><path class="cls-19" d="M386.8,165.29a.77.77,0,0,1,.76.64c2.92-1.86,2.32-5.45,2.32-5.45-1.27,2-4,3.55-4.93,4.36-1.65,1.44.49,2,.49,2a7.57,7.57,0,0,0,.83-.24A.7.7,0,0,1,386,166,.76.76,0,0,1,386.8,165.29Z" transform="translate(-201.05 -128.24)"/></g><g id="logo_wit_contour" data-name="logo wit contour"><path class="cls-20" d="M377.83,312.43c1,8.93,6.46,15.91,17.65,13.45a32,32,0,0,0,13.42-8.09c4.57-4.35,8.65-10.83,11.9-19.8,3.07-10.15,4.75-29.11-11.7-26a38.27,38.27,0,0,0-7,6.13c.5,1.28-.3,2.66.21,3.93,2.37-1.7,4.23-1.62,5.41-.13,1.85,2,2.16,7.23.44,13.62-.17.53-.34,1.05-.51,1.76-3.09,11.15-8.17,21.51-12.81,19.67-3.93-1.66-2.36-15.48,1.21-28.53,1.86-6.84,5-16.14,5-16.18a60.89,60.89,0,0,0,6.74-1.77,43.07,43.07,0,0,0,17.87-13.54,12.84,12.84,0,0,0,1.21-1.57c.6-.95,1.21-1.89,1.81-2.84,7.12-11.53,7-22,.05-24.32a7.52,7.52,0,0,0-1.81-.46l-1.21-.09c-5.45-.24-12.38,1.69-19.61,8.66-5,5-14.46,18.55-20.61,35.91-3.66,10.31-7.29,23.66-7.84,33.16A41.23,41.23,0,0,0,377.83,312.43Zm28.29-53.37c1.35-2.24,3-5.3,5.42-9.12,7.08-11,11.78-14.55,14.19-14.39,3,.23,2.86,6.61,0,12.67a26.08,26.08,0,0,1-3.18,5.23c-6,7.86-11.36,11.24-14.65,12.53s-4.93,1.79-6.25,1.85C402.08,266.86,404.48,262.25,406.13,259.06Zm23.17,25.75c-4.54,12.52-4,24.34,3.32,28.64a11.49,11.49,0,0,0,8.91,1.16c5.48-1.17,9.87-6.45,12.87-10.56a14,14,0,0,0,1.26-2s-1.45,7.75,5.45,8.21c6.14.4,12.74-6.46,12.74-6.44l2.21-7s-8,7.2-7.3,0c2.59-9.26,5.92-19.75,8.56-28.93a17.36,17.36,0,0,1,2.43-5.75c1.2-1.24,1.74-2.35,0-2.3-3-.33-11,1.15-13,1.51s-2.41,3.28-3.52,5.81C443.57,255,431.48,278.76,429.29,284.81ZM446.68,281a26.82,26.82,0,0,1,7.54-10c2.06-1.58,4.11-2.3,5.84-.84,2.2,1.65,1.56,4.21.43,8.71-1.29,4.68-2.41,8.34-5.28,16.51-.22.56-.47,1.18-.79,1.83-2.54,5.13-7.4,9.87-11.15,6.82C439.06,300.83,443.53,287.85,446.68,281ZM245.36,345.8A257.29,257.29,0,0,0,263.52,314a49.65,49.65,0,0,1,10.66,1c-2.51,11.43-5,22.55-7.66,34-3.26,10.29-7.52,20.72-16.35,27.51,0,0,4.33,2,13.44-6,.92-.79,7.4-8.27,7.41-7.69,0,0,5.28,5.84,19.08-1.1,16.19-8.15,30-41.67,35-61.35,0,.13,1.91-1.23,1.53.36-1.63,6.74-6.92,26.37-7.9,32.74-.31,1.81,0,10.43,7.86,10.82,4.85.44,9.59-5.09,13.64-12.29l-1.09-6.74c-3.61,6.08-6,5-5-.18,0,0,4.74-22.21,6.43-27.47,1.93-4.81,3.69-7.56,4.68-8.56,1.24-1.25,2.45-4-6.08-1.57s-13.45,3.86-22.11,7.09c-3.15,1.3-.36,2.11.12,3.14s1.42,8.2-6.68,24.53c-3.69,6.65-9.79,21.43-18.22,26.11-4.78,2.65-7.47-.35-6.24-5.37,1.6-7.28,3.18-14.9,4.75-22.07a98.75,98.75,0,0,1,9.33,5.48l2.49-9.57a59.29,59.29,0,0,0-9.54-4.63A372.57,372.57,0,0,1,302.4,273c2.67-7.11,5.69-11.37,8.19-13.9,1.15-1.15,1-2.91-1.07-2.52-3,.54-6.68,1.94-10.3,2.85-8.08,2-25.57,8.06-27.28,8.76-3.74,1.54-.1,2.85.3,3.71a2.9,2.9,0,0,1,.32,1.28,20.18,20.18,0,0,1-.28,6.76c-2.58,10.75-7,18.31-12.81,27.69-5.5.9-13.65,2.63-25.64,8.6a53.67,53.67,0,0,0-24.46,24.39c-4.8,9.92-8.68,31.94,8.76,28.89,7.25-2.3,16.28-8.66,23.37-18.33A47.75,47.75,0,0,0,245.36,345.8Zm28.45-51.62c2.83-6.49,6.89-15.53,8.18-19.41-.32,7.77-4.4,22.46-6.48,31.87-.05.24-.1.49-.15.73a45.78,45.78,0,0,0-7.85-.18C269.2,304.07,271.79,298.82,273.81,294.19Zm-49.6,52.67c-2.66-4.59.7-15.57,12-23.36,12.44-8.59,19.84-8.58,19.84-8.58a225.24,225.24,0,0,1-12.32,19.2c-1.24,1.71-2.47,3.25-3.56,4.79C236.44,343.51,228.59,353.85,224.21,346.85ZM368,274a17.23,17.23,0,0,0,1.72-1c9-6.06,6.73-9.84,6.21-10.75s-3-2.6-7.94,0a17.56,17.56,0,0,0-2.8,1.8c-8.08,6-5.27,9.8-5.28,9.79S361.94,277.24,368,274Zm-11.94,18c.63.91-.3,4.05-.3,4.06q-3.56,13.05-7.09,26.22s-1.85,6.53-.29,10.66c1.39,3.42,5.7,4,8.3,3.08,3.56-1.27,9.39-5.15,12-9l.27-6.83c-1.46,2-4.24,5.59-5.18,3.81-.78-1.61.31-6.35.31-6.35q2-7.63,4-15.22c1-3.9,2.07-7.79,3.1-11.68,0,0,2.33-7.63.15-10a3.79,3.79,0,0,0-3.27-1.19c-6.33.32-12.19,6.55-15.06,9.47.1,1.06-1.32,4.31-1.21,5.37C351.73,294.45,355.43,291.11,356.06,292Zm189,4.76c6.35.4,14.49-2.43,20.8-10.35a13.87,13.87,0,0,0,2.7-4.63c4-10.29.49-14.29-1.79-15.79a5.88,5.88,0,0,0-1.38-.76,18.36,18.36,0,0,1,2-1.44,55.28,55.28,0,0,1,7.87-4.1c3-1.32,4.33,1.21,3.08,4.14-2.14,6.21-3.42,10.75-5.53,17-2.08,4.5-.72,12.33,5.65,11.7,6.53-.58,8.9-1.84,15.61-6.18-.29-1.41-.57-2.81-.85-4.22-3.23,2.57-7.58,3-5.93-2,2.79-8.92,4.76-16.09,7.61-24.91.41-1.85,6.07-12.7-8.54-6.95-6.9,3-16.24,7.82-19.23,10s-4.64,3.25-7.24,5.23c0,0,5,5.53,2.05,16.43-4,14.23-14.62,14.51-11.81,6.23,2.85-9.35,9.34-31,9.91-32.29s2.42-3-2.22-2.91a115,115,0,0,0-12.39,1.15c-3.53.71.95,2.33.1,4.87-2.7,8.08-6,18.58-8.09,25C536.06,286.05,535,296.14,545.09,296.78ZM650,243c-2.07,0-12.31.27-14.27.34s-2,2.22-2.63,3.76c-.82-2.52-7.34-6.3-17.19-2-8.5,3.72-14.55,12.66-17.65,23.32-2.87,9.8.3,20.59,13.41,18.55-23.54,4.37-39.43,18.13-50.69,26.17-9.68,6.91-19.77,5.2-20.55-1.8l.31-1.56-2.68.27q-23.52,2.38-47,6.12c.43-1.55.76-2.74,1.29-4.65,4-14.33,7.29-24.69,11.35-39,1.87-6.85,6.59-11.31,10.06-10.89,5.86.76,6.22,10.87,4.36,16.18-2.79,8.29-7.59,14.63-11.46,12.79-1.87-.94.23-4,.23-4l-4.43,1.23c-1.48,3.24-4.71,9.05.54,13s13.71.79,18.87-3.92c5.67-5.18,9.43-12.84,11.16-22.43,2.1-12-4-23.53-13.3-22.14-7,.92-12.73,6.47-12.73,6.47s1.6-3.13-3.69-2.43c-7,.93-12,1.67-12,1.68-2.66,1.34,1.36,2.32.55,4.9l-2.68,9.1c-3.91,15.05-8.07,26.23-11.87,41.3-.27,1.18-.83,3.22-1.47,5.32-77.65,13.91-154.16,39.29-223,77-2.4,12-3.61,18-6,30a609.34,609.34,0,0,1,226.34-98.84c-2,5-3.44,8.49-6.1,12a37.1,37.1,0,0,1-11,10.34c-4.15,2.55,9.66,2.22,15.88-1.06C482,342.6,482,337.58,482,337.57a10.83,10.83,0,0,0,7.35,2.11c10.1-1.78-2.56-4.49-1.39-11.15.37-1.58.72-3.16,1.08-4.74q22.75-4.06,45.59-6.18c-.91,3.91-1.13,8.62,1.89,11.32,5.07,4.65,17.52,3.57,29.62-5.65s24.84-28,52.1-35.63c.46-1.47,1.22-5,1.67-6.46,0,0-7,5-7.19-6.38-.21-9.39,8.87-25.76,13.58-26.13,6-.47,3.77,6.49,3.77,6.49q-3.64,11.07-7.25,22.23c-3.12,9.1,3.43,11.66,10.7,10.1,5.3-1.14,7.62-3.57,9.95-5.54l2.09-6.11c-4.39,2.72-10,5.07-8.46.57,2.43-7.63,7.72-21.2,10.16-28.75C647.93,245.67,652.7,243,650,243Z" transform="translate(-201.05 -128.24)"/></g><g id="logo_shaduw" data-name="logo shaduw"><path class="cls-21" d="M398.29,331.28a32,32,0,0,0,13.42-8.09c4.08-3.88,7.76-9.47,10.81-17a25.69,25.69,0,0,1-.43-3c0-.43,0-.91,0-1.35-3.2,8.26-7.22,14.83-12,19.34a35.31,35.31,0,0,1-14.8,8.93l-.12,0-.12,0a21.87,21.87,0,0,1-6.47.49A15.39,15.39,0,0,0,398.29,331.28ZM425,285.23c-.06-.22-.11-.45-.17-.67,0,.36,0,.71,0,1.08C424.94,285.5,425,285.37,425,285.23Zm19.19,17.51a.72.72,0,0,0,.24.13c.48-5.24,3-12.09,5-16.45a26.81,26.81,0,0,1,7.39-9.84,6.21,6.21,0,0,0,.25-2.51L457,274l-.13-.14a3.63,3.63,0,0,0-1.72.91,23.53,23.53,0,0,0-6.63,8.81c-5,10.74-5.49,18.28-4.37,19.15Zm-3.05,16.2a17.43,17.43,0,0,1-4.8.46,11.91,11.91,0,0,0,8,.63c4.06-.86,7.52-4,10.25-7.21a8.31,8.31,0,0,1-1.41-1.4c-.11-.15-.18-.3-.29-.45C449.78,314.58,445.91,317.93,441.16,318.94Zm32.3-7c.38-1.44.75-2.89,1.13-4.27-2.1,2-7.75,6.87-13.84,7a6.17,6.17,0,0,0,3.15,1C467.38,315.93,471,313.84,473.46,312ZM301.8,331.08c.86-1.63,1.69-3.22,2.4-4.64l.31-.61.93-3.55c-.39-.24-.89-.53-1.46-.84-.86,3.28-1.92,7.35-2.46,9.46Zm38-13.59c1.32-5.85,2.78-12,3.57-14.42a35.91,35.91,0,0,1,4-7.73,12.63,12.63,0,0,1,.71-3.26,4.29,4.29,0,0,0-1.16-.09c-.16.19-.29.38-.47.56-.56.56-2.1,2.84-3.93,7.39-1.08,3.41-3.5,14.14-5,21l2.25-3.79Zm31-9.6q1.54-5.84,3.09-11.67s2.13-7,.38-9.68a28.45,28.45,0,0,1-1.15,6.26l-3.1,11.67s-2.36,9-3.45,13.06l2.61-3.49C369.75,312,370.29,309.93,370.84,307.89Zm-2.92-29.67h0l.52-.22C368.24,278.1,368.1,278.14,367.92,278.22Zm131,25.52a11.91,11.91,0,0,1-1.33-1.53c-1,3.55-2.08,7.22-3.19,11.22l1.8-.27C497.08,309.87,498,306.75,498.88,303.73ZM226.29,346.87c.71-5.32,4.71-12.44,12.71-18a66.25,66.25,0,0,1,6.87-4.2c.79-1.24,1.55-2.44,2.23-3.52a57,57,0,0,0-11.17,6.14c-8.71,6-11.75,13.65-11.45,17.48a3.73,3.73,0,0,0,.42,1.57A3.52,3.52,0,0,0,226.29,346.87ZM395.4,314.76c0-5.56,1.43-13.35,3.49-20.92.54-2,1.18-4.16,1.83-6.27l-1,.7-.59-1.5c-.37,1.26-.73,2.51-1.05,3.68-3,11-3.61,18.58-3.31,22.37a7.26,7.26,0,0,0,.41,2.08A1.27,1.27,0,0,0,395.4,314.76Zm94.69,15.52a1.86,1.86,0,0,0,0,.42,3.74,3.74,0,0,0,1,2c.25-1.15.51-2.29.77-3.43q18.9-3.37,37.87-5.39c0-.44,0-.89,0-1.35-13,1.31-26.15,3.09-39.15,5.36C490.37,329,490.12,330.14,490.08,330.27ZM506.46,278c1.41-5.18,4.45-9,7.36-10.35-.09-.18-.17-.37-.26-.53a1.82,1.82,0,0,0-1.34-1c-1.22-.15-4.92,2.58-6.56,8.55l-3.16,10.76,2-.54C505.12,282.61,505.78,280.36,506.46,278ZM343,337.46l-.58-3.55-.51.9c-5.41,9.61-10.74,14.16-16.27,13.93a8.29,8.29,0,0,0,3.72,1C334.24,350.19,339,344.65,343,337.46Zm-78.38,36.69c-4,3.54-7.34,5.39-10,6.28-.56.5-1.1,1-1.7,1.5,0,0,4.33,2,13.44-6,.7-.59,4.59-5,6.44-6.89a14,14,0,0,1-2.59-.94c-.82.88-1.78,1.93-2.5,2.72C265.84,373,265.07,373.79,264.64,374.15Zm94.82-32.7c3.55-1.27,9.38-5.16,12-9l.27-6.83-.88,1.16-.1,2.48-.52.76c-2.94,4.38-9.32,8.71-13.55,10.21a10.65,10.65,0,0,1-3.31.58A7.6,7.6,0,0,0,359.47,341.46Zm54.88-86.1a64.05,64.05,0,0,1,8.74-11.27,13.37,13.37,0,0,0,.47-3.66c-1.52,1-4.85,3.83-10.38,12.41l-3.83,6.4-1.49,2.55c0,.08-.44.86-.87,1.68a25.7,25.7,0,0,0,4.13-2.75C412,259.14,413.09,257.36,414.35,255.35ZM289.2,346.94c1.38-6.34,2.74-12.85,4.1-19.1l-1.34-.77c-.69,3.19-3.83,17.81-3.85,17.9a5.69,5.69,0,0,0-.19,1.8,1.33,1.33,0,0,0,.13.53A3.42,3.42,0,0,0,289.2,346.94Zm3.71,20.23c8.23-4.14,15.84-14.85,22-27a16.47,16.47,0,0,1-.56-3.14c0-.19,0-.33,0-.51-6.52,13-14.74,24.64-23.89,29.26-6.32,3.18-11.18,3.94-14.77,3.69C278.25,370.74,283.66,371.83,292.9,367.17Zm352.57-83-.31.85-1.38,1.19a21.72,21.72,0,0,1-10.65,5.61,19.66,19.66,0,0,1-5.31.45c2.16,1.19,5.27,1.32,8.54.62,5.31-1.14,7.63-3.57,10-5.54l2.09-6.11c-.78.49-1.6,1-2.41,1.39Zm-340.26-5.75c2.66-7.11,5.68-11.37,8.18-13.89,1.14-1.15,1-2.91-1.07-2.52l-.1,0a6.16,6.16,0,0,1-.43.54c-2,2-4.83,5.78-7.42,12.67a354,354,0,0,0-8.68,36.17l1.34.6C299.28,300.66,301.83,289.6,305.21,278.43Zm161.36,54.15a604,604,0,0,0-216.32,95.07l-.7,3.49a609.81,609.81,0,0,1,216-96.54C465.9,333.94,466.24,333.27,466.57,332.58ZM248.16,351.21a256,256,0,0,0,18.15-31.77l2.68.07.14-.62c-1.51-.18-3.12-.32-4.77-.37A261.06,261.06,0,0,1,247,348.74l-.32.48a45.78,45.78,0,0,1-3.72,5.18C236,363.79,226.68,371,218,373.79l-.21.07-.22,0a19.51,19.51,0,0,1-4.49.29c1.92,1,4.49,1.36,7.84.76,7.25-2.3,16.27-8.67,23.37-18.34A47.28,47.28,0,0,0,248.16,351.21Zm124.36-72.79c9-6.07,6.73-9.83,6.21-10.75a1.6,1.6,0,0,0-.22-.28c-.62,2.74-2.86,5.95-8.1,9.48l-.25.15-.58.35-.67.35a7.08,7.08,0,0,1,2.74,1.23A9.88,9.88,0,0,1,372.51,278.42Zm43.57-8.08a11.93,11.93,0,0,1,2.57,1.26,45.07,45.07,0,0,0,9.85-9.24,13.32,13.32,0,0,0,1.21-1.57l1.81-2.85c4.84-7.82,6.33-15.14,4.62-19.77,0,5.07-2,11.08-5.8,17.27l-1.86,2.93-.3.43-1.26,1.58.23-.26A47.76,47.76,0,0,1,416.08,270.34Zm203.77,21.1-1.81.5c-19.3,5.39-31.21,16.79-40.79,26A125.24,125.24,0,0,1,567,327c-8.4,6.41-17.8,9.54-25.12,8.92,6,2.58,16.67.69,27.08-7.25,12.09-9.23,24.84-28,52.09-35.63.18-.61.43-1.57.68-2.59a9.14,9.14,0,0,1-1.39-1.09C620.37,289.45,619.86,291.44,619.86,291.44Zm32.95-43c-.41,0-1.15,0-2.08,0l-.14.14a11.17,11.17,0,0,0-1.33,1.4c-1.2,3.71-3,8.65-4.91,13.89-1.52,4.17-3.07,8.41-4.28,11.94.71-.35,1.52-.79,2.44-1.35,2.58-7.24,5.85-15.87,7.62-21.34C650.74,251.08,655.51,248.47,652.81,248.4ZM472.24,352.26a37.76,37.76,0,0,1-14.2,3.17c-.41,1.7,11.07,1.12,16.59-1.79,7.68-4.25,9.58-8.14,10-9.8a14.09,14.09,0,0,1-2.07-.61C481,345.85,478,349.07,472.24,352.26Zm10.28-87a9.56,9.56,0,0,0-1.23,0l-.07.08a14.72,14.72,0,0,0-1.9,4.67l-3.81,12.85s-3.12,10.57-4.09,13.86c.44-.32.89-.67,1.36-1.08l.94-.82c2.13-7.19,4.45-14.68,6.4-21.45a17.34,17.34,0,0,1,2.43-5.75C483.75,266.37,484.29,265.26,482.52,265.3Zm6.25,78.75a9.51,9.51,0,0,1-1.85.07,9.31,9.31,0,0,0,5.27,1c5.13-.91,4.38-2.05,2.56-3.84C493.55,343,491.11,343.65,488.77,344.06Zm90.78-47.29c-.59.08-1.19.15-1.85.21a3,3,0,0,1-.35,0,4.82,4.82,0,0,0,.94.56Zm-56.64,3.76c-4.37,4-10.35,6.78-15.79,6.61,5.26,2.68,12.78-.43,17.51-4.76a33,33,0,0,0,7.79-11.2c-.05-.41-.12-.82-.15-1.22a18.93,18.93,0,0,1,.13-3.93A37,37,0,0,1,522.9,300.52Zm45.8-8.67.05-.07a13.7,13.7,0,0,1-.86-3c-.2.27-.35.54-.57.81-6.19,7.75-15,12.07-23.48,11.56a10.63,10.63,0,0,0,4,1C554.25,302.6,562.38,299.78,568.7,291.85Zm-5-34.66c-.13-.38-.62-.66-1.77-.74-.13.36-.44,1.29-.85,2.62l.29-.22ZM570.56,284a.84.84,0,0,0-.06.18l.07-.2A0,0,0,0,0,570.56,284Zm2.44-16.4,1-3.05c-1.65.77-3,1.46-4.12,2.07a10,10,0,0,1,1.31,2C571.74,268.29,572.33,267.95,573,267.59Zm19.06,11.66c.3-1,.6-2,.88-2.94a26.36,26.36,0,0,1,1.09-7.63,52.15,52.15,0,0,1,4.79-11.41c.43-1.69.57-3.51-.58-4.48a23.71,23.71,0,0,1-1,3.72l-.24.7-.07.23-4.19,13.69-3,9.94a4.1,4.1,0,0,0,.44-.27Zm33.84-23.88a6.43,6.43,0,0,0,.24-2,1.13,1.13,0,0,0-.05-.27,2.65,2.65,0,0,0-.5,0c-2.95,1.08-10.87,14.79-10.7,22.83,0,.45,0,.84.06,1.21a7.48,7.48,0,0,0,.62,2.84c0-7.35,5.37-18.68,10-23.53Zm-90.85,20.91c-.06.33-.14.65-.21,1,.36-1.09.8-2.46,1.28-3.94a25.37,25.37,0,0,0-.68-4.26A30.22,30.22,0,0,1,535.06,276.28Zm23.44-3c0-.06,0-.12,0-.18a14,14,0,0,0-.71-3.43c-1,3.25-2,6.61-2.87,9.48,0,0-2.77,9.13-2.8,9.23a5.57,5.57,0,0,0-.25,1,7.73,7.73,0,0,0,2.38-2.06C555.51,283.2,557.05,278.07,558.5,273.33Z" transform="translate(-201.05 -128.24)"/></g><g id="logo"><path class="cls-22" d="M377.83,312.43c1,8.93,6.46,15.91,17.65,13.45a32,32,0,0,0,13.42-8.09c4.57-4.35,8.65-10.83,11.9-19.8,3.07-10.15,4.75-29.11-11.7-26a38.27,38.27,0,0,0-7,6.13c.5,1.28-.3,2.66.21,3.93,2.37-1.7,4.23-1.62,5.41-.13,1.85,2,2.16,7.23.44,13.62-.17.53-.34,1.05-.51,1.76-3.09,11.15-8.17,21.51-12.81,19.67-3.93-1.66-2.36-15.48,1.21-28.53,1.86-6.84,5-16.14,5-16.18a60.89,60.89,0,0,0,6.74-1.77,43.07,43.07,0,0,0,17.87-13.54,12.84,12.84,0,0,0,1.21-1.57c.6-.95,1.21-1.89,1.81-2.84,7.12-11.53,7-22,.05-24.32a7.52,7.52,0,0,0-1.81-.46l-1.21-.09c-5.45-.24-12.38,1.69-19.61,8.66-5,5-14.46,18.55-20.61,35.91-3.66,10.31-7.29,23.66-7.84,33.16A41.23,41.23,0,0,0,377.83,312.43Zm28.29-53.37c1.35-2.24,3-5.3,5.42-9.12,7.08-11,11.78-14.55,14.19-14.39,3,.23,2.86,6.61,0,12.67a26.08,26.08,0,0,1-3.18,5.23c-6,7.86-11.36,11.24-14.65,12.53s-4.93,1.79-6.25,1.85C402.08,266.86,404.48,262.25,406.13,259.06Zm23.17,25.75c-4.54,12.52-4,24.34,3.32,28.64a11.49,11.49,0,0,0,8.91,1.16c5.48-1.17,9.87-6.45,12.87-10.56a14,14,0,0,0,1.26-2s-1.45,7.75,5.45,8.21c6.14.4,12.74-6.46,12.74-6.44l2.21-7s-8,7.2-7.3,0c2.59-9.26,5.92-19.75,8.56-28.93a17.36,17.36,0,0,1,2.43-5.75c1.2-1.24,1.74-2.35,0-2.3-3-.33-11,1.15-13,1.51s-2.41,3.28-3.52,5.81C443.57,255,431.48,278.76,429.29,284.81ZM446.68,281a26.82,26.82,0,0,1,7.54-10c2.06-1.58,4.11-2.3,5.84-.84,2.2,1.65,1.56,4.21.43,8.71-1.29,4.68-2.41,8.34-5.28,16.51-.22.56-.47,1.18-.79,1.83-2.54,5.13-7.4,9.87-11.15,6.82C439.06,300.83,443.53,287.85,446.68,281ZM245.36,345.8A257.29,257.29,0,0,0,263.52,314a49.65,49.65,0,0,1,10.66,1c-2.51,11.43-5,22.55-7.66,34-3.26,10.29-7.52,20.72-16.35,27.51,0,0,4.33,2,13.44-6,.92-.79,7.4-8.27,7.41-7.69,0,0,5.28,5.84,19.08-1.1,16.19-8.15,30-41.67,35-61.35,0,.13,1.91-1.23,1.53.36-1.63,6.74-6.92,26.37-7.9,32.74-.31,1.81,0,10.43,7.86,10.82,4.85.44,9.59-5.09,13.64-12.29l-1.09-6.74c-3.61,6.08-6,5-5-.18,0,0,4.74-22.21,6.43-27.47,1.93-4.81,3.69-7.56,4.68-8.56,1.24-1.25,2.45-4-6.08-1.57s-13.45,3.86-22.11,7.09c-3.15,1.3-.36,2.11.12,3.14s1.42,8.2-6.68,24.53c-3.69,6.65-9.79,21.43-18.22,26.11-4.78,2.65-7.47-.35-6.24-5.37,1.6-7.28,3.18-14.9,4.75-22.07a98.75,98.75,0,0,1,9.33,5.48l2.49-9.57a59.29,59.29,0,0,0-9.54-4.63A372.57,372.57,0,0,1,302.4,273c2.67-7.11,5.69-11.37,8.19-13.9,1.15-1.15,1-2.91-1.07-2.52-3,.54-6.68,1.94-10.3,2.85-8.08,2-25.57,8.06-27.28,8.76-3.74,1.54-.1,2.85.3,3.71a2.9,2.9,0,0,1,.32,1.28,20.18,20.18,0,0,1-.28,6.76c-2.58,10.75-7,18.31-12.81,27.69-5.5.9-13.65,2.63-25.64,8.6a53.67,53.67,0,0,0-24.46,24.39c-4.8,9.92-8.68,31.94,8.76,28.89,7.25-2.3,16.28-8.66,23.37-18.33A47.75,47.75,0,0,0,245.36,345.8Zm28.45-51.62c2.83-6.49,6.89-15.53,8.18-19.41-.32,7.77-4.4,22.46-6.48,31.87-.05.24-.1.49-.15.73a45.78,45.78,0,0,0-7.85-.18C269.2,304.07,271.79,298.82,273.81,294.19Zm-49.6,52.67c-2.66-4.59.7-15.57,12-23.36,12.44-8.59,19.84-8.58,19.84-8.58a225.24,225.24,0,0,1-12.32,19.2c-1.24,1.71-2.47,3.25-3.56,4.79C236.44,343.51,228.59,353.85,224.21,346.85ZM368,274a17.23,17.23,0,0,0,1.72-1c9-6.06,6.73-9.84,6.21-10.75s-3-2.6-7.94,0a17.56,17.56,0,0,0-2.8,1.8c-8.08,6-5.27,9.8-5.28,9.79S361.94,277.24,368,274Zm-11.94,18c.63.91-.3,4.05-.3,4.06q-3.56,13.05-7.09,26.22s-1.85,6.53-.29,10.66c1.39,3.42,5.7,4,8.3,3.08,3.56-1.27,9.39-5.15,12-9l.27-6.83c-1.46,2-4.24,5.59-5.18,3.81-.78-1.61.31-6.35.31-6.35q2-7.63,4-15.22c1-3.9,2.07-7.79,3.1-11.68,0,0,2.33-7.63.15-10a3.79,3.79,0,0,0-3.27-1.19c-6.33.32-12.19,6.55-15.06,9.47.1,1.06-1.32,4.31-1.21,5.37C351.73,294.45,355.43,291.11,356.06,292Zm189,4.76c6.35.4,14.49-2.43,20.8-10.35a13.87,13.87,0,0,0,2.7-4.63c4-10.29.49-14.29-1.79-15.79a5.88,5.88,0,0,0-1.38-.76,18.36,18.36,0,0,1,2-1.44,55.28,55.28,0,0,1,7.87-4.1c3-1.32,4.33,1.21,3.08,4.14-2.14,6.21-3.42,10.75-5.53,17-2.08,4.5-.72,12.33,5.65,11.7,6.53-.58,8.9-1.84,15.61-6.18-.29-1.41-.57-2.81-.85-4.22-3.23,2.57-7.58,3-5.93-2,2.79-8.92,4.76-16.09,7.61-24.91.41-1.85,6.07-12.7-8.54-6.95-6.9,3-16.24,7.82-19.23,10s-4.64,3.25-7.24,5.23c0,0,5,5.53,2.05,16.43-4,14.23-14.62,14.51-11.81,6.23,2.85-9.35,9.34-31,9.91-32.29s2.42-3-2.22-2.91a115,115,0,0,0-12.39,1.15c-3.53.71.95,2.33.1,4.87-2.7,8.08-6,18.58-8.09,25C536.06,286.05,535,296.14,545.09,296.78ZM650,243c-2.07,0-12.31.27-14.27.34s-2,2.22-2.63,3.76c-.82-2.52-7.34-6.3-17.19-2-8.5,3.72-14.55,12.66-17.65,23.32-2.87,9.8.3,20.59,13.41,18.55-23.54,4.37-39.43,18.13-50.69,26.17-9.68,6.91-19.77,5.2-20.55-1.8l.31-1.56-2.68.27q-23.52,2.38-47,6.12c.43-1.55.76-2.74,1.29-4.65,4-14.33,7.29-24.69,11.35-39,1.87-6.85,6.59-11.31,10.06-10.89,5.86.76,6.22,10.87,4.36,16.18-2.79,8.29-7.59,14.63-11.46,12.79-1.87-.94.23-4,.23-4l-4.43,1.23c-1.48,3.24-4.71,9.05.54,13s13.71.79,18.87-3.92c5.67-5.18,9.43-12.84,11.16-22.43,2.1-12-4-23.53-13.3-22.14-7,.92-12.73,6.47-12.73,6.47s1.6-3.13-3.69-2.43c-7,.93-12,1.67-12,1.68-2.66,1.34,1.36,2.32.55,4.9l-2.68,9.1c-3.91,15.05-8.07,26.23-11.87,41.3-.27,1.18-.83,3.22-1.47,5.32-77.65,13.91-154.16,39.29-223,77-2.4,12-3.61,18-6,30a609.34,609.34,0,0,1,226.34-98.84c-2,5-3.44,8.49-6.1,12a37.1,37.1,0,0,1-11,10.34c-4.15,2.55,9.66,2.22,15.88-1.06C482,342.6,482,337.58,482,337.57a10.83,10.83,0,0,0,7.35,2.11c10.1-1.78-2.56-4.49-1.39-11.15.37-1.58.72-3.16,1.08-4.74q22.75-4.06,45.59-6.18c-.91,3.91-1.13,8.62,1.89,11.32,5.07,4.65,17.52,3.57,29.62-5.65s24.84-28,52.1-35.63c.46-1.47,1.22-5,1.67-6.46,0,0-7,5-7.19-6.38-.21-9.39,8.87-25.76,13.58-26.13,6-.47,3.77,6.49,3.77,6.49q-3.64,11.07-7.25,22.23c-3.12,9.1,3.43,11.66,10.7,10.1,5.3-1.14,7.62-3.57,9.95-5.54l2.09-6.11c-4.39,2.72-10,5.07-8.46.57,2.43-7.63,7.72-21.2,10.16-28.75C647.93,245.67,652.7,243,650,243Z" transform="translate(-201.05 -128.24)"/></g><g id="Layer_14" data-name="Layer 14"><path class="cls-5" d="M515.21,368.15c0-1.49,0-3.56-.08-4.28-1.87,1-3.56,2.06-4.67,2.75a9.28,9.28,0,0,0-1.68-2.29v-.27c3.56-1,9.22-4.28,12-6.08a2.67,2.67,0,0,0,.84.61c-.34,2.83-.34,11.47-.34,13.2,0,2.18.08,9.18.19,10.94,0,.65.15,1.26.19,1.91a26.92,26.92,0,0,0-3.33-.23,23.34,23.34,0,0,0-3.56.23,71.24,71.24,0,0,0,.42-8Z" transform="translate(-201.05 -128.24)"/><path class="cls-23" d="M513.16,386.37l.19-1.88a69.27,69.27,0,0,0,.41-7.85v-8.49c0-.56,0-1.22,0-1.85-.79.47-1.5.91-2.09,1.28l-1.76,1.09-.72-1.38a7.88,7.88,0,0,0-1.47-2l-.38-.41V363l1.06-.29c3.42-1,9.09-4.28,11.61-5.91l1.06-.68.82,1a1.29,1.29,0,0,0,.39.26l.91.46-.12,1c-.21,1.74-.34,6.49-.34,13,0,2.38.08,9.18.19,10.85,0,.3.05.59.09.88s.08.69.1,1l.1,1.72-1.85-.22a24.41,24.41,0,0,0-3-.2,22.08,22.08,0,0,0-3.32.21l-1.87.31Zm5.19-3.41c.63,0,1.2,0,1.71.06,0-.07,0-.14,0-.21-.12-1.88-.19-9.08-.19-11,0-3.21,0-8.47.21-11.64-1,.64-2.28,1.36-3.57,2.06l.08,1.59c0,.77.08,2.85.08,4.36v8.49c0,2.54-.09,4.42-.26,6.37.6,0,1.26-.05,2-.05Z" transform="translate(-201.05 -128.24)"/><path class="cls-5" d="M536.09,385.05c-3.4,0-8.68-1.53-8.68-7.92a6.75,6.75,0,0,1,5.2-6.92,5.6,5.6,0,0,1-4.51-5.62c0-3.94,3.44-6.27,8.19-6.27,4.59,0,8.26,2.14,8.26,6.27,0,2.64-1.68,4.63-4.55,5.51a6.55,6.55,0,0,1,5,6.73C545,382.45,540.64,385.05,536.09,385.05Zm2.52-8.83c0-1.45-.08-4.71-2.41-4.71s-2.41,3.9-2.41,5.66c0,1.61,0,5.54,2.41,5.54S538.61,379,538.61,376.22Zm-2.29-6.92c2.07,0,2.37-2.95,2.37-4.59s-.31-4.21-2.33-4.21-2.41,2.83-2.41,4.86C533.95,366.73,534.33,369.3,536.32,369.3Z" transform="translate(-201.05 -128.24)"/><path class="cls-23" d="M536.09,386.5c-4.67,0-10.13-2.45-10.13-9.36a8.19,8.19,0,0,1,3.33-7,7.13,7.13,0,0,1-2.64-5.59c0-4.62,3.87-7.72,9.63-7.72S546,360,546,364.59a6.71,6.71,0,0,1-2.76,5.49,7.82,7.82,0,0,1,3.22,6.75c0,6.68-5.2,9.67-10.36,9.67Zm-2.6-15-.53.13a5.3,5.3,0,0,0-4.1,5.52c0,4.4,3,5.82,5.22,6.27-1.73-1.52-1.73-4.91-1.73-6.23s0-4,1.14-5.69Zm5.3-.25c.75.9,1.27,2.44,1.27,5,0,2.22,0,5.55-1.6,7.1a6.29,6.29,0,0,0,5.1-6.49c0-2.79-1.27-4.49-4-5.35l-.76-.24ZM536.2,373c-.29,0-1,.41-1,4.22s.74,4.1,1,4.1c1,0,1-3.81,1-5.06s-.12-3.26-1-3.26ZM534,360c-2.38.5-4.5,1.88-4.5,4.6,0,1.49.6,3.43,3.46,4.23l.31.08a7.19,7.19,0,0,1-.8-3.55c0-2.91.68-4.51,1.53-5.37Zm4.66,0a6.64,6.64,0,0,1,1.44,4.7,8.89,8.89,0,0,1-.78,4.07l.21-.06c1.32-.4,3.53-1.48,3.53-4.13s-2-4.06-4.4-4.58Zm-2.34,1.93c-.57,0-1,1.4-1,3.41,0,.81.23,2.49.92,2.49.53,0,.93-1.35.93-3.14,0-1.37-.31-2.76-.89-2.76Z" transform="translate(-201.05 -128.24)"/><path class="cls-5" d="M565.14,360.42l-.31.46a7,7,0,0,0-1.8-.23,5.22,5.22,0,0,0-4.59,2.33,13.85,13.85,0,0,0-2,7.27,6.93,6.93,0,0,1,4.28-1.42c3.29,0,6.92,2.22,6.92,7.34,0,5.93-4.17,9-8.6,9a7.91,7.91,0,0,1-6.35-2.87c-2-2.6-2.49-6.12-2.49-9.06,0-4.44,1-8.53,3.9-11.44a12.23,12.23,0,0,1,8.61-3.44c.5,0,1,0,1.49.08Zm-6.2,11c-2.22,0-2.6,3.33-2.6,5.74,0,1.11,0,5.85,2.41,5.85,2.22,0,2.52-4,2.52-6.2C561.28,373.69,560.78,371.4,558.95,371.4Z" transform="translate(-201.05 -128.24)"/><path class="cls-23" d="M559,386.58a9.26,9.26,0,0,1-7.5-3.44c-1.85-2.41-2.78-5.76-2.78-9.94,0-5.36,1.45-9.55,4.32-12.45a13.72,13.72,0,0,1,9.64-3.87c.54,0,1.12,0,1.61.08l.83.07,1.66,3.52-1.33,2-1-.27a5.51,5.51,0,0,0-1.42-.18,3.78,3.78,0,0,0-3.38,1.68,11.41,11.41,0,0,0-1.53,4,8.49,8.49,0,0,1,2.58-.37c4,0,8.37,2.75,8.37,8.79,0,7.14-5.21,10.4-10,10.4Zm1.41-16.29c2.29,1.17,2.29,5.07,2.29,6.51,0,3.61-.71,5.59-1.65,6.62,2.77-.74,5.11-3.06,5.11-7.24s-2.75-5.9-5.48-5.9ZM559,360.38a10.08,10.08,0,0,0-3.89,2.39c-2.31,2.34-3.49,5.85-3.49,10.42,0,3.53.74,6.29,2.19,8.19a5.7,5.7,0,0,0,2.44,1.79c-.79-1.05-1.36-2.9-1.36-6a13.11,13.11,0,0,1,.64-4.52l-.63.43.06-2.83a15.37,15.37,0,0,1,2.26-8,6.55,6.55,0,0,1,1.78-1.82Zm-.06,12.46c-.57,0-1.16,1.47-1.16,4.29,0,3.59.82,4.41,1,4.41.37,0,1.08-1.43,1.08-4.75,0-2.73-.45-3.95-.89-3.95Z" transform="translate(-201.05 -128.24)"/><path class="cls-5" d="M575.07,368.57a114.18,114.18,0,0,0,6-10.06,18.25,18.25,0,0,0,2.68.23,22.16,22.16,0,0,0,3.17-.23c-.12,2.1-.19,2.87-.19,5.32v9.91a23.65,23.65,0,0,0,3.1-.27,15.83,15.83,0,0,0-.19,2.68,14.06,14.06,0,0,0,.19,2.45c-.92-.08-1.72-.15-3.1-.15a37.93,37.93,0,0,0,.31,6.2,31.07,31.07,0,0,0-3.29-.27,17.63,17.63,0,0,0-3.21.27c.19-1.8.27-4.82.27-6.2-.8,0-1.61,0-2.33,0-2.06,0-4.78.15-7,.34a13.66,13.66,0,0,0,.19-2.48,23.34,23.34,0,0,0-.19-2.33Zm5.77-.92c0-1.53,0-2.64-.08-3.75-1.57,2.22-5.35,8.15-6.31,9.75,1.45.08,2.83.11,4,.11,1,0,1.87,0,2.37,0Z" transform="translate(-201.05 -128.24)"/><path class="cls-23" d="M578.92,386.49l.21-2c.13-1.22.21-3.13.24-4.63h-.87c-1.84,0-4.41.13-6.87.34l-1.88.16.34-1.86a12.05,12.05,0,0,0,.17-2.23,14.48,14.48,0,0,0-.12-1.61l-.11-1.09,3.84-5.79a110.49,110.49,0,0,0,6-9.93l.47-.91,1,.15a16.69,16.69,0,0,0,2.47.21,20.37,20.37,0,0,0,3-.21l1.76-.27-.16,2.83c-.08,1.39-.13,2.24-.13,4.19v8.38c.4,0,.86-.08,1.43-.17l2-.32-.35,2a14.42,14.42,0,0,0-.17,2.43,12.61,12.61,0,0,0,.17,2.21l.31,1.83-2-.17c-.45,0-.87-.07-1.35-.1a31.48,31.48,0,0,0,.3,4.5l.28,1.85-2.46-.26a22.94,22.94,0,0,0-2.54-.19,16.19,16.19,0,0,0-2.89.23l-2,.45Zm4.87-3.57c.56,0,1.11,0,1.65.08-.11-1.35-.15-2.87-.11-4.59l0-1.42h1.42c.57,0,1.05,0,1.48,0,0-.28,0-.57,0-.88s0-.71,0-1l-1,.05-1.9.09V363.83c0-1.7,0-2.63.1-3.7a22.25,22.25,0,0,1-3.47,0l.25,3.73c.08,1.16.08,2.29.08,3.85v7.53H580.1c-1.35,0-3.52,0-5.73-.09l-1.3-.07c0,.39.06.8.06,1.22s0,.59,0,.91c2-.14,3.9-.21,5.38-.21.75,0,1.58,0,2.4,0l1.38.07v1.38c0,.89,0,2.81-.13,4.54.63,0,1.23-.06,1.63-.06ZM577,372.31c.88,0,1.72,0,2.4,0v-3.76c-.84,1.29-1.7,2.64-2.4,3.75Z" transform="translate(-201.05 -128.24)"/></g><g id="Layer_15" data-name="Layer 15"><path class="cls-5" d="M513.4,366.7c0-1.49,0-3.56-.08-4.28-1.87,1-3.56,2.06-4.67,2.75a9.31,9.31,0,0,0-1.68-2.29v-.27c3.56-1,9.22-4.28,12-6.08a2.66,2.66,0,0,0,.84.61c-.34,2.83-.34,11.47-.34,13.2,0,2.18.08,9.18.19,10.94,0,.65.15,1.26.19,1.91a26.52,26.52,0,0,0-3.33-.23,23.39,23.39,0,0,0-3.56.23,70.74,70.74,0,0,0,.42-8Z" transform="translate(-201.05 -128.24)"/><path class="cls-5" d="M511.35,384.93l.19-1.88a69.24,69.24,0,0,0,.41-7.85V366.7c0-.56,0-1.22,0-1.85-.79.47-1.5.91-2.09,1.28l-1.76,1.09-.72-1.38a7.88,7.88,0,0,0-1.47-2l-.38-.42v-1.92l1.06-.29c3.42-1,9.09-4.28,11.61-5.91l1.06-.68.82,1a1.3,1.3,0,0,0,.39.26l.91.46-.12,1c-.21,1.74-.33,6.49-.33,13,0,2.38.08,9.18.19,10.84,0,.3.05.59.09.87s.08.69.1,1l.1,1.72-1.85-.22a24.65,24.65,0,0,0-3-.2,22.11,22.11,0,0,0-3.32.21l-1.87.31Zm5.19-3.41c.63,0,1.2,0,1.71.06,0-.07,0-.14,0-.21-.12-1.88-.19-9.08-.19-11,0-3.21,0-8.47.21-11.64-1,.64-2.28,1.36-3.57,2.06l.08,1.59c0,.77.08,2.84.08,4.36v8.49c0,2.54-.09,4.42-.26,6.37.6,0,1.26-.05,2-.05Z" transform="translate(-201.05 -128.24)"/><path class="cls-5" d="M534.28,383.61c-3.4,0-8.68-1.53-8.68-7.92a6.75,6.75,0,0,1,5.2-6.92,5.6,5.6,0,0,1-4.51-5.62c0-3.94,3.44-6.27,8.19-6.27,4.59,0,8.26,2.14,8.26,6.27,0,2.64-1.68,4.63-4.55,5.51a6.54,6.54,0,0,1,5,6.73C543.19,381,538.83,383.61,534.28,383.61Zm2.52-8.83c0-1.45-.08-4.71-2.41-4.71S532,374,532,375.73c0,1.61,0,5.54,2.41,5.54S536.8,377.56,536.8,374.77Zm-2.29-6.92c2.07,0,2.37-2.95,2.37-4.59s-.31-4.21-2.33-4.21-2.41,2.83-2.41,4.86C532.14,365.29,532.52,367.85,534.51,367.85Z" transform="translate(-201.05 -128.24)"/><path class="cls-5" d="M534.28,385.05c-4.67,0-10.13-2.45-10.13-9.36a8.2,8.2,0,0,1,3.33-7,7.13,7.13,0,0,1-2.64-5.59c0-4.62,3.87-7.72,9.63-7.72s9.71,3.1,9.71,7.72a6.71,6.71,0,0,1-2.76,5.49,7.82,7.82,0,0,1,3.22,6.75c0,6.68-5.2,9.67-10.36,9.67Zm-2.6-15-.53.13a5.3,5.3,0,0,0-4.1,5.52c0,4.4,3,5.82,5.22,6.27-1.73-1.52-1.73-4.91-1.73-6.23s0-4,1.14-5.69Zm5.3-.25c.75.9,1.27,2.44,1.27,5,0,2.22,0,5.55-1.6,7.1a6.3,6.3,0,0,0,5.1-6.49c0-2.79-1.27-4.49-4-5.35l-.76-.24Zm-2.58,1.72c-.29,0-1,.41-1,4.22s.74,4.1,1,4.1c1,0,1-3.81,1-5.06s-.12-3.26-1-3.26Zm-2.17-13c-2.38.5-4.5,1.88-4.5,4.6,0,1.49.6,3.43,3.46,4.23l.31.08a7.19,7.19,0,0,1-.8-3.55c0-2.91.68-4.51,1.53-5.37Zm4.66,0a6.64,6.64,0,0,1,1.44,4.7,8.89,8.89,0,0,1-.78,4.07l.21-.06c1.32-.41,3.53-1.48,3.53-4.13s-2-4.07-4.4-4.58Zm-2.34,1.93c-.57,0-1,1.4-1,3.41,0,.81.23,2.49.92,2.49.53,0,.93-1.35.93-3.14,0-1.37-.31-2.76-.89-2.76Z" transform="translate(-201.05 -128.24)"/><path class="cls-5" d="M563.34,359l-.31.46a7,7,0,0,0-1.8-.23,5.21,5.21,0,0,0-4.59,2.33,13.84,13.84,0,0,0-2,7.27,6.93,6.93,0,0,1,4.28-1.42c3.29,0,6.92,2.22,6.92,7.34,0,5.93-4.17,9-8.6,9a7.91,7.91,0,0,1-6.35-2.87c-2-2.6-2.49-6.12-2.49-9.06,0-4.44,1-8.53,3.9-11.44a12.23,12.23,0,0,1,8.61-3.44c.5,0,1,0,1.49.08Zm-6.2,11c-2.22,0-2.6,3.33-2.6,5.74,0,1.11,0,5.85,2.41,5.85,2.22,0,2.52-4,2.52-6.2C559.47,372.25,559,370,557.14,370Z" transform="translate(-201.05 -128.24)"/><path class="cls-5" d="M557.22,385.13a9.27,9.27,0,0,1-7.5-3.44c-1.85-2.41-2.78-5.76-2.78-9.94,0-5.36,1.45-9.55,4.32-12.45a13.72,13.72,0,0,1,9.64-3.87c.54,0,1.12,0,1.61.08l.83.07L565,359.1l-1.33,2-1-.27a5.5,5.5,0,0,0-1.42-.18,3.78,3.78,0,0,0-3.38,1.68,11.38,11.38,0,0,0-1.53,4,8.48,8.48,0,0,1,2.58-.37c4,0,8.37,2.75,8.37,8.79,0,7.14-5.21,10.4-10,10.4Zm1.41-16.29c2.29,1.17,2.29,5.07,2.29,6.51,0,3.61-.71,5.59-1.65,6.62,2.77-.74,5.11-3.06,5.11-7.24s-2.75-5.9-5.48-5.9Zm-1.43-9.91a10,10,0,0,0-3.89,2.39c-2.31,2.34-3.49,5.85-3.49,10.42,0,3.53.74,6.29,2.19,8.19a5.69,5.69,0,0,0,2.44,1.79c-.79-1.05-1.36-2.9-1.36-6a13.11,13.11,0,0,1,.64-4.52l-.63.43.06-2.83a15.37,15.37,0,0,1,2.26-8,6.53,6.53,0,0,1,1.78-1.82Zm-.06,12.46c-.57,0-1.16,1.47-1.16,4.29,0,3.59.82,4.41,1,4.41.37,0,1.08-1.43,1.08-4.75,0-2.73-.45-3.95-.89-3.95Z" transform="translate(-201.05 -128.24)"/><path class="cls-5" d="M573.26,367.12a114.14,114.14,0,0,0,6-10.06,18.26,18.26,0,0,0,2.68.23,22.18,22.18,0,0,0,3.17-.23c-.12,2.1-.19,2.87-.19,5.32v9.91a23.44,23.44,0,0,0,3.1-.27,15.84,15.84,0,0,0-.19,2.68,14.07,14.07,0,0,0,.19,2.45c-.92-.08-1.72-.15-3.1-.15a37.94,37.94,0,0,0,.31,6.2,31.06,31.06,0,0,0-3.29-.27,17.63,17.63,0,0,0-3.21.27c.19-1.8.27-4.82.27-6.2-.8,0-1.61,0-2.33,0-2.06,0-4.78.15-7,.34a13.65,13.65,0,0,0,.19-2.48,23.34,23.34,0,0,0-.19-2.33Zm5.77-.92c0-1.53,0-2.64-.08-3.75-1.57,2.22-5.35,8.15-6.31,9.75,1.45.08,2.83.11,4,.11,1,0,1.87,0,2.37,0Z" transform="translate(-201.05 -128.24)"/><path class="cls-5" d="M577.12,385l.21-2c.13-1.22.21-3.13.24-4.63h-.87c-1.84,0-4.41.13-6.87.34l-1.88.16.34-1.86a12.07,12.07,0,0,0,.17-2.23,14.52,14.52,0,0,0-.12-1.61l-.11-1.09,3.84-5.79a110.48,110.48,0,0,0,6-9.93l.47-.91,1,.15a16.84,16.84,0,0,0,2.47.21,20.43,20.43,0,0,0,3-.21l1.76-.27-.16,2.83c-.08,1.39-.13,2.24-.13,4.19v8.38c.4,0,.86-.08,1.43-.17l2-.32-.35,2a14.29,14.29,0,0,0-.17,2.43,12.61,12.61,0,0,0,.17,2.21l.31,1.83-2-.17-1.35-.1a31.35,31.35,0,0,0,.3,4.5l.28,1.85-2.46-.26a23,23,0,0,0-2.54-.19,16.19,16.19,0,0,0-2.89.23l-2,.45Zm4.87-3.57c.56,0,1.11,0,1.65.08-.11-1.35-.15-2.87-.11-4.59l0-1.42H585c.57,0,1.05,0,1.48,0,0-.28,0-.57,0-.88s0-.71,0-1l-1,.05-1.9.09V362.38c0-1.7,0-2.63.1-3.7a22.24,22.24,0,0,1-3.47,0l.25,3.73c.08,1.16.08,2.29.08,3.85v7.53H578.3c-1.35,0-3.52,0-5.73-.09l-1.3-.07c0,.39.06.8.06,1.23s0,.59,0,.91c2-.14,3.9-.21,5.38-.21.75,0,1.58,0,2.4,0l1.38.07V377c0,.89,0,2.81-.13,4.54.63,0,1.23-.06,1.63-.06Zm-6.8-10.61c.89,0,1.72,0,2.4,0v-3.76c-.84,1.29-1.7,2.64-2.4,3.75Z" transform="translate(-201.05 -128.24)"/></g><g id="Layer_25" data-name="Layer 25"><path class="cls-24" d="M513.4,366.7c0-1.49,0-3.56-.08-4.28-1.87,1-3.56,2.06-4.67,2.75a9.31,9.31,0,0,0-1.68-2.29v-.27c3.56-1,9.22-4.28,12-6.08a2.66,2.66,0,0,0,.84.61c-.34,2.83-.34,11.47-.34,13.2,0,2.18.08,9.18.19,10.94,0,.65.15,1.26.19,1.91a26.52,26.52,0,0,0-3.33-.23,23.39,23.39,0,0,0-3.56.23,70.74,70.74,0,0,0,.42-8Z" transform="translate(-201.05 -128.24)"/><path class="cls-25" d="M534.28,383.61c-3.4,0-8.68-1.53-8.68-7.92a6.75,6.75,0,0,1,5.2-6.92,5.6,5.6,0,0,1-4.51-5.62c0-3.94,3.44-6.27,8.19-6.27,4.59,0,8.26,2.14,8.26,6.27,0,2.64-1.68,4.63-4.55,5.51a6.54,6.54,0,0,1,5,6.73C543.19,381,538.83,383.61,534.28,383.61Zm2.52-8.83c0-1.45-.08-4.71-2.41-4.71S532,374,532,375.73c0,1.61,0,5.54,2.41,5.54S536.8,377.56,536.8,374.77Zm-2.29-6.92c2.07,0,2.37-2.95,2.37-4.59s-.31-4.21-2.33-4.21-2.41,2.83-2.41,4.86C532.14,365.29,532.52,367.85,534.51,367.85Z" transform="translate(-201.05 -128.24)"/><path class="cls-26" d="M563.34,359l-.31.46a7,7,0,0,0-1.8-.23,5.21,5.21,0,0,0-4.59,2.33,13.84,13.84,0,0,0-2,7.27,6.93,6.93,0,0,1,4.28-1.42c3.29,0,6.92,2.22,6.92,7.34,0,5.93-4.17,9-8.6,9a7.91,7.91,0,0,1-6.35-2.87c-2-2.6-2.49-6.12-2.49-9.06,0-4.44,1-8.53,3.9-11.44a12.23,12.23,0,0,1,8.61-3.44c.5,0,1,0,1.49.08Zm-6.2,11c-2.22,0-2.6,3.33-2.6,5.74,0,1.11,0,5.85,2.41,5.85,2.22,0,2.52-4,2.52-6.2C559.47,372.25,559,370,557.14,370Z" transform="translate(-201.05 -128.24)"/><path class="cls-27" d="M573.26,367.12a114.14,114.14,0,0,0,6-10.06,18.26,18.26,0,0,0,2.68.23,22.18,22.18,0,0,0,3.17-.23c-.12,2.1-.19,2.87-.19,5.32v9.91a23.44,23.44,0,0,0,3.1-.27,15.84,15.84,0,0,0-.19,2.68,14.07,14.07,0,0,0,.19,2.45c-.92-.08-1.72-.15-3.1-.15a37.94,37.94,0,0,0,.31,6.2,31.06,31.06,0,0,0-3.29-.27,17.63,17.63,0,0,0-3.21.27c.19-1.8.27-4.82.27-6.2-.8,0-1.61,0-2.33,0-2.06,0-4.78.15-7,.34a13.65,13.65,0,0,0,.19-2.48,23.34,23.34,0,0,0-.19-2.33Zm5.77-.92c0-1.53,0-2.64-.08-3.75-1.57,2.22-5.35,8.15-6.31,9.75,1.45.08,2.83.11,4,.11,1,0,1.87,0,2.37,0Z" transform="translate(-201.05 -128.24)"/></g></g></svg>