<svg xmlns="http://www.w3.org/2000/svg" preserveAspectRatio="none" width="970" height="87"><path fill="#86613d" d="M4.733 7.4h-2.35l-.457 1.745H.104L2.77.615h1.576l2.683 8.53H5.19zM2.758 5.963h1.594l-.797-3.041zm9.852 1.435h-2.35l-.456 1.746H7.98l2.666-8.53h1.577l2.683 8.53h-1.84zm-1.974-1.435h1.593l-.797-3.041zM20.814 2.05h-2.11v7.095h-1.728V2.05h-2.074V.614h5.912zM26.037.954l-.228 2.42h-.961V.145h1.19zm1.916 0l-.234 2.42h-.955V.145h1.19zm7.522 8.191h-1.723V2.05h-2.531v7.095h-1.723V.615h5.977zm3.5 0h-1.722V.615h1.722zm1.768 0V.615h2.637c.89 0 1.567.197 2.03.594.463.396.695.977.695 1.743 0 .434-.096.807-.288 1.12a1.694 1.694 0 0 1-.785.685c.383.11.678.329.885.659.207.33.31.737.31 1.222 0 .828-.227 1.453-.682 1.875-.455.421-1.114.632-1.978.632zm1.723-3.709v2.28h1.101c.309 0 .543-.096.704-.288.16-.19.24-.462.24-.814 0-.765-.278-1.158-.832-1.178zm0-1.253h.896c.676 0 1.014-.35 1.014-1.05 0-.386-.078-.663-.234-.831-.157-.168-.41-.252-.762-.252h-.914zm9.3 3.216h-2.35l-.457 1.746h-1.822l2.666-8.53h1.576l2.684 8.53h-1.84zm-1.974-1.435h1.593l-.797-3.041zm5.496 3.181V.615h2.637c.89 0 1.567.197 2.03.594.463.396.695.977.695 1.743 0 .434-.096.807-.287 1.12a1.694 1.694 0 0 1-.786.685c.383.11.678.329.885.659.207.33.31.737.31 1.222 0 .828-.227 1.453-.682 1.875-.455.421-1.114.632-1.977.632zm1.723-3.709v2.28h1.102c.308 0 .543-.096.703-.288.16-.19.24-.462.24-.814 0-.765-.278-1.158-.832-1.178zm0-1.253h.896c.676 0 1.014-.35 1.014-1.05 0-.386-.078-.663-.234-.831-.157-.168-.41-.252-.762-.252h-.914zm9.3 3.216h-2.35l-.456 1.746h-1.823L64.35.615h1.576l2.683 8.53h-1.84zm-1.974-1.435h1.594l-.797-3.041zm7.22.181v3h-1.723V.615h2.906c.843 0 1.516.26 2.018.784.502.524.753 1.203.753 2.04 0 .835-.248 1.495-.744 1.98-.496.484-1.184.726-2.062.726zm0-1.435h1.183c.328 0 .582-.108.761-.322.18-.215.27-.528.27-.938 0-.426-.092-.764-.275-1.016a.883.883 0 0 0-.739-.384h-1.2zm11.34 4.435h-1.716v-3.65h-2.543v3.65h-1.723V.615h1.723v3.45h2.543V.615h1.717zM88.773 7.4h-2.35l-.457 1.746h-1.822L86.81.616h1.576l2.684 8.53h-1.84zm-1.975-1.435h1.594l-.797-3.041zm9.1 3.181v-3.07h-.902l-1.26 3.07h-1.857l1.512-3.691c-.703-.488-1.055-1.223-1.055-2.203 0-.844.238-1.494.712-1.951.475-.457 1.148-.686 2.019-.686h2.56v8.531zm-.855-7.095c-.652 0-.978.445-.978 1.336 0 .472.084.815.252 1.028.168.213.43.32.785.32h.797V2.05zm9.782 3.615h-.75v3.48h-1.723V.615h1.723v3.41h.58l1.483-3.41h2.097l-2.086 3.972 2.32 4.558h-2.05zm9.146 1.734h-2.35l-.457 1.746h-1.822l2.666-8.53h1.576l2.684 8.53h-1.84zm-1.974-1.435h1.593l-.797-3.041zm7.746-5.35l1.612 6.17 1.605-6.17h2.25v8.531h-1.729V6.837l.159-3.557-1.705 5.865h-1.172l-1.705-5.865.158 3.557v2.308h-1.723V.615zm13.187 8.531h-1.722V2.05h-2.532v7.095h-1.722V.615h5.976zm5.88-1.746h-2.35l-.457 1.746h-1.822l2.666-8.53h1.576l2.684 8.53h-1.84zm-1.974-1.435h1.593l-.796-3.041zm11.479 3.181h-1.717v-3.65h-2.543v3.65h-1.723V.615h1.723v3.45h2.543V.615h1.717zm3.494 0h-1.722V.615h1.722zm5.157 0v-3.07h-.902l-1.26 3.07h-1.857l1.512-3.691c-.704-.488-1.055-1.223-1.055-2.203 0-.844.237-1.494.712-1.951.474-.457 1.147-.686 2.018-.686h2.561v8.531zm-.855-7.095c-.653 0-.979.445-.979 1.336 0 .472.084.815.252 1.028.168.213.43.32.785.32h.797V2.05zm11.37 5.35h-2.35l-.457 1.745h-1.822l2.665-8.53h1.577l2.683 8.53h-1.84zm-1.975-1.436h1.594l-.797-3.041zM177.17.614v8.531h-1.728V2.05h-1.582l-.117 3.023c-.047.996-.16 1.786-.337 2.37-.178.584-.438 1.013-.78 1.286-.342.274-.801.412-1.38.416h-.421v-1.43l.199-.017c.359-.043.618-.278.776-.706.158-.428.257-1.185.296-2.27l.111-4.108zm3.497 8.531h-1.722V.615h1.722zm1.768 0V.615h2.637c.89 0 1.567.197 2.03.594.463.396.694.977.694 1.743 0 .434-.095.807-.287 1.12a1.694 1.694 0 0 1-.785.685c.383.11.678.329.885.659.207.33.31.737.31 1.222 0 .828-.227 1.453-.682 1.875-.456.421-1.115.632-1.978.632zm1.723-3.709v2.28h1.101c.309 0 .543-.096.703-.288.16-.19.24-.462.24-.814 0-.765-.277-1.158-.832-1.178zm0-1.253h.896c.676 0 1.014-.35 1.014-1.05 0-.386-.078-.663-.235-.831-.156-.168-.41-.252-.761-.252h-.914zm9.3 3.216h-2.35l-.457 1.746h-1.822l2.666-8.53h1.576l2.684 8.53h-1.84zm-1.975-1.435h1.594l-.797-3.041zm7.22.181v3h-1.723V.615h2.906c.844 0 1.517.26 2.019.784.502.524.753 1.203.753 2.04 0 .835-.248 1.495-.744 1.98-.496.484-1.184.726-2.063.726zm0-1.435h1.183c.329 0 .582-.108.762-.322.18-.215.27-.528.27-.938 0-.426-.092-.764-.276-1.016a.883.883 0 0 0-.738-.384h-1.201zm7.099-1.031h1.02c.863 0 1.55.245 2.062.735.512.49.768 1.145.768 1.966 0 .816-.25 1.477-.75 1.983s-1.163.767-1.987.782h-2.841V.615h1.728zm6.018 5.466h-1.723V.615h1.723zm-6.018-4.037v2.608h1.043c.336 0 .6-.126.794-.378.193-.252.29-.575.29-.97 0-.371-.095-.673-.284-.905-.19-.233-.452-.35-.788-.355zm11.142 4.037v-3.07h-.902l-1.26 3.07h-1.857l1.512-3.691c-.703-.488-1.055-1.223-1.055-2.203 0-.844.237-1.494.712-1.951.474-.457 1.147-.686 2.018-.686h2.56v8.531zm-.855-7.095c-.652 0-.978.445-.978 1.336 0 .472.083.815.251 1.028.168.213.43.32.786.32h.796V2.05zm5.334-1.096l-.229 2.42h-.96V.145h1.189zm1.916 0l-.234 2.42h-.955V.145h1.189zm7.121 3.451l1.149-3.79h1.851l-2.338 6.855c-.265.68-.551 1.146-.858 1.4a1.754 1.754 0 0 1-1.104.398h-.188l-.41-.023-.03-1.43c.04.016.167.024.382.024.218 0 .383-.05.495-.147.111-.097.208-.316.29-.656l.082-.31-2.438-6.112h1.846zm10.268 4.74h-1.717v-3.65h-2.543v3.65h-1.723V.615h1.723v3.45h2.543V.615h1.717zm7.718 0h-1.723V2.05h-2.531v7.095h-1.723V.615h5.977zm8.275 0h-1.664V2.63l-1.623.627V1.874l3.112-1.272h.175zm7.138-3.527c0 1.18-.213 2.082-.641 2.707-.428.625-1.038.938-1.831.938-.785 0-1.392-.304-1.82-.912-.427-.607-.649-1.477-.664-2.61V4.13c0-1.176.212-2.076.638-2.698.426-.623 1.037-.935 1.834-.935.797 0 1.408.309 1.834.926.426.617.643 1.498.65 2.642zm-1.664-1.729c0-.671-.066-1.175-.199-1.511-.133-.336-.34-.504-.62-.504-.528 0-.802.615-.821 1.846v2.127c0 .687.067 1.199.202 1.535.135.336.345.504.63.504.27 0 .47-.158.6-.472.131-.315.2-.796.208-1.444zm8.072 1.73c0 1.179-.214 2.081-.642 2.706-.427.625-1.038.938-1.83.938-.786 0-1.392-.304-1.82-.912-.428-.607-.65-1.477-.665-2.61V4.13c0-1.176.213-2.076.639-2.698.425-.623 1.037-.935 1.834-.935.796 0 1.408.309 1.834.926.425.617.642 1.498.65 2.642zm-1.664-1.73c0-.671-.067-1.175-.2-1.511-.132-.336-.34-.504-.62-.504-.528 0-.801.615-.82 1.846v2.127c0 .687.067 1.199.201 1.535.135.336.345.504.63.504.27 0 .47-.158.601-.472.13-.315.2-.796.208-1.444zm6.502 5.256h-1.664V2.63l-1.623.627V1.874L274.93.602h.176zm7.137 0h-5.028V7.974l2.309-2.936a6.4 6.4 0 0 0 .647-1.07c.139-.306.208-.6.208-.881 0-.38-.065-.676-.196-.891a.625.625 0 0 0-.565-.322c-.27 0-.484.125-.642.375-.158.25-.237.602-.237 1.054h-1.664c0-.523.108-1.001.325-1.435.217-.434.521-.77.914-1.01.392-.241.837-.361 1.333-.361.762 0 1.352.21 1.772.63.42.42.63 1.016.63 1.79 0 .48-.116.968-.348 1.462-.233.494-.654 1.102-1.263 1.825l-1.096 1.564h2.9zm6.08-6.263c0 .414-.089.781-.264 1.101-.176.32-.418.576-.727.768.352.2.629.474.832.823.203.35.305.761.305 1.233 0 .758-.219 1.357-.656 1.796-.438.44-1.034.66-1.787.66-.754 0-1.354-.22-1.8-.66-.445-.44-.667-1.038-.667-1.796 0-.472.101-.884.305-1.236a2.14 2.14 0 0 1 .837-.82 2.03 2.03 0 0 1-.732-.768 2.25 2.25 0 0 1-.264-1.101c0-.746.21-1.33.627-1.752.418-.422.979-.633 1.682-.633.71 0 1.273.213 1.687.639.414.425.621 1.007.621 1.746zm-2.297 5.004c.25 0 .442-.107.576-.32.135-.213.203-.508.203-.887 0-.38-.07-.676-.211-.891a.66.66 0 0 0-.58-.322.666.666 0 0 0-.583.322c-.143.215-.214.512-.214.89 0 .38.071.675.214.888.142.213.34.32.595.32zm.644-4.917c0-.331-.054-.597-.161-.796a.527.527 0 0 0-.495-.3c-.211 0-.371.098-.48.29-.11.194-.165.463-.165.806 0 .337.055.607.164.812.11.205.274.308.493.308.218 0 .38-.103.486-.308.105-.205.158-.475.158-.812zm3.373 1.981l.422-4.336h4.13v1.418h-2.77l-.153 1.828c.32-.215.65-.322.99-.322.703 0 1.245.25 1.626.75.38.5.571 1.207.571 2.121 0 .856-.226 1.545-.68 2.068-.453.524-1.058.786-1.816.786-.449 0-.865-.107-1.248-.32a2.35 2.35 0 0 1-.905-.887 2.556 2.556 0 0 1-.337-1.29h1.64c.028.356.116.631.264.827a.69.69 0 0 0 .575.293c.273 0 .484-.132.632-.396.149-.264.223-.657.223-1.18 0-.493-.089-.864-.267-1.114a.864.864 0 0 0-.747-.375c-.312 0-.554.108-.726.322l-.106.147zm11.092 4.195h-5.027V7.974l2.308-2.936c.293-.406.509-.763.648-1.07.138-.306.208-.6.208-.881 0-.38-.066-.676-.197-.891a.626.626 0 0 0-.565-.322c-.27 0-.483.125-.642.375-.158.25-.237.602-.237 1.054h-1.664c0-.523.109-1.001.325-1.435.217-.434.522-.77.914-1.01.393-.241.837-.361 1.333-.361.762 0 1.353.21 1.773.63.42.42.63 1.016.63 1.79 0 .48-.117.968-.349 1.462-.232.494-.653 1.102-1.263 1.825l-1.095 1.564h2.9zm1.463-4.195l.421-4.336h4.131v1.418h-2.771l-.153 1.828c.32-.215.65-.322.99-.322.704 0 1.246.25 1.627.75.38.5.57 1.207.57 2.121 0 .856-.226 1.545-.679 2.068-.453.524-1.058.786-1.816.786-.45 0-.865-.107-1.248-.32a2.35 2.35 0 0 1-.905-.887 2.556 2.556 0 0 1-.337-1.29h1.64c.028.356.115.631.264.827a.69.69 0 0 0 .574.293c.273 0 .485-.132.633-.396.148-.264.223-.657.223-1.18 0-.493-.09-.864-.267-1.114a.865.865 0 0 0-.747-.375c-.313 0-.555.108-.727.322l-.105.147zM11.706 27.047H3.02v53.286H.124v-56.43H14.6v56.43h-2.895zm9.48-3.144h7.238c5.068 0 7.24 3.386 7.24 9.593v16.768c0 6.207-2.172 9.674-7.24 9.674h-4.343v20.395h-2.896zm2.895 3.063v29.908h4.343c3.041 0 4.343-2.418 4.343-6.61V33.496c0-4.192-1.302-6.53-4.343-6.53zm28.374 42.806h-9.338l-1.303 10.56h-2.968l7.528-56.51h2.896l7.528 56.51H53.83zm-8.904-3.063h8.542l-2.1-16.365-2.17-18.944-2.173 18.944zm28.591-22.652V31.884c0-3.709-1.303-5.724-4.344-5.724-3.04 0-4.343 2.015-4.343 5.724v8.142H60.56v-8.142c0-5.724 2.171-8.787 7.238-8.787 5.068 0 7.24 3.063 7.24 8.787v12.173c0 4.11-1.16 6.852-3.62 8.06 2.46 1.21 3.62 3.951 3.62 8.062v12.092c0 5.724-2.172 8.868-7.24 8.868-5.067 0-7.238-3.144-7.238-8.868V64.21h2.895v8.061c0 3.709 1.303 5.805 4.343 5.805s4.344-2.096 4.344-5.805V60.18c0-4.192-1.303-6.53-4.344-6.53H64.18v-3.063h3.62c3.04 0 4.343-2.338 4.343-6.53zm21.135 25.715H90.38l-6.37-36.357.362 10.56v36.358h-2.896v-56.43h2.896l5.284 25.958L91.829 65.5 94 49.86l5.284-25.957h2.896v56.43h-2.896V43.976l.362-10.56zm27.432-42.725h-9.05v23.54h7.602v3.062h-7.601v23.54h9.049v3.144h-11.945v-56.43h11.945zm5.499-3.144h7.239c5.067 0 7.238 3.386 7.238 9.593v16.768c0 6.207-2.171 9.674-7.238 9.674h-4.344v20.395h-2.895zm2.895 3.063v29.908h4.344c3.04 0 4.343-2.418 4.343-6.61V33.496c0-4.192-1.302-6.53-4.343-6.53zm28.953 26.683h-8.686v26.684h-2.896v-56.43h2.896v26.683h8.686V23.903h2.896v56.43h-2.896zm21.568 16.123h-9.338l-1.303 10.56h-2.968l7.529-56.51h2.895l7.528 56.51H181zm-8.903-3.063h8.542l-2.1-16.365-2.171-18.944-2.172 18.944zm30.255-39.662h-9.049v23.54h7.601v3.062h-7.6v23.54h9.048v3.144h-11.944v-56.43h11.944zm15.632-3.144h2.823l4.271 24.184 2.171 15.156 1.738-15.156 3.764-24.184h2.823l-7.022 45.144c-1.013 7.094-2.099 11.286-7.094 11.286v-3.064c3.04 0 3.62-3.143 4.344-8.222l.072-.726zm14.478-9.674c0 4.192-1.665 6.45-5.43 6.45-3.836 0-5.429-2.258-5.429-6.45h2.534c0 2.419.869 3.789 2.895 3.789 2.027 0 2.896-1.37 2.896-3.789zm13.1 29.747c.36 4.192 1.23 6.61 3.98 6.61h.725V23.903h2.895v26.683h.724c2.751 0 3.62-2.418 3.981-6.61l.869-9.835c.579-6.691 1.882-10.48 6.37-10.48v3.063c-2.461 0-3.04 2.741-3.474 7.417l-.87 9.835c-.36 4.111-1.302 6.852-3.474 8.142 2.461 1.21 3.475 3.95 3.837 8.061l.869 9.916c.434 4.675 1.013 7.416 3.475 7.416v3.064c-4.489 0-5.792-3.79-6.37-10.48l-.87-9.916c-.362-4.192-1.303-6.53-4.343-6.53h-.724v26.684h-2.895V53.649h-.724c-3.04 0-3.982 2.338-4.344 6.53l-.868 9.916c-.58 6.69-1.883 10.48-6.37 10.48V77.51c2.46 0 3.04-2.74 3.474-7.416l.869-9.916c.361-4.111 1.375-6.852 3.836-8.061-2.244-1.29-3.113-4.03-3.475-8.142l-.868-9.835c-.434-4.676-1.014-7.417-3.475-7.417V23.66c4.489 0 5.791 3.789 6.37 10.48zm24.101-20.073h2.895v20.395h4.344c5.067 0 7.239 3.467 7.239 9.674V70.74c0 6.207-2.172 9.593-7.24 9.593h-7.238zm7.239 53.366c3.04 0 4.343-2.337 4.343-6.53V53.973c0-4.192-1.303-6.61-4.343-6.61h-4.344V77.27zm13.899 3.064h-2.896v-56.43h2.896zm20.337-48.45v13.705c0 3.225-.869 5.401-2.895 6.53 2.533 1.129 3.619 3.628 3.619 7.255v12.092c0 5.724-2.172 8.868-7.239 8.868h-7.239v-56.43h7.24c4.56 0 6.514 2.821 6.514 7.98zM298.903 53.65v23.62h4.344c3.04 0 4.343-2.095 4.343-5.804V59.373c0-3.708-1.302-5.724-4.343-5.724zm0-26.683v23.62h4.344c2.534 0 3.62-1.773 3.62-4.998V31.884c0-3.225-1.086-4.918-3.62-4.918zm30.039 42.806h-9.339l-1.302 10.56h-2.968l7.528-56.51h2.896l7.529 56.51h-2.968zm-8.904-3.063h8.542l-2.1-16.365-2.17-18.945-2.172 18.944zm29.894-13.06h-8.687v26.684h-2.896v-56.43h2.896v26.683h8.687V23.903h2.896v56.43h-2.896zm21.061 0h-8.686v26.684h-2.896v-56.43h2.896v26.683h8.686V23.903h2.896v56.43h-2.896zm21.424-26.602h-9.05v23.54h7.602v3.062h-7.601v23.54h9.049v3.144h-11.945v-56.43h11.945zm29.024 0h-8.687v53.286h-2.896v-56.43h14.478v56.43h-2.895zm12.446 53.286h-2.896v-56.43h2.896zm20.413-48.45v13.705c0 3.225-.87 5.401-2.896 6.53 2.534 1.129 3.62 3.628 3.62 7.255v12.092c0 5.724-2.172 8.868-7.24 8.868h-7.238v-56.43h7.238c4.561 0 6.516 2.821 6.516 7.98zM443.44 53.65v23.62h4.343c3.04 0 4.344-2.095 4.344-5.804V59.373c0-3.708-1.303-5.724-4.344-5.724zm0-26.683v23.62h4.343c2.534 0 3.62-1.773 3.62-4.998V31.884c0-3.225-1.086-4.918-3.62-4.918zm30.04 42.806h-9.34l-1.303 10.56h-2.968l7.529-56.51h2.896l7.528 56.51h-2.968zm-8.905-3.063h8.542l-2.1-16.365-2.171-18.944-2.172 18.944zm42.56 10.48h6.514V23.903h2.896v56.43H494.83v-56.43h2.896v53.286h6.515V23.903h2.896zm30.037-7.094c.434 4.675 1.013 7.416 3.475 7.416v3.064c-4.489 0-5.792-3.79-6.37-10.48l-.87-9.916c-.361-4.192-1.303-6.53-4.343-6.53h-2.171v26.684h-2.896v-56.43h2.896v26.683h2.17c2.752 0 3.62-2.418 3.983-6.61l.868-9.835c.58-6.691 1.883-10.48 6.37-10.48v3.063c-2.46 0-3.04 2.741-3.474 7.417l-.869 9.835c-.362 4.111-1.302 6.852-3.474 8.142 2.46 1.21 3.474 3.95 3.836 8.061zm14.764-46.998c5.067 0 7.239 3.063 7.239 8.787V72.27c0 5.724-2.172 8.868-7.24 8.868-5.067 0-7.238-3.144-7.238-8.868V31.884c0-5.724 2.171-8.787 7.239-8.787zm-4.343 49.174c0 3.709 1.302 5.805 4.343 5.805 3.04 0 4.343-2.096 4.343-5.805V31.884c0-3.709-1.303-5.724-4.343-5.724-3.041 0-4.343 2.015-4.343 5.724zm32.643 8.062H565.76v6.53h-2.534V77.19c2.534 0 3.548-7.9 3.765-14.43l1.303-38.856H580.6V77.19h2.172v9.674h-2.534zm-13.464-3.144h10.93V27.047h-6.66l-1.158 35.712c-.217 5.401-.796 11.689-3.112 14.43zm30.69-33.132V31.884c0-3.709-1.304-5.724-4.345-5.724-3.04 0-4.343 2.015-4.343 5.724v8.142h-2.895v-8.142c0-5.724 2.172-8.787 7.238-8.787 5.068 0 7.24 3.063 7.24 8.787v12.173c0 4.11-1.158 6.852-3.62 8.06 2.462 1.21 3.62 3.951 3.62 8.062v12.092c0 5.724-2.172 8.868-7.24 8.868-5.066 0-7.238-3.144-7.238-8.868V64.21h2.895v8.061c0 3.709 1.303 5.805 4.343 5.805 3.041 0 4.344-2.096 4.344-5.805V60.18c0-4.192-1.303-6.53-4.344-6.53H589.5v-3.063h3.62c3.04 0 4.343-2.338 4.343-6.53zm12.302 36.276h-2.895v-56.43h2.895zm20.775 0h-14.117v-56.43h2.896V77.19h8.687V23.903h2.896v53.286h2.171v9.674h-2.533zm6.945-56.43h2.896v20.395h4.343c5.067 0 7.24 3.467 7.24 9.674V70.74c0 6.207-2.173 9.593-7.24 9.593h-7.24zm7.24 53.366c3.04 0 4.343-2.337 4.343-6.53V53.973c0-4.192-1.304-6.61-4.344-6.61h-4.343V77.27zm39.084-45.385v13.704c0 3.225-.87 5.401-2.896 6.53 2.534 1.129 3.62 3.628 3.62 7.255v12.092c0 5.724-2.172 8.868-7.24 8.868h-7.239v-56.43h7.24c4.56 0 6.515 2.821 6.515 7.98zm-10.86 21.765v23.62h4.345c3.04 0 4.343-2.095 4.343-5.804V59.373c0-3.708-1.303-5.724-4.343-5.724zm0-26.683v23.62h4.345c2.533 0 3.62-1.773 3.62-4.998V31.884c0-3.225-1.087-4.918-3.62-4.918zm30.04 42.806h-9.339l-1.303 10.56h-2.968l7.529-56.51h2.895l7.529 56.51h-2.968zm-8.904-3.063h8.542l-2.1-16.365-2.171-18.944-2.172 18.944zm30.617 10.48h6.516V23.903h2.895v56.43h-21.716v-56.43h2.895v53.286h6.515V23.903h2.895zm28.083-7.417h-9.338l-1.303 10.56h-2.968l7.529-56.51h2.895l7.528 56.51h-2.968zm-8.904-3.063h8.542l-2.1-16.365-2.17-18.944-2.173 18.944zm30.111 3.063h-2.896l-6.37-36.357.362 10.56v36.358h-2.895v-56.43h2.895l5.284 25.958 2.172 15.639 2.172-15.64L780 23.904h2.896v56.43H780V43.976l.363-10.56zm13.678-45.87h2.823l4.271 24.185 2.172 15.156 1.737-15.156 3.764-24.184h2.823l-7.02 45.144c-1.014 7.094-2.1 11.286-7.096 11.286V77.27c3.04 0 3.62-3.143 4.344-8.222l.072-.726zm44.586 20.155V31.884c0-3.709-1.303-5.724-4.343-5.724s-4.343 2.015-4.343 5.724v8.142h-2.896v-8.142c0-5.724 2.172-8.787 7.24-8.787 5.066 0 7.238 3.063 7.238 8.787v12.173c0 4.11-1.158 6.852-3.62 8.06 2.462 1.21 3.62 3.951 3.62 8.062v12.092c0 5.724-2.172 8.868-7.239 8.868s-7.239-3.144-7.239-8.868V64.21h2.896v8.061c0 3.709 1.303 5.805 4.343 5.805s4.343-2.096 4.343-5.805V60.18c0-4.192-1.303-6.53-4.343-6.53h-3.62v-3.063h3.62c3.04 0 4.343-2.338 4.343-6.53zm23.959 36.276h-14.478v6.53h-2.534V77.19c2.534 0 3.547-7.9 3.765-14.43l1.302-38.856h12.307V77.19h2.171v9.674h-2.533zm-13.465-3.144h10.931V27.047h-6.66l-1.158 35.712c-.217 5.401-.797 11.689-3.113 14.43zm32.5-7.417h-9.338l-1.304 10.56h-2.968l7.529-56.51h2.896l7.528 56.51h-2.968zm-8.905-3.063h8.543l-2.1-16.365-2.172-18.944-2.171 18.944zm18.312-42.806h7.239c5.067 0 7.239 3.386 7.239 9.593v16.768c0 6.207-2.172 9.674-7.239 9.674h-4.343v20.395h-2.896zm2.896 3.063v29.908h4.343c3.04 0 4.343-2.418 4.343-6.61V33.496c0-4.192-1.303-6.53-4.343-6.53zm24.464-3.87c5.068 0 7.24 3.064 7.24 8.788V72.27c0 5.724-2.172 8.868-7.24 8.868-5.067 0-7.239-3.144-7.239-8.868V31.884c0-5.724 2.172-8.787 7.24-8.787zm-4.343 49.175c0 3.709 1.303 5.805 4.343 5.805s4.343-2.096 4.343-5.805V31.884c0-3.709-1.303-5.724-4.343-5.724s-4.343 2.015-4.343 5.724zm16.211-48.368h2.824l4.27 24.184 2.172 15.156 1.738-15.156 3.764-24.184h2.823l-7.022 45.144c-1.013 7.094-2.099 11.286-7.094 11.286V77.27c3.04 0 3.62-3.143 4.343-8.222l.073-.726zm14.479-9.674c0 4.192-1.666 6.45-5.43 6.45-3.836 0-5.43-2.258-5.43-6.45h2.535c0 2.419.869 3.789 2.896 3.789 2.026 0 2.895-1.37 2.895-3.789zm23.812 8.868c5.068 0 7.24 3.063 7.24 8.787V72.27c0 5.724-2.172 8.868-7.24 8.868-5.067 0-7.238-3.144-7.238-8.868V53.65h-5.791v26.684h-2.896v-56.43h2.896v26.683h5.79V31.884c0-5.724 2.172-8.787 7.24-8.787zm-4.343 49.174c0 3.709 1.303 5.805 4.343 5.805 3.041 0 4.344-2.096 4.344-5.805V31.884c0-3.709-1.303-5.724-4.344-5.724-3.04 0-4.343 2.015-4.343 5.724z"/></svg>